SplineFontDB: 3.2
FontName: Mukti
FullName: Mukti
FamilyName: Mukti
Weight: Medium
Copyright: GNU GPL3+FE (c)2002-22. Dr Anirban Mitra, Mukta Bangla Font Project, \nAs a special exception, if you create a document which uses this font, and embed this font or unaltered portions of this font into the document, this font does not by itself cause the resulting document to be covered by the GNU General Public License. This exception does not however invalidate any other reasons why the document might be covered by the GNU General Public License. If you modify this font, you may extend this exception to your version of the font, but you are not obligated to do so. If you do not wish to do so, delete this exception statement from your version
FontLog: "muktiregular3.0beta1"
Version: 3.0.1 January 26,2022
ItalicAngle: 0
UnderlinePosition: -166
UnderlineWidth: 73
Ascent: 800
Descent: 200
InvalidEm: 0
sfntRevision: 0x0001fd70
LayerCount: 2
Layer: 0 0 "Back" 1
Layer: 1 0 "Fore" 0
XUID: [1021 498 675293083 873107]
StyleMap: 0x0040
FSType: 0
OS2Version: 3
OS2_WeightWidthSlopeOnly: 0
OS2_UseTypoMetrics: 0
CreationTime: 1138213189
ModificationTime: 1643122763
PfmFamily: 33
TTFWeight: 500
TTFWidth: 5
LineGap: 0
VLineGap: 0
Panose: 0 0 6 3 0 0 0 0 0 0
OS2TypoAscent: 1241
OS2TypoAOffset: 0
OS2TypoDescent: 438
OS2TypoDOffset: 0
OS2TypoLinegap: 0
OS2WinAscent: 1241
OS2WinAOffset: 0
OS2WinDescent: 438
OS2WinDOffset: 0
HheadAscent: 1059
HheadAOffset: 0
HheadDescent: -256
HheadDOffset: 0
OS2SubXSize: 650
OS2SubYSize: 700
OS2SubXOff: 0
OS2SubYOff: 140
OS2SupXSize: 650
OS2SupYSize: 700
OS2SupXOff: 0
OS2SupYOff: 480
OS2StrikeYSize: 50
OS2StrikeYPos: 259
OS2CapHeight: 1493
OS2XHeight: 1073
OS2Vendor: 'fbf '
OS2UnicodeRanges: 80018003.00002002.00000000.00000000
Lookup: 1 0 0 "'init' Initial Forms in Bengali2 lookup 0" { "'init' Initial Forms in Bengali lookup 0 subtable"  } ['init' ('bng2' <'ASM ' 'dflt' > ) ]

StartChar: .notdef
Encoding: 154 -1 0
Width: 431
Flags: W
HStem: 0 33<65 333> 633 33<65 333>
VStem: 33 32<33 633> 333 33<33 633>
LayerCount: 2
Fore
SplineSet
33 0 m 1
 33 666 l 1
 366 666 l 1
 366 0 l 1
 33 0 l 1
65 33 m 1
 333 33 l 1
 333 633 l 1
 65 633 l 1
 65 33 l 1
EndSplineSet
Validated: 1
EndChar

StartChar: exclam
Encoding: 2 33 3
Width: 247
GlyphClass: 2
Flags: W
HStem: 0 104<93 177> 709 20G<94 177>
VStem: 94 83<0 104 330.182 729>
LayerCount: 2
Fore
SplineSet
177 729 m 1
 177 391 l 1
 155 168 l 1
 116 168 l 1
 94 391 l 1
 94 729 l 1
 177 729 l 1
177 104 m 1
 177 0 l 1
 93 0 l 1
 93 104 l 1
 177 104 l 1
EndSplineSet
Validated: 1
EndChar

StartChar: quotedbl
Encoding: 3 34 4
Width: 354
GlyphClass: 2
Flags: W
HStem: 464 245<79 118 239 278>
VStem: 52 93<563.259 709> 79 39<464 498.741> 212 93<563.259 709> 239 39<464 498.741>
LayerCount: 2
Fore
SplineSet
52 709 m 1xc0
 145 709 l 1
 145 598 l 1xc0
 118 464 l 1
 79 464 l 1xa0
 52 598 l 1
 52 709 l 1xc0
212 709 m 1x90
 305 709 l 1
 305 598 l 1x90
 278 464 l 1
 239 464 l 1x88
 212 598 l 1
 212 709 l 1x90
EndSplineSet
Validated: 1
EndChar

StartChar: numbersign
Encoding: 4 35 5
Width: 555
GlyphClass: 2
Flags: W
HStem: -20 21G<77 155.697 277 357.697> 191 68<14 115 204 315 404 509> 433 68<50 159 248 359 449 542>
LayerCount: 2
Fore
SplineSet
484 697 m 1
 449 501 l 1
 542 501 l 1
 542 433 l 1
 436 433 l 1
 404 259 l 1
 509 259 l 1
 509 191 l 1
 393 191 l 1
 354 -20 l 1
 277 -20 l 1
 315 191 l 1
 191 191 l 1
 152 -20 l 1
 77 -20 l 1
 115 191 l 1
 14 191 l 1
 14 259 l 1
 127 259 l 1
 159 433 l 1
 50 433 l 1
 50 501 l 1
 171 501 l 1
 208 697 l 1
 284 697 l 1
 248 501 l 1
 373 501 l 1
 408 697 l 1
 484 697 l 1
359 433 m 1
 235 433 l 1
 204 259 l 1
 329 259 l 1
 359 433 l 1
EndSplineSet
Validated: 1
EndChar

StartChar: dollar
Encoding: 5 36 6
Width: 555
GlyphClass: 2
Flags: W
HStem: -23 69<178.815 245 304 374.302> 645 71<179.94 245 304 371.074>
VStem: 35 79<181 208> 48 81<461.07 556> 245 59<-126 -21.2771 46 309 405 645 714.082 770> 419 79<519 594.293> 438 82<107.227 250.62>
LayerCount: 2
Fore
SplineSet
304 397 m 1xdc
 425.775699338 365.506284654 520.079400383 327.786487743 520 195 c 0
 519.949766089 110.990522648 487 50 428 12 c 0
 395 -8 354 -19 304 -23 c 1
 304 -126 l 1
 245 -126 l 1
 245 -23 l 1
 142 -16 77 26 48 104 c 0xda
 39 129 34 157 34 187 c 0
 34 191 35 195 35 199 c 0
 35 202 35 205 35 208 c 1
 114 208 l 1xe8
 117 181 l 2
 121 141 128 115 139 103 c 0
 162 71 197 52 245 46 c 1
 245 318 l 1
 183 337 141 354 119 370 c 0
 71 404 48 453 48 516 c 0
 48 613 95 676 188 704 c 0
 205 709 224 713 245 716 c 1
 245 770 l 1
 304 770 l 1
 304 716 l 1
 387 710 444 676 476 615 c 0
 491 588 498 556 498 519 c 1
 419 519 l 1
 417.611449497 589.81607566 377.589755812 642.655011099 304 646 c 1
 304 397 l 1xdc
245 405 m 1
 245 645 l 1
 181 636 143 606 132 556 c 1
 129 526 l 1
 129 466 168 426 245 405 c 1
304 309 m 1
 304 46 l 1
 345 51 375 63 396 83 c 0
 424 110 438 143 438 183 c 0
 438 264.683318381 377.17251424 288.361598548 304 309 c 1
EndSplineSet
Validated: 33
EndChar

StartChar: percent
Encoding: 6 37 7
Width: 888
GlyphClass: 2
Flags: W
HStem: -19 70<632.911 751.258> 252 70<625.391 751.594> 343 70<137.178 263> 615 70<135.992 261.152> 689 20G<598.163 675>
VStem: 29 69<452.377 571.565> 301 69<452.29 575.534> 518 69<89.2205 212.861> 790 69<89.7738 213.785>
LayerCount: 2
Fore
SplineSet
199 685 m 0
 289.714275599 685 370 614.087221003 370 515 c 0
 370 514 370 513 370 512 c 0
 370 459 349 416 307 382 c 0
 275 356 240 343 200 343 c 0
 146 343 102 364 67 406 c 0
 42 438 29 473 29 514 c 0
 29 568 50 612 92 647 c 0
 124 672 159 685 199 685 c 0
301 513 m 0
 301 567.157430031 260.242626565 615 199 615 c 0
 163 615 135 600 115 569 c 1
 114 569 l 1
 104 552 98 534 98 514 c 0
 98 461.72653389 140.090225789 413 200 413 c 0
 252.516538294 413 301 454.575005462 301 513 c 0
609 709 m 1
 675 709 l 1
 280 -20 l 1
 214 -20 l 1
 609 709 l 1
688 322 m 0
 745 322 790 300 824 256 c 0
 847 225 859 190 859 150 c 0
 859 97 838 54 796 20 c 0
 765 -6 729 -19 689 -19 c 0
 635 -19 591 2 556 44 c 0
 531 75 518 111 518 152 c 0
 518 206 539 250 582 284 c 0
 613 309 649 322 688 322 c 0
790 150 m 0
 790 199.989705077 755.885309114 243.587812984 704 251 c 0
 701 251 696 251 688 252 c 0
 635.483461706 252 587 210.424994538 587 152 c 0
 587 151 587 151 587 150 c 0
 587 109.086303386 607.414513867 84.5544002664 635 67 c 0
 635 66 635 66 636 66 c 1
 636 65 636 65 637 65 c 0
 653 56 670 51 689 51 c 0
 740.925348594 51 790 91.8107750901 790 150 c 0
EndSplineSet
Validated: 1
EndChar

StartChar: ampersand
Encoding: 7 38 8
Width: 641
GlyphClass: 2
Flags: W
HStem: -23 78<170.54 320.062> -0 21G<486.103 611> 528 21G<107.333 108.5> 639 70<213.252 334.827>
VStem: 26 84<111.713 251.646> 362 79<494.922 611.566> 467 80<233.821 334>
LayerCount: 2
Fore
SplineSet
275 639 m 0x3e
 223.577421824 639 189 609.367860496 189 553 c 0
 189 535 192 521 199 509 c 0
 207 494 227 467 259 431 c 1
 302 458 331 481 345 500 c 0
 356 516 362 534 362 554 c 0
 362 601.483753222 328.307854454 639 275 639 c 0x3e
392 137 m 1
 232 337 l 1
 184 306 151 279 134 255 c 0
 118 234 110 210 110 183 c 0
 110 140 128 105 164 80 c 0
 187 63 213 55 241 55 c 0xbe
 262 55 282 59 302 67 c 0
 329 79 359 102 392 137 c 1
107 552 m 2
 109 528 l 2
 108 535 107 543 107 552 c 2
231 -23 m 0
 111.710842527 -23 26 50.9173063149 26 176 c 0
 26 235 47 282 88 319 c 0
 111 340 144 364 188 389 c 1
 141 448 110.482329647 501.754957955 107 552 c 0
 103.482329647 602.754957955 128 644 171 675 c 0
 203 698 238 709 278 709 c 0
 279 709 279 709 280 709 c 0
 338.442508552 709 381.755286992 687.086480387 408 651 c 1
 414 642 l 1
 432 617 441 587 441 552 c 0
 441 461.016346093 372.630655551 417.520101799 303 378 c 1
 436 215 l 1
 451.49577387 242.892392966 467 286.785894199 467 328 c 0
 467 330 467 332 467 334 c 1
 547 334 l 1
 547 272 528 211 489 151 c 1
 611 -0 l 1
 502 -0 l 1x7e
 440 78 l 1
 378.359210845 18.4139038169 335.035256583 -21.1084498803 231 -23 c 0
EndSplineSet
Validated: 37
EndChar

StartChar: quotesingle
Encoding: 8 39 9
Width: 190
GlyphClass: 2
Flags: W
HStem: 464 245<75 115>
VStem: 48 94<563.259 709> 75 40<464 498.741>
LayerCount: 2
Fore
SplineSet
48 709 m 1xc0
 142 709 l 1
 142 598 l 1xc0
 115 464 l 1
 75 464 l 1xa0
 48 598 l 1
 48 709 l 1xc0
EndSplineSet
Validated: 1
EndChar

StartChar: parenleft
Encoding: 9 40 10
Width: 332
GlyphClass: 2
Flags: W
HStem: 709 20G<201 291>
VStem: 73 80<88.7409 429.364>
LayerCount: 2
Fore
SplineSet
153 259 m 0
 153 95 200 -63 291 -212 c 1
 235 -212 l 1
 166 -122 118 -17 91 102 c 0
 79 156 73 209 73 259 c 0
 73 310 79 364 92 419 c 0
 119 537 167 640 235 729 c 1
 291 729 l 1
 226 624 184 511 165 389 c 0
 158 346 153 303 153 259 c 0
EndSplineSet
Validated: 1
EndChar

StartChar: parenright
Encoding: 10 41 11
Width: 332
GlyphClass: 2
Flags: W
HStem: 709 20G<38 126.5>
VStem: 174 81<93.1899 425.672>
LayerCount: 2
Fore
SplineSet
92 -212 m 1
 38 -212 l 1
 102 -108 144 6 164 128 c 0
 171 171 174 215 174 258 c 0
 174 423 129 580 38 729 c 1
 92 729 l 1
 161 638 209 533 236 415 c 0
 249 361 255 309 255 258 c 0
 255 207 248 153 235 98 c 0
 208 -20 160 -123 92 -212 c 1
EndSplineSet
Validated: 1
EndChar

StartChar: asterisk
Encoding: 11 42 12
Width: 388
GlyphClass: 2
Flags: W
HStem: 441 288
VStem: 160 63<617 729>
LayerCount: 2
Fore
SplineSet
160 729 m 1
 223 729 l 1
 217 617 l 1
 324 655 l 1
 342 596 l 1
 234 566 l 1
 305 477 l 1
 253 441 l 1
 191 534 l 1
 128 441 l 1
 79 477 l 1
 147 566 l 1
 40 596 l 1
 59 655 l 1
 165 617 l 1
 160 729 l 1
EndSplineSet
Validated: 1
EndChar

StartChar: plus
Encoding: 12 43 13
Width: 583
GlyphClass: 2
Flags: W
HStem: -10 21G<257 327> 197 70<50 257 327 534>
VStem: 257 70<-10 197 267 474>
LayerCount: 2
Fore
SplineSet
534 267 m 1
 534 197 l 1
 327 197 l 1
 327 -10 l 1
 257 -10 l 1
 257 197 l 1
 50 197 l 1
 50 267 l 1
 257 267 l 1
 257 474 l 1
 327 474 l 1
 327 267 l 1
 534 267 l 1
EndSplineSet
Validated: 1
EndChar

StartChar: comma
Encoding: 13 44 14
Width: 303
GlyphClass: 2
Flags: W
HStem: 114 49<97.2832 184.766>
VStem: 187 46<37.7376 111.166>
LayerCount: 2
Fore
SplineSet
187 86 m 0
 187 105.309102259 169.03857033 114 145 114 c 0
 144 114 143 114 141 114 c 0
 125 113 117 112 116 112 c 0
 103 117 97 125 97 137 c 0
 97 147 101 154 111 160 c 1
 133 162 151 164 163 163 c 0
 166 163 168 162 170 162 c 0
 212 151 233 127 233 90 c 0
 233 74 227.93579489 58.4725128648 221 42 c 0
 203.93579489 1.47251286481 175 -35 134 -66 c 1
 113.030110325 -67.397992645 100 -61.5206645004 100 -43 c 0
 100 -38 101 -34 104 -28 c 1
 117 -19 132 -3 150 18 c 0
 174 47 187 69 187 86 c 0
EndSplineSet
Validated: 33
EndChar

StartChar: period
Encoding: 15 46 15
Width: 277
GlyphClass: 2
Flags: W
HStem: 0 104<87 191>
VStem: 87 104<0 104>
LayerCount: 2
Fore
SplineSet
191 104 m 1
 191 0 l 1
 87 0 l 1
 87 104 l 1
 191 104 l 1
EndSplineSet
Validated: 1
EndChar

StartChar: slash
Encoding: 16 47 16
AltUni2: 002044.ffffffff.0
Width: 277
GlyphClass: 2
Flags: W
HStem: -20 21G<-8 53.3284> 709 20G<222.672 284>
VStem: -8 292
LayerCount: 2
Fore
SplineSet
229 729 m 1
 284 729 l 1
 47 -20 l 1
 -8 -20 l 1
 229 729 l 1
EndSplineSet
Validated: 1
EndChar

StartChar: zero
Encoding: 17 48 17
Width: 555
GlyphClass: 2
Flags: W
HStem: -23 73<208.898 340.991> 631 78<209.715 340.562>
VStem: 43 90<159.427 522.811> 417 90<160.005 524.357>
LayerCount: 2
Fore
SplineSet
275 709 m 2
 344 709 397 684 436 634 c 0
 437 633 437 632 438 631 c 0
 484 569 507 470 507 337 c 0
 507 156 461 43 369 -3 c 0
 341 -16 310 -23 275 -23 c 0
 158 -23 85 49 56 193 c 0
 47 236 43 286 43 343 c 0
 43 577 115 699 261 709 c 1
 275 709 l 2
275 631 m 0
 180 631 133 535 133 342 c 0
 133 147 180 50 273 50 c 0
 352 50 398 114 412 242 c 0
 415 272 417 306 417 345 c 0
 417 535 370 631 275 631 c 0
EndSplineSet
Validated: 1
EndChar

StartChar: one
Encoding: 18 49 18
Width: 460
GlyphClass: 2
Flags: W
HStem: 0 21G<229 318> 505 63<73 175.129> 689 20G<253.077 318>
VStem: 229 89<0 505>
LayerCount: 2
Fore
SplineSet
229 505 m 1
 73 505 l 1
 73 568 l 1
 138 576 183 589 208 606 c 0
 226 620 239 646 251 683 c 2
 260 709 l 1
 318 709 l 1
 318 0 l 1
 229 0 l 1
 229 505 l 1
EndSplineSet
Validated: 1
EndChar

StartChar: two
Encoding: 19 50 19
Width: 555
GlyphClass: 2
Flags: W
HStem: 0 87<132 505> 632 77<202.328 357.947>
VStem: 49 89<463 562.994> 420 85<426.316 571.151>
LayerCount: 2
Fore
SplineSet
284 709 m 0
 412.550558368 709 511 625.021580079 511 501 c 0
 511 413 460 342 360 287 c 2
 261 233 l 1
 226 212 199 194 181 176 c 0
 154 152 138 122 132 87 c 1
 505 87 l 1
 505 0 l 1
 34 0 l 1
 39 85 57 150 90 195 c 0
 119 232 166 269 232 307 c 2
 325 359 l 2
 388 395 419 442 420 499 c 0
 420 573.281257415 362.740044173 632 280 632 c 0
 226.545627656 632 181.415916251 607.831832502 159 563 c 0
 148 542 141 508 138 463 c 1
 49 463 l 1
 51 530 64 581 87 617 c 0
 127 678 193 709 284 709 c 0
EndSplineSet
Validated: 1
EndChar

StartChar: three
Encoding: 20 51 20
Width: 555
GlyphClass: 2
Flags: W
HStem: -23 78<181.985 356.618> 326 74<221 349.642> 632 76<192.357 347.228>
VStem: 32 88<119.667 206> 46 88<480 576.961> 395 89<442.201 587.208> 416 89<115.143 276.516>
LayerCount: 2
Fore
SplineSet
120 206 m 1xf2
 125.76613958 104.515943388 172.357639756 55 269 55 c 0
 338 55 383 82 404 134 c 0
 411 152 416 173 416 197 c 0xf2
 416 283 367 326 269 326 c 0
 253 325 237 325 221 325 c 1
 221 400 l 1
 277 401 315 406 337 415 c 0
 374 430 394 462 395 511 c 0
 395 586.37322393 350.897385254 632 270 632 c 0
 218 632 180 614 157 579 c 1
 155 578 l 1
 142 556 135 523 134 480 c 1
 46 480 l 1
 49 620 112 696 236 708 c 1
 269 709 l 1
 362 709 424 678 459 616 c 0
 476 587 484 553 484 514 c 0xec
 484 442 452 393 386 367 c 1
 448 346 486 310 499 259 c 0
 504 242 505 221 505 198 c 0
 505 116 474 55 412 15 c 0
 372 -10 323 -23 266 -23 c 0
 114.18759187 -23 40.6386029046 56.2642163205 32 206 c 1
 120 206 l 1xf2
EndSplineSet
Validated: 1
EndChar

StartChar: four
Encoding: 21 52 21
Width: 555
GlyphClass: 2
Flags: W
HStem: 0 21G<327 415> 170 79<105 327 415 520> 689 20G<335.561 415>
VStem: 327 88<0 170 249 559>
LayerCount: 2
Fore
SplineSet
327 170 m 1
 28 170 l 1
 28 263 l 1
 350 709 l 1
 415 709 l 1
 415 249 l 1
 520 249 l 1
 520 170 l 1
 415 170 l 1
 415 0 l 1
 327 0 l 1
 327 170 l 1
327 249 m 1
 327 559 l 1
 105 249 l 1
 327 249 l 1
EndSplineSet
Validated: 1
EndChar

StartChar: five
Encoding: 22 53 22
Width: 555
GlyphClass: 2
Flags: W
HStem: -23 78<188.216 353.05> 389 78<185.945 352.696> 622 87<181 476>
VStem: 35 88<124.992 174> 422 91<124.824 316.871>
LayerCount: 2
Fore
SplineSet
422 219 m 0
 422 319.32657654 369.94032217 389 268 389 c 0
 228 389 194 377 167 354 c 0
 158 346 148 335 138 323 c 1
 57 323 l 1
 109 709 l 1
 476 709 l 1
 476 622 l 1
 181 622 l 1
 152 424 l 1
 188 452 232 466 284 467 c 0
 364 467 424 438 467 380 c 0
 497 339 513 290 513 231 c 0
 513 88.1490740828 417.481246184 -23 270 -23 c 0
 136.02577499 -23 54.8161506567 50.6995070249 35 174 c 1
 123 174 l 1
 144 95 192 55 268 55 c 0
 364.69596351 55 422 114.136057839 422 219 c 0
EndSplineSet
Validated: 1
EndChar

StartChar: six
Encoding: 23 54 23
Width: 555
GlyphClass: 2
Flags: W
HStem: -23 78<206.082 356.092> 363 78<203.537 363.636> 524 21G<402.5 498> 631 78<217.628 360.699>
VStem: 43 95<151.509 295.378 362 508.253> 410 88<524 580.278> 423 90<124.569 301.159>
LayerCount: 2
Fore
SplineSet
281 -23 m 0xfa
 104.550096358 -23 44.7626758094 125.156364205 43 312 c 1
 43 323 l 2
 43 446 64 541 107 608 c 0
 152 675 215 709 297 709 c 0
 374 709 431 678 467 616 c 0
 483 590 493 559 498 524 c 1
 410 524 l 1xfc
 395 595 355 631 291 631 c 0
 217 631 169 583 146 487 c 0
 137 451 133 410 133 362 c 1
 172 415 226 441 296 441 c 0
 370 441 428 413 469 358 c 0
 498 319 513 271 513 216 c 0
 513 137 486 75 431 29 c 0
 390 -6 340 -23 281 -23 c 0xfa
423 209 m 0xfa
 423 299.469079134 377.141127524 363 285 363 c 0
 200.26668097 363 138 305.559192686 138 214 c 0
 138 129.666185794 191.739164081 55 282 55 c 0
 363.051205104 55 423 119.708339219 423 209 c 0xfa
EndSplineSet
Validated: 1
EndChar

StartChar: seven
Encoding: 24 55 24
Width: 555
GlyphClass: 2
Flags: W
HStem: 0 21G<138 244.5> 622 87<46 429>
VStem: 138 94<0 80.6211>
LayerCount: 2
Fore
SplineSet
520 709 m 1
 520 635 l 1
 462 558 413 483 374 410 c 0
 304 280 257 144 232 0 c 1
 138 0 l 1
 185 216 282 424 429 622 c 1
 46 622 l 1
 46 709 l 1
 520 709 l 1
EndSplineSet
Validated: 1
EndChar

StartChar: eight
Encoding: 25 56 25
Width: 555
GlyphClass: 2
Flags: W
HStem: -23 78<190.562 358.063> 334 74<196.039 351.594> 631 78<195.803 352.887>
VStem: 37 89<118.824 273.36> 62 89<452.328 585.298> 397 90<459.269 588.026> 422 91<116.568 272.964>
LayerCount: 2
Fore
SplineSet
274 709 m 0xe8
 391.895552773 709 487 641.729344137 487 520 c 0xec
 487 475 472 438 442 410 c 2
 430 399 l 1
 391 373 l 1
 472 334 512 275 513 196 c 0
 513 121 484 64 426 23 c 0
 384 -8 333 -23 274 -23 c 0
 140.537421392 -23 37 59.2119866067 37 197 c 0xf2
 37 276 77 334 158 373 c 1
 141 384 127 394 116 403 c 0
 82 431 65 466 62 507 c 1
 62 520 l 2
 62 586 89 637 143 672 c 0
 180 697 223 709 274 709 c 0xe8
397 518 m 0
 397 587.651443138 350.503459468 631 274 631 c 0
 220 631 184 611 164 572 c 0
 156 557 151 539 151 519 c 0
 151 452.146731852 199.654177283 408 274 408 c 0
 327 408 364 427 384 465 c 0
 385 465 386 465 386 466 c 0
 394 481 397 498 397 518 c 0
422 195 m 0xf2
 422 277.610518987 364.573285689 334 274 334 c 0
 189.521272523 334 126 284.186248876 126 195 c 0
 126 113.090313947 183.080945992 55 272 55 c 0
 358.283798748 55 422 105.299203015 422 195 c 0xf2
EndSplineSet
Validated: 1
EndChar

StartChar: nine
Encoding: 26 57 26
Width: 555
GlyphClass: 2
Flags: W
HStem: -23 78<190.362 293> 245 78<186.918 345.245> 632 77<194.663 344.899>
VStem: 38 89<385.986 561.916> 53 88<105.722 162> 413 95<177.747 324 391.153 535.015>
LayerCount: 2
Fore
SplineSet
270 709 m 0xf4
 446.676803147 709 506.226175695 562.025376307 508 374 c 1
 508 363 l 2
 508 240 486 145 443 78 c 0
 408 24 358 -9 293 -20 c 1
 253 -23 l 1
 177 -23 120 8 83 70 c 0
 68 97 58 127 53 162 c 1
 141 162 l 1xec
 156 91 195 55 259 55 c 0
 333 55 382 103 404 199 c 0
 413 235 417 276 417 324 c 1
 374 273 320 246 255 245 c 0
 180 245 123 273 82 328 c 0
 53 367 38 415 38 470 c 0
 38 549 65 611 120 657 c 0
 161 692 211 709 270 709 c 0xf4
413 472 m 0
 413 557.36957949 359.005408649 632 269 632 c 0
 187.465022207 630.401274945 127 568.710710192 127 477 c 0xf4
 127 386.771854344 173.463164605 323 266 323 c 0
 349.466138925 323 413 381.636445588 413 472 c 0
EndSplineSet
Validated: 1
EndChar

StartChar: colon
Encoding: 27 58 27
Width: 245
GlyphClass: 2
Flags: W
HStem: -6 90<97.152 170.717> 224 90<97.152 170.717>
VStem: 90 88<1.19798 76.3021 231.198 306.53>
LayerCount: 2
Fore
SplineSet
178 271 m 0
 178 246.734660018 158.979956872 224 135 224 c 0
 110.062283216 224 90 245.635403195 90 271 c 0
 90 294.267976186 112.711727245 314 136 314 c 0
 159.3225211 314 178 294.302525472 178 271 c 0
178 41 m 0
 178 16.7346600182 158.979956872 -6 135 -6 c 0
 110.062283216 -6 90 15.6354031948 90 41 c 0
 90 63.4051823429 112.711727245 84 136 84 c 0
 159.3225211 84 178 63.4327510006 178 41 c 0
EndSplineSet
Validated: 1
EndChar

StartChar: semicolon
Encoding: 28 59 28
Width: 341
GlyphClass: 2
Flags: W
HStem: 71 49<134.251 223.139> 224 90<136.152 209.717>
VStem: 129 88<231.198 306.53> 225 48<-4.16913 69.2973>
LayerCount: 2
Fore
SplineSet
208 119 m 0
 251 110 273 86 273 47 c 0
 273 -10.3865657813 212.522998125 -82.1243612748 173 -109 c 1
 151.372807727 -110.441812818 138 -103.866560297 138 -84 c 0
 138 -80 139 -76 141 -70 c 1
 153 -63 169 -47 189 -23 c 0
 213 6 225 29 225 46 c 0
 225 64 211 72 183 71 c 1
 179 71 l 1
 155 69 l 1
 141 75 134 83 134 95 c 0
 134 104 139 111 149 117 c 1
 170 119 188 121 201 120 c 0
 204 120 206 119 208 119 c 0
217 271 m 0
 217 246.734660018 197.979956872 224 174 224 c 0
 149.062283216 224 129 245.635403195 129 271 c 0
 129 294.267976186 151.711727245 314 175 314 c 0
 198.3225211 314 217 294.302525472 217 271 c 0
EndSplineSet
Validated: 33
EndChar

StartChar: less
Encoding: 29 60 29
Width: 583
GlyphClass: 2
Flags: W
HStem: -9 21G<486.754 534>
LayerCount: 2
Fore
SplineSet
45 198 m 1
 45 267 l 1
 534 474 l 1
 534 395 l 1
 140 234 l 1
 534 70 l 1
 534 -9 l 1
 45 198 l 1
EndSplineSet
Validated: 1
EndChar

StartChar: equal
Encoding: 30 61 30
Width: 583
GlyphClass: 2
Flags: W
HStem: 111 70<50 534> 283 70<50 534>
LayerCount: 2
Fore
SplineSet
534 353 m 1
 534 283 l 1
 50 283 l 1
 50 353 l 1
 534 353 l 1
534 181 m 1
 534 111 l 1
 50 111 l 1
 50 181 l 1
 534 181 l 1
EndSplineSet
Validated: 1
EndChar

StartChar: greater
Encoding: 31 62 31
Width: 583
GlyphClass: 2
Flags: W
HStem: -9 21G<50 97.2464>
LayerCount: 2
Fore
SplineSet
539 267 m 1
 539 198 l 1
 50 -9 l 1
 50 70 l 1
 444 231 l 1
 50 395 l 1
 50 474 l 1
 539 267 l 1
EndSplineSet
Validated: 1
EndChar

StartChar: question
Encoding: 32 63 32
Width: 555
GlyphClass: 2
Flags: W
HStem: 0 104<240 330> 663 78<256 355.108>
VStem: 77 85<507 610.803> 240 90<0 104 199 310.713> 418 90<477.024 618.252>
LayerCount: 2
Fore
SplineSet
291 663 m 0
 195.614491539 663 162 608.093399613 162 507 c 1
 77 507 l 1
 77 648 136 725 256 739 c 1
 295 741 l 1
 379 741 441 713 479 657 c 0
 498 626 507 590 508 549 c 0
 508 518 501 489 488 464 c 0
 474 437 448 405 409 370 c 0
 368 332 343 304 336 287 c 1
 333 277 l 1
 330 253 329 227 330 199 c 1
 240 199 l 1
 240 254 l 1
 243.482094441 303.910020325 258.24803491 338.640445694 286 364 c 2
 344 417 l 1
 394 461 418 505 418 549 c 0
 418 596 398 629 357 649 c 1
 356 649 l 1
 337 658 316 663 291 663 c 0
330 104 m 1
 330 0 l 1
 240 0 l 1
 240 104 l 1
 330 104 l 1
EndSplineSet
Validated: 33
EndChar

StartChar: at
Encoding: 33 64 33
Width: 1014
GlyphClass: 2
Flags: W
HStem: -142 77<354.544 646.03> 62 64<395.239 504.905 653.551 759.511> 458 64<447.833 575.327> 664 77<386.262 641.921>
VStem: 34 85<154.111 398.084> 264 90<167.891 347.954> 863 88<334 462.805>
LayerCount: 2
Fore
SplineSet
426 62 m 0
 332.49777178 62 264 142.341560314 264 245 c 0
 264 318 290 382 342 438 c 0
 393 493 454 521 521 522 c 0
 576 522 617 493 643 435 c 1
 665 501 l 1
 748 501 l 1
 658 221 l 2
 650 198 646 182 646 171 c 0
 646 153 655 140 674 131 c 1
 675 131 l 1
 681 128 688 127 695 127 c 0
 738 127 778 151 813 199 c 0
 847 246 863 299 863 357 c 0
 863 437 831 507 767 566 c 0
 701 628 620 660 527 664 c 1
 512 664 l 2
 414 664 327 630 251 562 c 1
 221 531 l 1
 153 456 119 370 119 273 c 0
 119 179 154 99 224 35 c 0
 296 -32 386 -65 494 -65 c 0
 547 -65 611 -54 687 -33 c 1
 714 -100 l 1
 638 -128 563 -142 488 -142 c 0
 368 -142 265 -106 178 -35 c 0
 82 44 34 141 34 258 c 1
 35 283 l 1
 42 412 93 522 191 612 c 0
 263 677 350 718 450 735 c 0
 473 738 498 740 524 741 c 0
 635 741 731 707 813 640 c 0
 904 566 951 475 951 369 c 1
 949 334 l 1
 941 265 913 202 865 146 c 0
 814 87 752 57 679 57 c 0
 615 57 577 83 568 134 c 1
 523 86 476 62 426 62 c 0
515 458 m 0
 471 458 432 434 398 387 c 0
 368 345 354 297 354 244 c 0
 354 197.000405533 370.978496618 162.104593061 401 143 c 0
 416 132 434 126 453 126 c 0
 528.517287375 126 575.515370624 211.009945432 595 287 c 0
 608.598097529 336.293103542 619.230561318 387.254693762 591 422 c 0
 574.526049268 440.827372266 548.105431008 458 515 458 c 0
EndSplineSet
Validated: 33
EndChar

StartChar: bracketleft
Encoding: 34 91 34
Width: 277
GlyphClass: 2
Flags: W
HStem: -212 72<147 250> 657 72<147 250>
VStem: 64 186<-212 -140 657 729> 64 83<-140 657>
LayerCount: 2
Fore
SplineSet
250 729 m 1xe0
 250 657 l 1xe0
 147 657 l 1
 147 -140 l 1xd0
 250 -140 l 1
 250 -212 l 1
 64 -212 l 1
 64 729 l 1
 250 729 l 1xe0
EndSplineSet
Validated: 1
EndChar

StartChar: backslash
Encoding: 35 92 35
Width: 277
GlyphClass: 2
Flags: W
HStem: -20 21G<222.672 284> 709 20G<-8 53.3284>
VStem: -8 292
LayerCount: 2
Fore
SplineSet
47 729 m 1
 284 -20 l 1
 229 -20 l 1
 -8 729 l 1
 47 729 l 1
EndSplineSet
Validated: 1
EndChar

StartChar: bracketright
Encoding: 36 93 36
Width: 277
GlyphClass: 2
Flags: W
HStem: -212 72<23 126> 657 72<23 126>
VStem: 23 186<-212 -140 657 729> 126 83<-140 657>
LayerCount: 2
Fore
SplineSet
23 -212 m 1xe0
 23 -140 l 1xe0
 126 -140 l 1
 126 657 l 1xd0
 23 657 l 1
 23 729 l 1
 209 729 l 1
 209 -212 l 1
 23 -212 l 1xe0
EndSplineSet
Validated: 1
EndChar

StartChar: asciicircum
Encoding: 37 94 37
Width: 468
GlyphClass: 2
Flags: W
HStem: 689 20G<188.947 278.158>
LayerCount: 2
Fore
SplineSet
197 709 m 1
 270 709 l 1
 425 329 l 1
 356 329 l 1
 234 629 l 1
 113 329 l 1
 44 329 l 1
 197 709 l 1
EndSplineSet
Validated: 1
EndChar

StartChar: underscore
Encoding: 38 95 38
Width: 555
GlyphClass: 2
Flags: W
HStem: -176 50<-22 578>
LayerCount: 2
Fore
SplineSet
578 -126 m 1
 578 -176 l 1
 -22 -176 l 1
 -22 -126 l 1
 578 -126 l 1
EndSplineSet
Validated: 1
EndChar

StartChar: grave
Encoding: 39 96 39
Width: 332
GlyphClass: 2
Flags: W
HStem: 592 148
VStem: 22 209
LayerCount: 2
Fore
SplineSet
135 740 m 1
 231 592 l 1
 171 592 l 1
 22 740 l 1
 135 740 l 1
EndSplineSet
Validated: 1
EndChar

StartChar: braceleft
Encoding: 40 123 40
Width: 333
GlyphClass: 2
Flags: W
HStem: -212 65<207.664 276> 664 65<206.891 276>
VStem: 121 77<-138.56 190.412 325.653 655.496>
LayerCount: 2
Fore
SplineSet
121 598 m 2
 121 678.690418968 155.146207232 729 230 729 c 2
 276 729 l 1
 276 664 l 1
 261 664 l 2
 209.917144153 664 198 645.299082313 198 597 c 2
 198 416 l 2
 198 351 184 306 157 283 c 0
 150.661700763 276.661700763 137.81776059 269.389409805 116 259 c 1
 171 234 198 181 198 101 c 2
 198 -80 l 2
 198 -132.023996732 213.193438546 -147 261 -147 c 2
 276 -147 l 1
 276 -212 l 1
 230 -212 l 2
 158.117472664 -212 121 -161.838725426 121 -81 c 2
 121 86 l 2
 121 148 109 188 86 206 c 0
 75 214 61 220 43 224 c 1
 43 293 l 1
 109.047713962 305.842611048 121 350.710993562 121 431 c 2
 121 598 l 2
EndSplineSet
Validated: 1
EndChar

StartChar: bar
Encoding: 41 124 41
Width: 259
GlyphClass: 2
Flags: W
HStem: 709 20G<100 160>
VStem: 100 60<-212 729>
LayerCount: 2
Fore
SplineSet
100 729 m 1
 160 729 l 1
 160 -212 l 1
 100 -212 l 1
 100 729 l 1
EndSplineSet
Validated: 1
EndChar

StartChar: braceright
Encoding: 42 125 42
Width: 333
GlyphClass: 2
Flags: W
HStem: -212 65<29 99.588> 224 69<216.425 262> 664 65<29 98.2557>
VStem: 109 77<-135.747 190.329 324.084 655.69>
CounterMasks: 1 e0
LayerCount: 2
Fore
SplineSet
186 -81 m 2
 186 -162.252015238 152.566226565 -212 76 -212 c 2
 29 -212 l 1
 29 -147 l 1
 45 -147 l 2
 77 -147 97 -138 104 -120 c 0
 107 -113 108 -99 109 -80 c 1
 109 101 l 2
 109 181 136 234 191 258 c 1
 136 283 109 336 109 416 c 2
 109 597 l 2
 109 648.73837046 92.1784272196 664 45 664 c 2
 29 664 l 1
 29 729 l 1
 76 729 l 2
 147.44745528 729 186 679.142873653 186 598 c 2
 186 431 l 2
 186 345.764724443 202.596859411 303.482907163 262 293 c 1
 262 224 l 1
 198.803520575 211.360704115 186 164.866591934 186 86 c 2
 186 -81 l 2
EndSplineSet
Validated: 1
EndChar

StartChar: asciitilde
Encoding: 43 126 43
Width: 583
GlyphClass: 2
Flags: W
HStem: 268 68<346.469 445.738>
VStem: 75 52<293 357.151> 454 53<344.992 411>
LayerCount: 2
Fore
SplineSet
402 268 m 0
 375 268 348 277 321 294 c 2
 224 357 l 2
 212 364 197.182818403 369.967054144 181 371 c 0
 150.182818403 372.967054144 132 345 127 293 c 1
 75 293 l 1
 80 380 110 428 166 437 c 0
 193.057409797 440.183224682 218.0978119 432.229821771 236 422 c 2
 354 353 l 2
 373 342 388 336 403 336 c 0
 433 336 450 352 454 385 c 1
 455 411 l 1
 507 411 l 1
 507 395 l 2
 507 338 489 300 451 280 c 0
 437 272 420 268 402 268 c 0
EndSplineSet
Validated: 33
EndChar

StartChar: danda
Encoding: 47 2404 44
Width: 294
GlyphClass: 2
Flags: W
HStem: 0 21G<158 224>
VStem: 158 66<0 585>
LayerCount: 2
Fore
SplineSet
224 585 m 1
 224 0 l 1
 158 0 l 1
 160 585 l 1
 224 585 l 1
EndSplineSet
Validated: 1
EndChar

StartChar: doubledanda
Encoding: 48 2405 45
Width: 424
GlyphClass: 2
Flags: W
HStem: 515 20G<139.86 156.084>
VStem: 110 48<61 478> 253 49<70 487>
LayerCount: 2
Fore
SplineSet
307 545 m 1
 302 70 l 1
 253 16 l 1
 257 487 l 1
 307 545 l 1
156 535 m 1
 158 61 l 1
 110 11 l 1
 110 478 l 1
 156 535 l 1
EndSplineSet
Validated: 1
EndChar

StartChar: u0981
Encoding: 50 2433 46
Width: 5
GlyphClass: 2
Flags: HMW
HStem: 750 59 842 102<-109 -91>
VStem: -266 56 -164 129<892 892> 7 62
AnchorPoint: "Anchor-0" -113 740 mark 0
LayerCount: 2
Fore
SplineSet
-101 842 m 0
 -132.59823235 842 -164 861.161642941 -164 892 c 0
 -164 923.388132538 -133.78029438 944 -101 944 c 0
 -64.6417010775 944 -35 926.785303386 -35 892 c 0
 -35 882 -37 873 -42 866 c 1
 -50 858 l 2
 -50 857 -52 856 -53 856 c 0
 -65 847 -81 842 -101 842 c 0
-111 809 m 2
 -107 809 l 1
 -31.1220894085 813.215439477 -17.5742951914 838.728766422 7 903 c 1
 18 909 28 912 36 912 c 0
 50 912 61 904 69 889 c 1
 59 818 13 772 -69 751 c 0
 -77 751 -85 750 -92 750 c 0
 -187.286390564 750 -266 799.248152074 -266 889 c 1
 -257 902 -249 909 -241 909 c 0
 -234 909 -222 904 -209 894 c 1
 -202.123841573 851.024009832 -159.782744887 809 -111 809 c 2
EndSplineSet
Validated: 1
Substitution2: "Single Substitution Lookup 27" u0981.salt
EndChar

StartChar: u0982
Encoding: 51 2434 47
Width: 470
GlyphClass: 2
Flags: HMW
HStem: 428 57<192 218> 615 56
VStem: 101 62<518 537> 278 60<564 584>
LayerCount: 2
Fore
SplineSet
463 60 m 0
 463 45.5328883542 443.566422972 36 429 36 c 0
 420 36 411 39 404 44 c 1
 116 337 l 1
 113 344 110 350 110 356 c 0
 110 373 119 381 137 381 c 0
 145 381 153 378 161 373 c 1
 457 74 l 2
 461 69 463 64 463 60 c 0
230 615 m 0
 191.398907454 612.337855686 163 581.917966904 163 535 c 0
 163 501 178 485 207 485 c 0
 240.462243655 485 278 519.743068437 278 569 c 0
 278 600 263 615 234 615 c 0
 233 615 231 615 230 615 c 0
204 428 m 0
 145.574540269 428 101 473.378296564 101 532 c 0
 101 542 102 552 104 562 c 0
 123 635 165 671 230 671 c 0
 302 671 338 636 338 566 c 0
 338 517.34144443 324.446640099 489.850931506 289 462 c 0
 261 440 233 428 204 428 c 0
EndSplineSet
Validated: 1
EndChar

StartChar: u0983
Encoding: 52 2435 48
Width: 437
GlyphClass: 2
Flags: W
HStem: 33 63<184.775 278.837> 387 61<171.239 269.233> 603 62<196.364 294.494>
VStem: 101 59<459.437 565.563> 304 63<484.813 592.751> 316 62<134.702 240.614>
LayerCount: 2
Fore
SplineSet
255 250 m 4xf4
 212.279927047 247.54518917 178.276197129 204.858779224 174 162 c 4
 170.181276835 123.726317078 191.398636711 96 228 96 c 4
 274.289870341 96 316 146.834214873 316 195 c 4
 316 231 295.813907479 252.345277411 255 250 c 4xf4
101 503 m 0
 101 582.504929076 157.034608026 662.485897213 240 665 c 1
 243 665 l 2
 312.562199465 665 367 616.23142427 367 547 c 0xf8
 367 536 365 524 361 513 c 0
 356 486 345 461 326 439 c 0
 296 404 257 387 211 387 c 0
 146.44160393 387 101 436.916067923 101 503 c 0
262 314 m 4
 332.633154677 314 378 261.391984814 378 190 c 4xf4
 378 184 378 179 377 173 c 4
 364 106 324 59 257 35 c 4
 249 34 240 33 233 33 c 4
 157.666353102 33 114.156031506 83.3352735125 113 156 c 4
 112.331923277 197.99332985 130 235 158 267 c 4
 186 299 221 314 262 314 c 4
244 603 m 0
 198.806825579 602.488358734 160 552.159030625 160 505 c 0
 160 470.549027004 184.04699938 448 216 448 c 0
 244 448 268 462 286 490 c 0
 298 509 304 528 304 547 c 0xf8
 304 583 283.986594062 603.452696494 244 603 c 0
EndSplineSet
Validated: 33
EndChar

StartChar: u0985
Encoding: 53 2437 49
Width: 833
GlyphClass: 2
Flags: W
HStem: 94 60<326.637 491.224> 610 63<-11 308 394 706 768 829>
VStem: 29 56<454.867 552.798> 303 59<380.599 491.606> 564 60<251.382 433.543> 706 62<140 610>
LayerCount: 2
Fore
SplineSet
394 610 m 1
 439 566 l 1
 509.102401601 547.551999579 552.34985165 529.268016041 580 479 c 0
 605.323608917 432.961636548 624 387 624 336 c 0
 624 309 618 283 609 260 c 1
 706 140 l 1
 706 610 l 1
 394 610 l 1
768 610 m 1
 768 71 l 1
 764 50 752 39 732 39 c 0
 724 39 716 43 710 50 c 2
 583 198 l 1
 544 129 489 94 417 94 c 0
 384 94 350 101 311 116 c 0
 237 145 174 200 123 283 c 0
 78 356 46 438 29 530 c 1
 36 546 46 554 59 554 c 0
 67 554 76 550 85 541 c 1
 101 454 131 377 174 311 c 0
 226 233 290 183 366 161 c 0
 381 156 397 154 414 154 c 0
 452 154 481 164 502 185 c 0
 543 224 564 277 564 342 c 0
 564 421 535 474 474 503 c 1
 459 505 446 506 435 506 c 0
 387 506 362 484 362 439 c 0
 362 424 365 406 371 385 c 1
 364 368 353 360 339 360 c 0
 330 360 321 365 312 374 c 1
 306 400 303 422 303 441 c 0
 303 489 326 525 372 550 c 1
 308 610 l 1
 -11 610 l 1
 -11 673 l 1
 829 673 l 1
 829 610 l 1
 768 610 l 1
EndSplineSet
Validated: 1
EndChar

StartChar: u0986
Encoding: 54 2438 50
Width: 1007
GlyphClass: 2
Flags: W
HStem: 94 60<327.637 492.224> 610 63<-10 309 395 707 769 885 941 1010>
VStem: 30 56<454.867 552.798> 304 59<380.599 491.606> 565 60<251.382 433.543> 707 62<140 610> 885 56<47.2966 610>
LayerCount: 2
Fore
SplineSet
395 610 m 1
 440 566 l 1
 510.102401601 547.551999579 553.34985165 529.268016041 581 479 c 0
 606.323608917 432.961636548 625 387 625 336 c 0
 625 309 619 283 610 260 c 1
 707 140 l 1
 707 610 l 1
 395 610 l 1
769 610 m 1
 769 71 l 1
 765 50 753 39 733 39 c 0
 725 39 717 43 711 50 c 2
 584 198 l 1
 545 129 490 94 418 94 c 0
 385 94 351 101 312 116 c 0
 238 145 175 200 124 283 c 0
 79 356 47 438 30 530 c 1
 37 546 47 554 60 554 c 0
 68 554 77 550 86 541 c 1
 102 454 132 377 175 311 c 0
 227 233 291 183 367 161 c 0
 382 156 398 154 415 154 c 0
 453 154 482 164 503 185 c 0
 544 224 565 277 565 342 c 0
 565 421 536 474 475 503 c 1
 460 505 447 506 436 506 c 0
 388 506 363 484 363 439 c 0
 363 424 366 406 372 385 c 1
 365 368 354 360 340 360 c 0
 331 360 321 365 312 374 c 1
 306 400 304 422 304 441 c 0
 304 489 327 525 373 550 c 1
 309 610 l 1
 -10 610 l 1
 -10 673 l 1
 1010 673 l 1
 1010 610 l 1
 941 610 l 1
 941 62 l 2
 941 52 932 47 912 47 c 0
 894 47 885 53 885 64 c 2
 885 610 l 1
 769 610 l 1
EndSplineSet
Validated: 1
EndChar

StartChar: u0987
Encoding: 55 2439 51
Width: 433
GlyphClass: 2
Flags: W
HStem: 536 58<200.172 307.665> 610 63<-7 107 183 335 399 454> 783 64<-28.5279 275.574>
VStem: -146 58<889.619 978.319> 57 56<402.521 489.494> 352 57<354.894 491.114>
LayerCount: 2
Fore
SplineSet
-88 966 m 0
 -85.9524714431 865.67110071 -27.468593382 848.955589358 84 847 c 1
 165 847 l 2
 244.091530571 847 299.828713837 835.695978749 345 796 c 0
 376 769 394 733 398 685 c 2
 399 672 l 1
 418 672 437 673 454 673 c 1
 454 610 l 1
 183 610 l 2
 180.11759647 610 210.737477115 599.01669718 216 592 c 1
 223 594 230 594 238 594 c 0
 279 594 315 582 347 558 c 0
 388 526 409 478 409 416 c 0
 409 405 408 393 407 382 c 0
 382 286 296 229 149 211 c 1
 500 -6 l 1
 501 -10 502 -14 502 -18 c 0
 502 -36 492 -45 473 -44 c 1
 470 -44 l 1
 28 227 l 1
 22 235 19 243 19 252 c 0
 19 271 27 280 44 280 c 0
 47 280 51 279 55 278 c 0
 82 274 109 272 133 272 c 0
 244 272 316 310 349 387 c 1
 351 397 352 407 352 418 c 0
 352 488.185766585 305.944603349 536 235 536 c 0
 158 536 117 496 113 416 c 1
 107 407 98 402 85 402 c 0
 71 402 62 409 57 423 c 1
 57 490.166492212 100.697149494 554.238165873 151 574 c 1
 107 610 l 1
 -7 610 l 1
 -7 673 l 1
 335 671 l 1
 331.907533743 746.765423307 267.573962195 780.080867927 180 783 c 1
 103 783 l 1
 10 794 -50 807 -75 820 c 0
 -116 842 -140 888 -146 959 c 0
 -147.755055324 974.79549792 -131.257372661 979 -113 979 c 0
 -96 979 -88 975 -88 966 c 0
EndSplineSet
Validated: 33
EndChar

StartChar: u0988
Encoding: 56 2440 52
Width: 579
GlyphClass: 2
Flags: W
HStem: 170 57<65.5846 191.85> 497 56<148.723 231.008> 610 63<-15 38 107 488.999 540 594> 752 56<124.572 469.586>
VStem: 22 54<854.049 940.006> 30 54<378.611 456.812> 268 51<377.967 457.629> 426 54<3.59865 308.951> 489 51<673.328 732.094>
LayerCount: 2
Fore
SplineSet
176 497 m 0xfb80
 122.540168605 497 84 445.326236779 84 390 c 1
 78 382 70 378 59 378 c 0
 46 378 37 383 30 392 c 1xf780
 26.7832800613 456.334398773 59.1091954706 503.181879689 103 529 c 1
 38 610 l 1
 -15 610 l 1
 -15 673 l 1
 485 673 l 1
 487 680 489 687 489 693 c 0
 489 728 458 747 396 751 c 0
 384 752 346 752 281 752 c 0
 236.323264563 752 200.648071413 754.070385717 166 761 c 0
 117 772 82 786 65 803 c 0
 43 825 28 864 22 921 c 1
 25 934 33 941 46 941 c 0
 57 941 68 936 76 927 c 1
 82.1407852011 824.653579982 138.719177507 808 258 808 c 2
 295 808 l 2
 391 808 457 797 493 776 c 0
 526 756 542 724 540 678 c 0
 540 676 540 675 540 673 c 1
 594 673 l 1
 594 610 l 1
 107 610 l 1
 158 551 l 1
 166 553 174 553 181 553 c 0
 226 553 261 534 288 497 c 0
 312 464 323 427 320 385 c 0
 320 382 319 380 319 377 c 1
 363 416 390 440 401 449 c 0
 456 492 498 514 527 515 c 0
 546.974911102 515 559 510.290029572 559 492 c 0
 559 488 558 484 557 480 c 0
 506 349 480 240 480 152 c 0
 480 84 494 16 519 -50 c 1
 516 -67 506 -75 489 -75 c 0
 481 -75 472 -73 465 -68 c 1
 439 5 426 79 426 155 c 0
 426 246 444 341 482 439 c 1
 448 422 408 390 361 341 c 0
 297 272 259 233 250 225 c 0
 207 188 167 170 130 170 c 0
 103 170 75 179 47 197 c 0
 44 201 42 206 42 212 c 0
 42 230 53 240 74 244 c 1
 95 233 114 227 131 227 c 0
 165 227 204.759912862 248.044092813 241 297 c 0
 261.759912862 325.044092813 268 358 268 390 c 0
 268 443.203640305 230.78947393 497 176 497 c 0xfb80
EndSplineSet
Validated: 33
EndChar

StartChar: u0989
Encoding: 57 2441 53
Width: 734
GlyphClass: 2
Flags: W
HStem: 35 59<337.331 506.489> 510 20G<52.0859 65> 610 63<-6 290 352 539 603 734> 783 63<175.734 482.424>
VStem: 30 55<455.464 528.872> 58 58<891.785 978.397> 290 62<335.076 610> 539 64<673 734.358> 601 58<191.974 376.799>
LayerCount: 2
Fore
SplineSet
30 502 m 1xfa80
 30 518.990316027 44.1717351241 530 60 530 c 0
 70 530 78 526 85 519 c 1
 120 408 154.955758247 330.539705738 180 281 c 0
 222.124778565 197.673495049 313.480707165 94 427 94 c 0
 482 94 527 119 564 168 c 0
 589 201 601 240 601 285 c 0xfa80
 601 335 586 377 556 412 c 1
 511 361 482 330 469 319 c 0
 432 288 394.75740554 268.862172698 358 272 c 0
 312.75740554 275.862172698 290 316 290 382 c 2
 290 610 l 1
 -6 610 l 1
 -6 673 l 1
 539 673 l 1
 537 729 503 764 436 777 c 0
 420 780 403 782 384 783 c 1
 307 783 l 1
 213 794 154 807 129 820 c 0
 88 842 64 888 58 959 c 0
 56.1678163811 975.48965257 72.2265627002 979 91 979 c 0
 108 979 116 975 116 966 c 0
 118.037147632 866.179766056 177.158814025 847.94458221 288 846 c 1
 369 846 l 2
 449.792671405 846 503.187737715 836.259260796 549 796 c 0
 584 766 602 725 603 673 c 1xf7
 734 673 l 1
 734 610 l 1
 352 610 l 1
 352 353 l 1
 357 340 365 333 376 333 c 0
 394 333 418 347 447 376 c 0
 473 402 498 433 523 470 c 0
 527 477 534 480 543 480 c 0
 557 480 570 474 581 463 c 0
 633 414 659 358 659 296 c 0
 659 264 655.740887319 227.467700189 639 190 c 0
 592.740887319 86.4677001895 521 36 435 35 c 0
 434 35 434 35 433 35 c 0
 373.121175247 35 312.468602198 59.3542652011 271 87 c 0
 227 116 191 152 162 195 c 0
 111 271 67 373 30 502 c 1xfa80
EndSplineSet
Validated: 33
EndChar

StartChar: u098a
Encoding: 58 2442 54
Width: 777
GlyphClass: 2
Flags: W
HStem: 35 58<389.621 561.279> 266 60<402.619 473.415> 520 20G<151.5 162> 610 63<-10 340 402 563.999 628 787> 755 56<214.164 538.888>
VStem: 30 55<456.542 559.282> 98 56<860.528 945.273> 132 55<412.247 538.688> 340 62<326.645 610> 564 66<673 730.847> 650 58<197.651 374.896>
LayerCount: 2
Fore
SplineSet
154 936 m 1xfee0
 151.888666799 824.099340343 243.216105919 811 374 811 c 1
 411 812 l 1
 510.767820891 812 564.856314967 805.064503929 605 756 c 0
 622 737 630 715 630 690 c 0
 630 685 629 679 628 673 c 1
 787 673 l 1
 787 610 l 1
 402 610 l 1
 402 347 l 1
 408 333 416 326 427 326 c 0
 460 326 509 373 575 465 c 0
 580 474 589 479 601 479 c 0
 609 479 616 477 622 472 c 0
 681 423 710 359 708 279 c 1
 708 274 l 1
 706 213 685 160 645 112 c 0
 602 61 548 35 483 35 c 0
 426 35 366 52 303 86 c 0
 240 120 190 163 154 214 c 0xfee0
 91 304 50 411 30 536 c 1
 32 552 41 560 56 560 c 0
 67 560 77 555 85 545 c 1
 101 470 116 414 130 377 c 0
 148 329 174 284 207 242 c 1
 161 377 l 2
 146 422 137 469 132 519 c 1
 138 533 146 540 157 540 c 0
 167 540 178 534 187 522 c 1xfde0
 200 426 226 336 265 252 c 0
 282 216 304 184 332 157 c 0
 375 114 424 93 479 93 c 0
 562 93 617 142 644 240 c 0
 648 255 650 270 650 287 c 0
 650 337 635 377 605 407 c 1
 560 359 533 332 524 324 c 0
 480 285 443 266 412 266 c 0
 379 266 355 289 340 335 c 1
 340 610 l 1
 -10 610 l 1
 -10 673 l 1
 562 673 l 1
 563 679 564 685 564 690 c 0
 564 753.197795012 468.711980188 756.503854185 386 755 c 1
 376 755 l 1
 321 754 276 757 241 764 c 0
 223 768 207 772 194 778 c 0
 132 803 100 854 98 930 c 1
 108 941 119 947 130 947 c 0
 139 947 147 943 154 936 c 1xfee0
EndSplineSet
Validated: 33
EndChar

StartChar: u098b
Encoding: 59 2443 55
Width: 722
GlyphClass: 2
Flags: W
HStem: 505 57<116.094 233.186>
VStem: 420 62<123 272 362 491 562 686.257> 590 62<240 687.374>
LayerCount: 2
Fore
SplineSet
420 491 m 1
 179 342 l 1
 420 123 l 1
 420 491 l 1
622 688 m 0
 643 688 652 682 652 671 c 2
 652 162 l 2
 652 145 640 137 616 137 c 0
 604 137 595 140 590 146 c 2
 482 272 l 1
 482 57 l 2
 482 39 469 31 442 31 c 0
 433 31 426 33 420 38 c 2
 109 328 l 2
 104 333 103 338 103 344 c 0
 103 354 108 364 117 373 c 1
 339 513 l 1
 294 562 l 1
 261 524 223 505 178 505 c 0
 120 505 75 531 40 583 c 0
 39 586 39 589 39 592 c 0
 39 611 51 620 75 620 c 0
 80 620 83 620 87 619 c 1
 109 581 139 562 176 562 c 0
 213 562 241 581 258 619 c 1
 269 630 283 635 299 632 c 0
 302 632 306 631 309 630 c 1
 392 542 l 1
 420 562 l 1
 420 669 l 2
 420 681 432 687 454 687 c 0
 473 687 482 682 482 671 c 2
 482 362 l 1
 590 240 l 1
 590 671 l 2
 590 682 601 688 622 688 c 0
EndSplineSet
Validated: 33
EndChar

StartChar: u098c
Encoding: 60 2444 56
Width: 641
GlyphClass: 2
Flags: W
HStem: 282 58<156.428 277.767>
VStem: 37 58<614.901 677.122> 64 59<91.7183 247.419> 312 59<102.734 248.541> 512 58<188.581 345.709>
LayerCount: 2
Fore
SplineSet
358 102 m 1xb8
 436.687548321 121.67188708 512 175.761590045 512 265 c 0
 512 278 510 291 506 304 c 0
 494 356 461 399 404 434 c 0
 373 452 321 474 247 500 c 0
 168 528 119 547 101 557 c 0
 58 581 37 613 37 652 c 0
 38 670 45 678 62 678 c 0
 82 678 94.994184561 671.05290569 95 655 c 0xd8
 95.0100438775 627.274936122 120.204280036 608.897859982 144 597 c 0
 157 590 198 575 268 551 c 0
 357 520 424 488 470 453 c 0
 537 402 570 341 570 270 c 0
 570 248 569.126057683 224.337963719 561 201 c 0
 530.163291941 112.437255071 424.805351975 43.3559519982 312 35 c 1
 289 39 276 46 276 57 c 0
 276 62 279 68 285 76 c 1
 291 93 297 110 303 127 c 0
 309 144 312 160 312 174 c 0
 312 192 310.58727973 210.719215957 301 231 c 0
 284.58727973 265.719215957 253 282 214 282 c 0
 159.342395169 282 123 237.377183776 123 184 c 0
 123 161 129 137 140 112 c 1
 142.93472717 91.4569098109 127.28333563 80 109 80 c 0
 97 80 90 84 86 91 c 0
 71 121 64 152 64 184 c 0
 64 275.571916921 132.206910861 340 216 340 c 0
 310.553261314 340 371 264.785334936 371 172 c 0
 371 151 366 127 358 102 c 1xb8
EndSplineSet
Validated: 33
EndChar

StartChar: u098f
Encoding: 61 2447 57
Width: 677
GlyphClass: 2
Flags: W
HStem: 106 58<141.158 383.176> 125 59<210.686 476.783> 608 59<432.363 537.13>
VStem: 32 57<219.972 383.906> 268 62<331.507 518.3> 547 62<123 599.695>
LayerCount: 2
Fore
SplineSet
390 125 m 0x7c
 356.877403207 125 244.183157221 106 210 106 c 0
 192 106 175.419201034 105.965535922 161 111 c 0
 73.8718021982 141.420810486 32 196.995199579 32 312 c 0
 32 330 33 350 35 373 c 1
 44 381 53 385 62 385 c 0
 73 385 83 379 92 369 c 1
 90 334 89 313 89 306 c 0
 89 249 109 208 146 182 c 0
 163 170 184 164 209 164 c 0xbc
 224 164 251 167 289 174 c 0
 327 181 357 184 379 184 c 0
 440 184 496 164 547 123 c 1
 547 536 l 2
 547 584 532 608 499 608 c 0
 482 608 458 600 429 585 c 0
 363 551 330 502 330 438 c 0
 330 409 336 376 349 337 c 1
 347 320 336 311 316 311 c 0
 305 311 298 314 291 321 c 1
 276 355 268 390 268 426 c 0
 268 480 284 528 317 572 c 0
 350 615 395 644 451 659 c 0
 466 664 480 667 493 667 c 0
 521 667 548 656 574 633 c 0
 598 612 609 581 609 540 c 2
 609 60 l 2
 609 44.8759097494 579.285343942 36 563 36 c 0
 555 36 550 38 547 42 c 0
 505 97 453 125 390 125 c 0x7c
EndSplineSet
Validated: 33
EndChar

StartChar: u0990
Encoding: 62 2448 58
Width: 774
GlyphClass: 2
Flags: W
HStem: 106 58<128.161 370.683> 125 59<198.678 464.533> 289 70<597 638.938> 608 59<419.379 525.046>
VStem: 19 58<219.972 383.621> 255 62<331.507 518.3> 410 70<754.819 824.196> 535 62<123 296.699 359 599.695> 711 62<443.098 604.362>
LayerCount: 2
Fore
SplineSet
377 125 m 0x7f80
 344.187053929 125 231.86535546 106 198 106 c 0
 180 106 162.419201034 105.965535922 148 111 c 0
 60.8718021982 141.420810486 19 196.995199579 19 312 c 0
 19 330 20 350 22 373 c 1
 31 381 41 385 50 385 c 0
 61 385 71 379 80 369 c 1
 78 334 77 313 77 306 c 0
 77 249 96 208 133 182 c 0
 150 170 172 164 197 164 c 0xbf80
 212 164 238 167 276 174 c 0
 314 181 345 184 367 184 c 0
 428 184 484 164 535 123 c 1
 535 536 l 2
 535 584 519 608 486 608 c 0
 469 608 445 600 416 585 c 0
 350 551 317 502 317 438 c 0
 317 409 323 376 336 337 c 1
 334 320 324 311 304 311 c 0
 293 311 285 314 278 321 c 1
 263 355 255 390 255 426 c 0
 255 480 272 528 305 572 c 0
 338 615 382 644 438 659 c 0
 453 664 467 667 480 667 c 0
 508 667 535 656 561 633 c 0
 585 612 597 581 597 540 c 2
 597 359 l 1
 630 368 656 389 677 421 c 0
 700 456 711 492 711 530 c 0
 711 599 673 640 597 655 c 0
 472 680 410 724 410 786 c 0
 410 829 434 864 483 890 c 1
 504.25067811 892.656334764 524 878.922995209 524 860 c 0
 524 854 522 848 518 843 c 0
 493 817 480 796 480 781 c 0
 480 763 506 747 557 733 c 0
 628 714 676 697 702 680 c 0
 750 650 773 603 773 540 c 0
 773 486 757 434 723 385 c 0
 691 337 650 305 597 289 c 1
 597 60 l 2
 597 45.6343223397 566.845866841 36 551 36 c 0
 543 36 538 38 535 42 c 0
 493 97 440 125 377 125 c 0x7f80
EndSplineSet
Validated: 33
EndChar

StartChar: u0993
Encoding: 63 2451 59
Width: 751
GlyphClass: 2
Flags: W
HStem: 50 58<411.24 600.502> 607 64<432.171 561.059>
VStem: 40 57<534.74 637.929> 324 63<416.102 561.083> 622 60<425.025 549.718> 652 60<154.901 296.398>
LayerCount: 2
Fore
SplineSet
324 487 m 0xf8
 324 587.293613765 395.661318633 666.510881495 488 671 c 0
 589.324483582 675.925970434 682 592.334423333 682 492 c 0xf8
 682 451 668 413 640 377 c 1
 689 340 712 291 712 230 c 0
 712 119.195207374 624.571054677 50 512 50 c 0
 445 50 379 72 315 116 c 0
 176 208 81.7282614068 372.692142055 40 610 c 0
 36.7282614068 628.606317425 45.6296226865 640 64 640 c 0
 75 640 87 634 97 622 c 1
 116 535 137 463 161 408 c 0
 192 334 232 272 282 222 c 0
 357 146 434 108 511 108 c 0
 590.522513594 108 652 145.149945663 652 223 c 0xf4
 652 277.062621796 621.357486809 321.734530091 583 340 c 0
 564 349 556 359 556 370 c 0
 556 378 559.250962748 387.938222061 570 396 c 0
 603.250962748 420.938222061 622 450 622 485 c 0
 622 553.972271083 557.26935234 607 494 607 c 0
 430.345113928 607 387 551.929075996 387 488 c 0
 387 466 391 445 401 425 c 1
 397 406 384 397 362 397 c 0
 354 397 346 400 340 405 c 1
 329 432 324 460 324 487 c 0xf8
EndSplineSet
Validated: 33
EndChar

StartChar: u0994
Encoding: 64 2452 60
Width: 813
GlyphClass: 2
Flags: W
HStem: 50 58<396.24 585.502> 607 64<416.775 546.059>
VStem: 24 58<534.741 637.889> 309 63<416.102 561.32> 437 70<807.819 877.196> 606 61<424.318 551.112> 637 60<154.901 296.465> 738 62<496.665 657.362>
LayerCount: 2
Fore
SplineSet
473 671 m 0xfd
 574.324483582 675.925970434 667 592.334423333 667 492 c 0xfd
 667 468 662 444 652 422 c 1
 697.204172697 448.170836824 738 519.027816444 738 583 c 0
 738 652 700 693 624 708 c 0
 499 733 437 777 437 839 c 0
 437 882 461 917 510 943 c 1
 531.907954061 945.738494258 551 932.159858087 551 913 c 0
 551 907 549 901 545 896 c 0
 520 870 507 849 507 834 c 0
 507 816 533 800 584 786 c 0
 655 767 703 750 729 733 c 0
 777 703 800 656 800 593 c 0
 800 539 784 487 750 438 c 0
 723 397 690 368 653 351 c 1
 683 318 697 278 697 230 c 0
 697 119.195207374 609.571054677 50 497 50 c 0
 430 50 364 72 300 116 c 0
 161 208 65.7748743085 372.696528149 24 610 c 0
 20.7748743085 628.320426726 30.9170801227 640 49 640 c 0
 60 640 72 634 82 622 c 1
 101 535 122 463 146 408 c 0
 177 334 217 272 267 222 c 0
 342 146 419 108 496 108 c 0
 575.522513594 108 637 145.149945663 637 223 c 0xfb
 637 277.062621796 606.357486809 321.734530091 568 340 c 0
 549 349 541 359 541 370 c 0
 541 378 544.250962748 387.938222061 555 396 c 0
 588.250962748 420.938222061 606 450 606 485 c 0
 606 554.638582806 542.478618735 607 479 607 c 0
 414.442863156 607 372 553.050868544 372 488 c 0
 372 466 376 445 386 425 c 1
 382 406 369 397 347 397 c 0
 339 397 331 400 325 405 c 1
 314 432 309 460 309 487 c 0
 309 587.293613765 380.661318633 666.510881495 473 671 c 0xfd
EndSplineSet
Validated: 33
EndChar

StartChar: u0995
Encoding: 65 2453 61
Width: 709
GlyphClass: 2
Flags: W
HStem: 231 56<484.639 548.412> 511 61<419 510.875> 610 63<-7 357 419 711>
VStem: 357 62<121 493 569.44 610> 575 54<312.621 452.956>
AnchorPoint: "Anchor-1" 400 20 basechar 0
AnchorPoint: "Anchor-0" 340 680 basechar 0
LayerCount: 2
Fore
SplineSet
357 493 m 1
 112 342 l 1
 357 121 l 1
 357 493 l 1
575 384 m 0
 575 467.475747877 498.93023737 513.865291976 423 511 c 1
 419 511 l 1
 419 55 l 2
 419 42 412 35 398 35 c 0
 383 35 369 41 357 51 c 2
 44 328 l 1
 35 333 31 340 31 348 c 0
 31 358 37 366 48 373 c 2
 357 560 l 1
 357 610 l 1
 -7 610 l 1
 -7 673 l 1
 711 673 l 1
 711 610 l 1
 419 610 l 1
 419 572 l 1
 559 556 629 493 629 382 c 0
 629 306.124914567 589.109651451 228.939724244 517 231 c 0
 494.729887892 229.515325859 484 237.128004762 484 258 c 0
 484 273 491 282 504 287 c 1
 526.476917402 283.542012707 543.343815188 298.081341263 554 313 c 0
 568 333 575 357 575 384 c 0
EndSplineSet
Validated: 33
EndChar

StartChar: u0996
Encoding: 66 2454 62
Width: 635
GlyphClass: 2
Flags: W
HStem: 473 58<80.8202 220.1> 610 63<554 632>
VStem: 319 57<430.65 569.354> 492 62<121 610>
AnchorPoint: "Anchor-1" 520 40 basechar 0
AnchorPoint: "Anchor-0" 547 660 basechar 0
LayerCount: 2
Fore
SplineSet
254 633 m 0
 254 651.914175369 259.629622686 663 278 663 c 0
 284 663 290 661 297 657 c 0
 352 622 378 568 376 496 c 1
 376 491 l 1
 373 404 325 343 232 308 c 1
 492 121 l 1
 492 617 l 2
 492 654 510 673 546 673 c 2
 632 673 l 1
 632 610 l 1
 554 610 l 1
 554 64 l 2
 554 49.044716582 530.8472184 39 515 39 c 0
 506 39 498 41 492 46 c 2
 152 297 l 1
 146 306 143 315 143 324 c 0
 143 341 150 349 163 349 c 0
 239.156358541 358.287360798 319 419.042258972 319 499 c 0
 319 524 312 548 298 572 c 1
 269 506 224 473 162 473 c 0
 126 473 86 485 43 508 c 1
 35 515 31 523 31 533 c 0
 31 552 39 562 57 562 c 0
 60 562 64 561 67 560 c 0
 101 540 132 531 159 531 c 0
 215 531 247 565 254 633 c 0
EndSplineSet
Validated: 33
EndChar

StartChar: u0997
Encoding: 67 2455 63
Width: 615
GlyphClass: 2
Flags: W
HStem: 580 58<187.66 367.484> 610 63<546 624>
VStem: 252 58<250.022 380.8> 484 62<31.5165 467.912 545 610>
AnchorPoint: "Anchor-1" 514 36 basechar 0
AnchorPoint: "Anchor-0" 547 667 basechar 0
LayerCount: 2
Fore
SplineSet
252 316 m 0xb0
 252 375.393380884 203.62031561 428 144 428 c 0
 122 428 100 422 79 409 c 0
 70 403 61 401 53 401 c 0
 38 401 31 409 31 424 c 0
 31 428 31 432 33 437 c 0
 62.7076142093 547.908426381 120.087444933 602.190956926 231 633 c 0
 251 637 270 638 288 638 c 0xb0
 362 638 427 607 484 545 c 1
 484 673 l 1
 624 673 l 1
 624 610 l 1
 546 610 l 1x70
 546 53 l 2
 546 38 536 31 515 31 c 0
 494 31 484 38 484 53 c 2
 484 382 l 2
 484 501.654376617 373.536824239 580 276 580 c 0
 206 580 152 548 113 484 c 1
 226.939544718 495.393954472 310 420.282113186 310 316 c 0
 310 248 279 197 216 162 c 0
 212 161 208 160 204 160 c 0
 187.963834353 160 171 171.556355506 171 187 c 0
 171 195 175 202 182 209 c 0
 229 236 252 271 252 316 c 0xb0
EndSplineSet
Validated: 33
EndChar

StartChar: u0998
Encoding: 68 2456 64
Width: 537
GlyphClass: 2
Flags: W
HStem: 610 63<-9 47 101.016 406 468 546>
VStem: 30 56<498.85 594.423> 406 62<121 610>
AnchorPoint: "Anchor-1" 435 34 basechar 0
AnchorPoint: "Anchor-0" 427 667 basechar 0
LayerCount: 2
Fore
SplineSet
209 484 m 1
 228 484 238 474 238 455 c 0
 238 448 235 441 230 435 c 2
 128 315 l 1
 406 121 l 1
 406 610 l 1
 129 610 l 1
 100 594 86 573 86 548 c 0
 86 508.206894052 125.159077292 470.351477699 166 477 c 2
 209 484 l 1
139 420 m 1
 81.014507468 429.352498795 30 477.298177632 30 543 c 0
 30 565 36 588 47 610 c 1
 -9 610 l 1
 -9 673 l 1
 546 673 l 1
 546 610 l 1
 468 610 l 1
 468 62 l 2
 468 47 455 39 431 39 c 0
 421 39 413 41 406 46 c 2
 66 287 l 1
 57 291 52 298 52 307 c 0
 52 314 55 321 61 328 c 2
 139 420 l 1
EndSplineSet
Validated: 33
EndChar

StartChar: u0999
Encoding: 69 2457 65
Width: 614
GlyphClass: 2
Flags: HMW
HStem: 38 56 436 59 527 10G 610 61
VStem: 233 56 463 56 554 57
AnchorPoint: "Anchor-1" 405 40 basechar 0 {} {11-11 0}
AnchorPoint: "Anchor-0" 407 673 basechar 0
LayerCount: 2
Fore
SplineSet
463 565 m 0
 463 592.212996247 432.300666333 610 407 610 c 0
 375.946241977 610 356.966769872 591.20846234 340 570 c 0
 324 550 313 528 307 504 c 1
 336 498 357 495 372 495 c 0
 414 495 444 515 462 556 c 0
 463 559 463 562 463 565 c 0
251 522 m 1
 267.276876142 581.681879189 338.407758074 664.749137878 403 671 c 0
 407 671 411 672 415 672 c 0
 459.243555849 672 490.248328146 641.12750778 511 610 c 1
 516 597 519 583 519 568 c 0
 519 539 508 511 487 487 c 0
 457 453 418 436 369 436 c 0
 342 436 317 441 295 450 c 0
 291 450 289 435 289 403 c 0
 289 379 297 358 313 339 c 1
 457 409 l 1
 465 416 476 420 490 420 c 0
 496 420 502 419 508 418 c 1
 577 368 611 310 611 244 c 0
 611 189 589 141 545 100 c 0
 501 59 450 38 393 38 c 0
 330 38 270 62 212 110 c 0
 94.4795127733 206.366799526 65.058869156 329.862509361 30 511 c 1
 32 528 41 537 56 537 c 0
 67 537 77 531 84 519 c 1
 103 415 127 335 154 278 c 0
 193.499031136 197.356144764 284.51749131 94 391 94 c 0
 424 94 456 105 486 126 c 0
 532 158 554 197 554 243 c 0
 554 288 532 327 488 362 c 1
 308 265 l 1
 258 304 233 347 233 394 c 0
 233 425 235 448 240 465 c 0
 239 467 238 468 237 468 c 0
 154 506 97 561 67 633 c 0
 61.0676392711 653.763262551 76.4853839423 665 94 665 c 0
 101 665 108 663 114 659 c 1
 153 593 198 547 251 522 c 1
EndSplineSet
Validated: 33
EndChar

StartChar: u099a
Encoding: 70 2458 66
Width: 468
GlyphClass: 2
Flags: W
HStem: 33 62<132.319 213.364> 610 63<-10 65 127 481>
VStem: 65 62<99.5277 475 537.502 610> 339 57<248.518 381.973>
AnchorPoint: "Anchor-1" 157 31 basechar 0
AnchorPoint: "Anchor-0" 93 673 basechar 0
LayerCount: 2
Fore
SplineSet
127 475 m 1
 127 145 l 2
 127 112 140 95 163 95 c 0
 173 95 184 99 199 107 c 0
 231 125 262 156 292 202 c 0
 324 252 339 297 339 336 c 0
 339 347 338 357 335 366 c 1
 326 381 293 398 236 415 c 0
 179 432 143 452 127 475 c 1
167 33 m 0
 113.716569201 33 65 80.0460814888 65 133 c 2
 65 610 l 1
 -10 610 l 1
 -10 673 l 1
 481 673 l 1
 481 610 l 1
 127 610 l 1
 127 570 l 1
 146 534 176.703728204 501.034626733 222 483 c 2
 330 440 l 1
 366 423 387 401 393 373 c 0
 396 362 396 350 396 337 c 0
 396 277 374 215 328 152 c 0
 283 89 234 50 181 35 c 0
 177 34 172 33 167 33 c 0
EndSplineSet
Validated: 1
EndChar

StartChar: u099b
Encoding: 71 2459 67
Width: 604
GlyphClass: 2
Flags: HMW
HStem: 97 56 252 49<172 194 172 196> 610 63<-6 85 -6 -6>
VStem: 94 62<320 327 327 524 601 604 604 604> 477 53<378 413 366 416>
AnchorPoint: "Anchor-1" 620 -32 basechar 0
AnchorPoint: "Anchor-0" 213 673 basechar 0
LayerCount: 2
Fore
SplineSet
156 524 m 1
 156 327 l 2
 156 310 164 301 180 301 c 0
 207 301 243 318 286 354 c 0
 358.383724147 414.600327193 377.369231474 471.904487077 267 488 c 0
 210 497 173 509 156 524 c 1
376 544 m 1
 467.483535728 538.510987856 530 486.329105759 530 392 c 0
 530 341 513 291 479 245 c 0
 434.92094985 185.052491796 404.259334944 158.139806919 328 136 c 1
 447.393316896 131.126803392 572.494746624 75.8995544744 650 21 c 1
 654 12 656 5 656 -1 c 0
 656 -18 645 -26 622 -25 c 1
 618 -25 l 1
 498.273054614 57.4349460035 369.766203442 86.4805210935 172 97 c 1
 162 105 157 116 157 129 c 0
 157 140 161 148 170 152 c 1
 222 158 258 164 276 168 c 0
 311 177 341.886348708 195.495892767 370 216 c 0
 414.359395203 248.352602889 477 323.842704827 477 394 c 0
 477 439 451 468 399 482 c 1
 400 474 401 466 401 458 c 0
 401 403 374 355 320 312 c 0
 271 273 220 252 170 252 c 0
 119 252 94 275 94 320 c 2
 94 604 l 1
 85 610 l 1
 -6 610 l 1
 -6 673 l 1
 616 673 l 1
 616 612 l 1
 156 612 l 1
 156 561.29343243 275.333102109 542 338 542 c 0
 354 542 367 542 376 544 c 1
EndSplineSet
Validated: 33
EndChar

StartChar: u099c
Encoding: 72 2460 68
Width: 830
GlyphClass: 2
Flags: W
HStem: -17 21G<746.5 759.5> 80 56<308.795 478.502> 610 63<-12 324 540 839>
VStem: 29 54<420.696 544.891> 251 58<386.291 515.594> 562 58<210.656 351.278> 666 57<97.6542 339.072>
AnchorPoint: "Anchor-1" 747 -12 basechar 0
AnchorPoint: "Anchor-0" 393 667 basechar 0
LayerCount: 2
Fore
SplineSet
431 613 m 1
 378.070543343 586.535271671 309 514.6738383 309 443 c 0
 309 411 323 387 350 371 c 0
 353 372 383 384 443 408 c 0
 480 423 513 430 540 430 c 1
 593 391 620 341 620 279 c 0
 620 207 586 152 519 115 c 0
 476 92 434 80 391 80 c 0
 291 80 206.262175854 144.231310528 120 259 c 0
 83.911715018 307.014151413 36.4502788002 435.021070406 29 515 c 0
 27.05441098 535.885946878 38 546 54 546 c 0
 64 546 73 540 83 529 c 1
 91 432 124 347 179 272 c 0
 246 182 319 136 396 136 c 0
 441 136 482 153 521 188 c 0
 548 213 562 244 562 280 c 0
 562 317 548 350 519 377 c 1
 506 373 476 361 429 341 c 0
 392 325 361 316 338 315 c 1
 280 340 251 382 251 441 c 0
 251 499 276 555 324 610 c 1
 -12 610 l 1
 -12 673 l 1
 839 673 l 1
 839 610 l 1
 540 610 l 1
 768 470 l 1
 779 466 784 459 784 447 c 0
 784 442 782 437 779 432 c 0
 741 344 723 272 723 217 c 0
 723 157 741 91 779 19 c 1
 779 -5 770 -17 749 -17 c 0
 744 -17 737 -16 731 -13 c 1
 687 73 666 149 666 216 c 0
 666 275 684 347 720 432 c 1
 431 613 l 1
EndSplineSet
Validated: 33
EndChar

StartChar: u099d
Encoding: 73 2461 69
Width: 692
GlyphClass: 2
Flags: W
HStem: 610 63<-6 347 619 705>
VStem: 347 62<123 272 351 491 560 610> 557 62<238 610>
AnchorPoint: "Anchor-1" 372 30 basechar 0
AnchorPoint: "Anchor-0" 353 667 basechar 0
LayerCount: 2
Fore
SplineSet
347 491 m 1
 107 342 l 1
 347 123 l 1
 347 491 l 1
557 610 m 2
 557 652 578 673 619 673 c 2
 705 673 l 1
 705 610 l 1
 619 610 l 1
 619 162 l 2
 619 149 608 142 587 142 c 0
 574 142 564 145 557 152 c 1
 409 272 l 1
 409 57 l 2
 409 39 397 31 373 31 c 0
 363 31 354 33 347 39 c 2
 35 326 l 2
 31 329 29 336 29 345 c 0
 29 358 34 368 43 373 c 2
 347 560 l 1
 347 610 l 1
 -6 610 l 1
 -6 673 l 1
 347 673 l 2
 388 673 409 652 409 610 c 2
 409 351 l 1
 557 238 l 1
 557 610 l 2
EndSplineSet
Validated: 1
EndChar

StartChar: u099e
Encoding: 74 2462 70
Width: 902
GlyphClass: 2
Flags: W
HStem: 106 58<125.562 368.176> 125 59<195.686 461.783> 133 60<739.956 825.638> 310 59<735.639 804> 493 62<720.852 824.887> 608 59<417.361 521.915>
VStem: 17 57<219.678 383.906> 252 62<331.507 516.01> 532 62<123 306 391 599.695> 833 67<396.283 483.651> 845 67<201.941 282.547>
AnchorPoint: "Anchor-1" 568 27 basechar 0
AnchorPoint: "Anchor-0" 480 667 basechar 0
LayerCount: 2
Fore
SplineSet
845 241 m 0x3fa0
 845 278.025181647 796.022539303 310 758 310 c 1
 742 319 734 329 734 340 c 0
 734 351 741 361 754 369 c 1
 792.103873704 373.970070483 833 402.771031712 833 444 c 0x3fc0
 833 477 811 493 768 493 c 0
 743 493 717 475 693 438 c 0
 687 429 670 399 643 348 c 1
 667.353954316 287.926912688 728.180704276 193 799 193 c 0
 804 193 809 194 815 195 c 0
 835 208 845 223 845 241 c 0x3fa0
776 555 m 0
 839.495317955 553.610748385 900 502.608851495 900 437 c 0x5fc0
 900 402 883 370 849 342 c 1
 891 315 912 278 912 233 c 0
 912 183 884 150 829 135 c 0
 821 134 812 133 803 133 c 0x3fa0
 737 133 679 170 630 243 c 0
 617 262 605 283 594 306 c 1
 594 60 l 2
 594 44.8759097494 564.285343942 36 548 36 c 0
 540 36 535 38 532 42 c 0
 490 97 438 125 375 125 c 0x5fa0
 341.864266538 125 229.183225574 106 195 106 c 0
 177 106 160.41826765 105.962266397 146 111 c 0
 57.8817369325 141.788465416 17 195.503876972 17 312 c 0
 17 330 18 350 20 373 c 1
 29 381 38 385 47 385 c 0
 58 385 68 379 77 369 c 1
 75 334 74 313 74 306 c 0
 74 249 93 208 130 182 c 0
 147 170 169 164 194 164 c 0x9fa0
 209 164 236 167 274 174 c 0
 312 181 342 184 364 184 c 0x5fa0
 425 184 481 164 532 123 c 1
 532 536 l 2
 532 584 516 608 483 608 c 0
 466 608 443 600 414 585 c 0
 348 551 314 502 314 438 c 0
 314 409 320 376 333 337 c 1
 331 320 321 311 301 311 c 0
 290 311 282 314 275 321 c 1
 260 355 252 390 252 426 c 0
 252 480 269 528 302 572 c 0
 335 615 380 644 436 659 c 0
 451 664 465 667 478 667 c 0
 506 667 533 656 559 633 c 0
 583 612 594 581 594 540 c 2
 594 391 l 1
 609 425 628 456 651 485 c 0
 687 529 728.046742944 556.049197672 776 555 c 0
EndSplineSet
Validated: 33
EndChar

StartChar: u099f
Encoding: 75 2463 71
Width: 482
GlyphClass: 2
Flags: W
HStem: 35 80<157.08 260.084> 610 63<-5 80 142 378.999 438 490> 756 57<2.43048 349.209>
VStem: -103 55<860.816 948.497> 80 62<129.858 609> 357 57<232.755 380.051> 379 59<673.327 730.607>
AnchorPoint: "Anchor-1" 182 37 basechar 0
AnchorPoint: "Anchor-0" 127 807 basechar 0
LayerCount: 2
Fore
SplineSet
142 176 m 2xfa
 142 142.259276101 169.80497334 115 204 115 c 0
 229 115 254 128 279 154 c 0
 331 210 357 264 357 315 c 0
 357 345 349 367 334 382 c 0
 333 383 320 392 294 412 c 0
 291 416 290 420 290 425 c 0
 290 442.845207315 306.947127466 457 326 457 c 1
 385 416 414 371 414 321 c 0xfc
 414 260 390 198 343 135 c 0
 294 69 242 35 187 35 c 0
 162 35 138 48 115 74 c 0
 92 100 80 128 80 160 c 2
 80 609 l 1
 57 610 32 610 8 610 c 2
 -5 610 l 1
 -5 673 l 1
 376 673 l 1
 378 680 379 686 379 692 c 0
 379 735 329 756 229 756 c 1
 143 753 l 1
 49 763 -11 775 -35 789 c 0
 -76 811 -100.459371417 858.015523471 -103 930 c 0
 -103.459371417 943.015523471 -93 949 -77 949 c 0
 -64 949 -55 945 -48 936 c 1
 -47 885 -29 850 7 832 c 0
 32 819 76 813 139 813 c 2
 198 813 l 1
 337.725064798 811.085958016 438 793.783609951 438 673 c 1
 490 673 l 1
 490 610 l 1
 142 610 l 1
 142 176 l 2xfa
EndSplineSet
Validated: 33
EndChar

StartChar: u09a0
Encoding: 76 2464 72
Width: 502
GlyphClass: 2
Flags: W
HStem: 39 55<147.272 280.785> 610 63<-6 192 310 516> 996 56<134.818 200.864>
VStem: 31 60<154.016 254.367> 70 58<870.55 987.493> 231 52<420.693 550.506> 385 54<209.02 411.022>
AnchorPoint: "Anchor-1" 212 39 basechar 0
AnchorPoint: "Anchor-0" 280 667 basechar 0
LayerCount: 2
Fore
SplineSet
282 551 m 1xf6
 283 540 283 528 283 517 c 0
 283 394 219 304 91 246 c 1
 91 198.759754542 102.146793466 162.709857351 125 137 c 0
 148 109 177 94 211 94 c 0
 246 94 280 109 312 140 c 0
 361 187 385 241 385 304 c 0
 385 381 350 464 282 551 c 1xf6
70 950 m 0xee
 70 1005 105 1040 176 1052 c 1
 194 1047 203 1035 203 1016 c 0
 203 1006 199 999 192 996 c 1
 149 996 128 980 128 949 c 0xee
 128 927 138.040084081 889.999838306 163 842 c 0
 203.040084081 764.999838306 238 709 260 673 c 1
 516 673 l 1
 516 610 l 1
 310 610 l 1
 396 506 439 402 439 297 c 0
 439 232 418 173 377 121 c 0
 333 66 279 39 215 39 c 0
 191 39 167 44 143 52 c 0
 116 61 91 85 67 125 c 0
 43 164 31 202 31 236 c 0xf6
 31 261 38 279 52 292 c 1
 114 317 159 349 188 385 c 0
 217 422 231 468 231 524 c 0
 231 550 228 579 222 610 c 1
 -6 610 l 1
 -6 673 l 1
 192 673 l 1
 185 688 167 721 135 774 c 0
 92 849 70 907 70 950 c 0xee
EndSplineSet
Validated: 1
EndChar

StartChar: u09a1
Encoding: 77 2465 73
Width: 716
GlyphClass: 2
Flags: W
HStem: 35 59<337.603 507.01> 510 20G<52.0859 65> 610 63<-6 290 352 734>
VStem: 30 55<455.464 528.872> 290 62<335.076 610> 601 58<191.974 376.799>
AnchorPoint: "Anchor-1" 439 31 basechar 0
AnchorPoint: "Anchor-0" 307 673 basechar 0
LayerCount: 2
Fore
SplineSet
30 502 m 1
 30 518.990316027 44.1717351241 530 60 530 c 0
 70 530 78 526 85 519 c 1
 120 408 154.955758247 330.539705738 180 281 c 0
 222.124778565 197.673495049 313.480707165 94 427 94 c 0
 482 94 527 119 564 168 c 0
 589 201 601 240 601 285 c 0
 601 335 586 377 556 412 c 1
 511 361 482 330 469 319 c 0
 432 288 394.75740554 268.862172698 358 272 c 0
 312.75740554 275.862172698 290 316 290 382 c 2
 290 610 l 1
 -6 610 l 1
 -6 673 l 1
 734 673 l 1
 734 610 l 1
 352 610 l 1
 352 353 l 1
 357 340 365 333 376 333 c 0
 394 333 418 347 447 376 c 0
 473 402 498 433 523 470 c 0
 527 477 534 480 543 480 c 0
 557 480 570 474 581 463 c 0
 633 414 659 358 659 296 c 0
 659 264 655.740887319 227.467700189 639 190 c 0
 592.740887319 86.4677001895 521 36 435 35 c 0
 374.297093441 35 312.990624151 59.0062505662 271 87 c 0
 227 116 191 152 162 195 c 0
 111 271 67 373 30 502 c 1
EndSplineSet
Validated: 33
EndChar

StartChar: u09a2
Encoding: 78 2466 74
Width: 486
GlyphClass: 2
Flags: W
HStem: 35 80<169.896 274.084> 610 63<-6 94 156 504>
VStem: 94 62<129.721 609> 371 57<232.755 380.051>
AnchorPoint: "Anchor-1" 202 36 basechar 0
AnchorPoint: "Anchor-0" 120 680 basechar 0
LayerCount: 2
Fore
SplineSet
156 176 m 2
 156 141.201820497 182.957759935 115 218 115 c 0
 243 115 268 128 293 154 c 0
 345 210 371 264 371 315 c 0
 371 345 363 367 348 382 c 0
 347 383 334 392 308 412 c 0
 305 416 304 420 304 425 c 0
 304 442.845207315 320.947127466 457 340 457 c 1
 399 416 428 371 428 321 c 0
 428 260 404 198 357 135 c 0
 308 69 256 35 201 35 c 0
 176 35 152 48 129 74 c 0
 106 100 94 128 94 160 c 2
 94 609 l 1
 -6 610 l 1
 -6 673 l 1
 504 673 l 1
 504 610 l 1
 156 610 l 1
 156 176 l 2
EndSplineSet
Validated: 1
EndChar

StartChar: u09a3
Encoding: 79 2467 75
Width: 513
GlyphClass: 2
Flags: W
HStem: 283 56<143.805 209.442> 591 55<157.347 309.033> 610 63<448 523>
VStem: 40 55<388.601 529.986> 386 62<44.8503 517.403 588 608.018>
AnchorPoint: "Anchor-1" 422 41 basechar 0
AnchorPoint: "Anchor-0" 453 660 basechar 0
LayerCount: 2
Fore
SplineSet
40 461 m 0xd8
 40 577.602586675 126.521354099 646 246 646 c 0xd8
 293 646 340 627 386 588 c 1
 386 645 407 673 448 673 c 2
 523 673 l 1
 523 610 l 1
 448 610 l 1xb8
 448 69 l 2
 448 52 438 44 419 44 c 0
 397 44 386 52 386 68 c 2
 386 414 l 2
 386 429 382 455 374 493 c 0
 364.026401444 546.857432202 292.580598478 591 228 591 c 0
 153.664670717 591 95 529.437609308 95 461 c 0
 95 399.091083637 139.934864142 341.002171195 200 339 c 1
 208 336 212 330 212 319 c 0
 212 303.367053089 201.760719745 283 187 283 c 0
 97.4659852261 300.409391762 40 358.362085498 40 461 c 0xd8
EndSplineSet
Validated: 1
EndChar

StartChar: u09a4
Encoding: 80 2468 76
Width: 712
GlyphClass: 2
Flags: W
HStem: 38 59<339.939 506.15> 489 58<391.397 527.428> 610 63<-6 726>
VStem: 30 54<452.125 548.416> 311 59<355.524 468.597> 592 58<203.163 422.206>
AnchorPoint: "Anchor-1" 437 40 basechar 0
AnchorPoint: "Anchor-0" 380 673 basechar 0
LayerCount: 2
Fore
SplineSet
311 417 m 0
 311 490.423340933 380.697078989 547 454 547 c 0
 495 547 531 537 561 516 c 0
 616.157606337 475.551088686 650 401.259877741 650 313 c 0
 650 220.942354024 617.014442083 146.787108547 573 99 c 0
 535 58 489 38 434 38 c 0
 420 38 406 39 392 42 c 0
 280.494821434 62.2736688301 237.698916611 104.364949562 172 184 c 0
 94 281 46 394 30 523 c 0
 26.369058441 541.154707795 43.1358268615 549 59 549 c 0
 72 549 80 544 84 534 c 0
 104 453 120 397 132 366 c 0
 163.938962163 282.350337191 237.195692714 175.482584372 308 133 c 0
 326 123 358 111 405 98 c 0
 413 97 421 97 428 97 c 0
 538.378597915 97 586.453020024 195.362413832 592 310 c 0
 595 369 582 415 552 447 c 0
 523 477 487 491 445 489 c 0
 443 489 441 489 439 489 c 0
 393 481 370 456 370 416 c 0
 370 397 375 381 386 366 c 1
 386 346 376 336 355 336 c 0
 348 336 341 338 334 342 c 1
 319 367 311 392 311 417 c 0
-6 673 m 1
 726 673 l 1
 726 610 l 1
 -6 610 l 1
 -6 673 l 1
EndSplineSet
Validated: 33
EndChar

StartChar: u09a5
Encoding: 81 2469 77
Width: 561
GlyphClass: 2
Flags: W
HStem: 595 58<100.877 234.363> 610 63<491 567>
VStem: 13 56<468.611 560.258> 266 56<427.671 563.054> 429 62<117 610>
AnchorPoint: "Anchor-1" 461 41 basechar 0
AnchorPoint: "Anchor-0" 500 667 basechar 0
LayerCount: 2
Fore
SplineSet
429 610 m 2x78
 429 646.379410972 454.774368435 673 491 673 c 2
 567 673 l 1
 567 610 l 1
 491 610 l 1x78
 491 60 l 2
 491 47 479 40 453 40 c 0
 443 40 435 42 429 46 c 2
 123 274 l 1
 119 283 116 292 116 299 c 0
 116 310 120 318 129 321 c 0
 164 335 196 360 224 397 c 0
 252 434 266 469 266 504 c 0
 266 547 243.498814092 577.947742918 199 592 c 0
 186.498814092 595.947742918 174 595 164 595 c 0
 104 595 73.9938422807 559.746098976 69 489 c 0
 67.9938422807 474.746098976 57 468 38 468 c 0
 25 468 17 473 13 482 c 1
 7.06373334594 594.789066427 55.3613128594 653 164 653 c 0xb8
 255.77741434 653 322 594.086993954 322 504 c 0
 322 469 312 432 293 394 c 0
 276 361 243 327 194 292 c 1
 429 117 l 1
 429 610 l 2x78
EndSplineSet
Validated: 33
EndChar

StartChar: u09a6
Encoding: 82 2470 78
Width: 436
GlyphClass: 2
Flags: W
HStem: 610 63<-6 40 102 447>
VStem: 40 62<375 610> 262 58<134.204 395.955>
AnchorPoint: "Anchor-1" 353 37 basechar 0
AnchorPoint: "Anchor-0" 67 667 basechar 0
LayerCount: 2
Fore
SplineSet
447 673 m 1
 447 610 l 1
 102 610 l 1
 102 375 l 1
 121 398 155 427 204 460 c 0
 261 499 304 517 333 514 c 0
 334 514 336 513 337 513 c 0
 358 511 369 499 368 478 c 1
 336 389 320 316 320 258 c 0
 320 196 336 133 370 69 c 1
 376.510684017 42.9572639306 346.414413204 38.1132561997 320 40 c 1
 282 108 262 178 262 251 c 0
 262 306 274 370 296 443 c 1
 221 414 154 364 95 294 c 1
 87 289 78 287 68 287 c 0
 49 287 40 295 40 310 c 2
 40 610 l 1
 -6 610 l 1
 -6 673 l 1
 447 673 l 1
EndSplineSet
Validated: 33
EndChar

StartChar: u09a7
Encoding: 83 2471 79
Width: 474
GlyphClass: 2
Flags: W
HStem: 610 63<95.1509 197.242 408 484>
VStem: 27 58<515.468 597.726> 346 62<121 495 564 610>
AnchorPoint: "Anchor-1" 368 34 basechar 0
AnchorPoint: "Anchor-0" 407 653 basechar 0
LayerCount: 2
Fore
SplineSet
346 121 m 1
 346 495 l 1
 101 344 l 1
 346 121 l 1
484 673 m 1
 484 610 l 1
 408 610 l 1
 408 53 l 2
 408 42 395 37 370 37 c 0
 360 37 352 39 346 42 c 1
 36 328 l 2
 32 333 30 339 30 347 c 0
 30 359 34 370 43 380 c 1
 133 432 l 1
 81 455 46 489 29 534 c 0
 28 542 27 550 27 558 c 0
 27 636.817833186 96.5256462694 671 181 671 c 1
 193 668 199 659 199 646 c 0
 199 629 193 618 182 612 c 1
 117 612 85 595 85 562 c 0
 85 555 87 546 90 538 c 0
 113 499 147 480 192 480 c 0
 199 480 207 481 214 482 c 1
 346 564 l 1
 346 610 l 2
 346 652 367 673 408 673 c 2
 484 673 l 1
EndSplineSet
Validated: 1
EndChar

StartChar: u09a8
Encoding: 84 2472 80
Width: 519
GlyphClass: 2
Flags: W
HStem: 395 58<150.245 320.299> 610 63<-6 388 450 526>
VStem: 40 59<199.781 345.777> 388 62<33.4395 321.576 390 610>
AnchorPoint: "Anchor-1" 421 28 basechar 0
AnchorPoint: "Anchor-0" 400 673 basechar 0
LayerCount: 2
Fore
SplineSet
145 115 m 0
 82.7330655649 139.299291487 40 195.827150945 40 277 c 0
 40 321 55 359 83 392 c 0
 118 433 169 453 236 453 c 0
 295 453 345 432 388 390 c 1
 388 610 l 1
 -6 610 l 1
 -6 673 l 1
 526 673 l 1
 526 610 l 1
 450 610 l 1
 450 51 l 2
 450 39 440 33 419 33 c 0
 398 33 388 39 388 51 c 2
 388 263 l 1
 368.390069764 345.797483217 327.010752945 395 230 395 c 0
 155.248258898 395 99 349.202608703 99 276 c 0
 99 207.660240542 124.4418207 188.315492648 171 162 c 0
 176 157 178 152 178 146 c 0
 178 130.483548033 162.814473716 112.740789469 147 115 c 0
 146 115 146 115 145 115 c 0
EndSplineSet
Validated: 33
EndChar

StartChar: u09aa
Encoding: 85 2474 81
Width: 646
GlyphClass: 2
Flags: W
HStem: 606 60<189.194 344.23> 610 63<576 652>
VStem: 514 62<35.6394 417.506 502 610>
AnchorPoint: "Anchor-1" 546 35 basechar 0
AnchorPoint: "Anchor-0" 320 673 basechar 0
LayerCount: 2
Fore
SplineSet
402 542 m 1xa0
 357 585 312 606 267 606 c 0
 222 606 178 585 134 542 c 1
 256 398 l 1
 402 542 l 1xa0
514 609 m 2
 514 643.083175928 541.756757131 673 576 673 c 2
 652 673 l 1
 652 610 l 1
 576 610 l 1x60
 576 55 l 2
 576 42 566 35 546 35 c 0
 525 35 514 41 514 54 c 2
 514 328 l 2
 514 359 506 390 490 422 c 0
 483 437 467 463 442 500 c 1
 213 276 l 1
 189.487985639 270.12199641 170 286.420809596 170 306 c 0
 170 310 171 314 172 317 c 1
 212 358 l 1
 100 493 l 1
 70 443 l 1
 65 440 61 439 56 439 c 0
 37.1993283114 439 20.9078127253 454.829685472 19 472 c 1
 66 575 137 638 231 661 c 0
 246 664 260 666 275 666 c 0
 363 666 443 611 514 502 c 1
 514 609 l 2
EndSplineSet
Validated: 33
EndChar

StartChar: u09ab
Encoding: 86 2475 82
Width: 683
GlyphClass: 2
Flags: W
HStem: 233 59<500.282 552.889> 515 55<423 517.605> 610 63<-9 16 96 694>
VStem: 361 62<121 515> 575 59<314.001 461.17>
AnchorPoint: "Anchor-1" 395 31 basechar 0
AnchorPoint: "Anchor-0" 293 667 basechar 0
LayerCount: 2
Fore
SplineSet
423 62 m 1
 424.553698454 44.9093170094 413.847208236 37 396 37 c 0
 382 37 370 41 361 49 c 2
 57 297 l 1
 53 305 51 312 51 319 c 0
 51 328 55 338 63 347 c 1
 166 443 l 1
 16 610 l 1
 -9 610 l 1
 -9 673 l 1
 694 673 l 1
 694 610 l 1
 96 610 l 1
 227 463 l 1
 236.140404171 441.672390267 232.158492772 428.508483484 221 418 c 2
 118 321 l 1
 361 121 l 1
 361 514 l 2
 361 551 372 570 393 570 c 0
 505 570 578 538 612 474 c 0
 627 446 634 417 634 387 c 0
 634 315.799531846 587.140875177 239.657950912 525 233 c 1
 508 235 499 246 499 267 c 0
 499 280 504 288 515 292 c 1
 533.303969367 290.169603063 549.116530016 305.203927528 557 319 c 0
 569 339 575 362 575 389 c 0
 575 411 570 431 560 450 c 0
 538 493 492 515 423 515 c 1
 423 62 l 1
EndSplineSet
Validated: 33
EndChar

StartChar: u09ac
Encoding: 87 2476 83
Width: 478
GlyphClass: 2
Flags: W
HStem: 610 63<-6 349 411 487>
VStem: 349 62<128 500 564 610>
AnchorPoint: "Anchor-1" 374 35 basechar 0
AnchorPoint: "Anchor-0" 327 667 basechar 0
LayerCount: 2
Fore
SplineSet
349 128 m 1
 349 500 l 1
 104 347 l 1
 349 128 l 1
-6 673 m 1
 487 673 l 1
 487 610 l 1
 411 610 l 1
 411 62 l 1
 407 47 395 39 376 39 c 0
 365 39 356 42 349 49 c 2
 38 332 l 2
 32 337 30 343 30 352 c 0
 30 363 33 371 40 375 c 2
 349 564 l 1
 349 610 l 1
 -6 610 l 1
 -6 673 l 1
EndSplineSet
Validated: 1
EndChar

StartChar: u09ad
Encoding: 88 2477 84
Width: 780
GlyphClass: 2
Flags: W
HStem: 24 67<363.206 552.112> 288 56<396.096 514.004> 610 63<-6 799>
VStem: 30 52<477.908 582.67> 317 61<361.704 475.25> 667 60<201.522 359.88>
AnchorPoint: "Anchor-1" 471 21 basechar 0
AnchorPoint: "Anchor-0" 360 667 basechar 0
LayerCount: 2
Fore
SplineSet
450 288 m 0
 371.486106098 288 317 351.018983995 317 430 c 0
 317 447 319 465 325 482 c 1
 332 489 339 493 348 493 c 0
 361 493 373 485 383 470 c 1
 380 455 378 442 378 429 c 0
 378 372 401 344 449 344 c 0
 456 344 464 345 471 347 c 0
 499 354 523 368 543 390 c 0
 552 400 566 420 586 452 c 0
 591 462 601 468 617 468 c 0
 624 468 630 466 636 461 c 0
 697 405 727 345 727 283 c 0
 727 246 716 210 695 173 c 0
 638 74 560 24 462 24 c 0
 349 24 249 89 160 220 c 0
 121 277 92 332 73 382 c 0
 55 430 41 489 30 562 c 1
 34 576 42 583 57 583 c 0
 65 583 73 581 82 577 c 1
 94 492 121 408 164 326 c 0
 218.946968908 219.54024774 321.228448587 91 457 91 c 0
 527 91 584 119 628 175 c 0
 654 209 667 244 667 283 c 0
 667 322 652 358 622 392 c 1
 573 335 528 301 486 292 c 0
 474 289 462 288 450 288 c 0
-6 673 m 1
 799 673 l 1
 799 610 l 1
 -6 610 l 1
 -6 673 l 1
EndSplineSet
Validated: 1
EndChar

StartChar: u09ae
Encoding: 89 2478 85
Width: 564
GlyphClass: 2
Flags: W
HStem: 67 56<169.24 248.255> 359 59<239.412 325.415> 610 63<-6 78 147 433 495 571>
VStem: 68 56<170.007 309.835> 433 62<39.6394 245.541 324 610>
AnchorPoint: "Anchor-1" 464 34 basechar 0
AnchorPoint: "Anchor-0" 273 667 basechar 0
LayerCount: 2
Fore
SplineSet
108 547 m 1
 178.538513134 537.467768495 237.84059655 492.869262098 242 418 c 1
 281.518341862 419.580733674 320.551156106 409.972096669 348 395 c 0
 373 381 402 357 433 324 c 1
 433 610 l 1
 147 610 l 1
 108 547 l 1
124 241 m 0
 124 173.637333575 169.722522975 123 236 123 c 1
 245 119 249 111 249 99 c 0
 249 78 242 67 227 67 c 0
 146 74 93.2348905334 116.594250338 72 195 c 0
 67.2348905334 212.594250338 68 228 68 243 c 0
 68 312 106 366 183 407 c 1
 184 428 178 446 166 459 c 1
 155 469 l 1
 134.777197712 484.167101716 103.232863336 491.360887127 69 489 c 0
 66 489 63 489 60 489 c 0
 40 493 30 503 30 522 c 0
 30 526 30 530 31 534 c 1
 78 610 l 1
 -6 610 l 1
 -6 673 l 1
 571 673 l 1
 571 610 l 1
 495 610 l 1
 495 57 l 2
 495 45 486 39 466 39 c 0
 444 39 433 45 433 58 c 2
 433 102 l 2
 433 205.872289243 417.83954345 263.678228334 364 310 c 0
 328.12566481 340.8650976 291 359 248 359 c 0
 193 359 152.177735146 333.691966047 130 283 c 0
 124.177735146 269.691966047 124 255 124 241 c 0
EndSplineSet
Validated: 33
EndChar

StartChar: u09af
Encoding: 90 2479 86
Width: 489
GlyphClass: 2
Flags: W
HStem: 610 63<-6 20 97 358 420 496>
VStem: 358 62<115 610>
AnchorPoint: "Anchor-1" 385 29 basechar 0
AnchorPoint: "Anchor-0" 347 687 basechar 0
LayerCount: 2
Fore
SplineSet
-6 673 m 1
 496 673 l 1
 496 610 l 1
 420 610 l 1
 420 60 l 2
 420 43 408 34 385 34 c 0
 375 34 365 37 358 42 c 2
 32 278 l 2
 25 284 21 291 21 299 c 0
 21 306 24 314 29 321 c 1
 164 439 l 1
 20 610 l 1
 -6 610 l 1
 -6 673 l 1
97 610 m 1
 227 452 l 1
 233.905863371 435.42592791 233.911403331 420.183552498 223 412 c 2
 92 302 l 1
 358 115 l 1
 358 610 l 1
 97 610 l 1
EndSplineSet
Validated: 33
EndChar

StartChar: u09b0
Encoding: 91 2480 87
Width: 480
GlyphClass: 2
Flags: W
HStem: 9 73<169 248> 610 63<-6 349 411 487>
VStem: 169 79<9 82> 349 62<128 500 564 610>
AnchorPoint: "Anchor-1" 378 34 basechar 0
AnchorPoint: "Anchor-0" 320 680 basechar 0
LayerCount: 2
Fore
SplineSet
349 128 m 1
 349 500 l 1
 104 347 l 1
 349 128 l 1
-6 673 m 1
 487 673 l 1
 487 610 l 1
 411 610 l 1
 411 62 l 1
 407 47 395 39 376 39 c 0
 365 39 356 42 349 49 c 2
 38 332 l 2
 32 337 30 343 30 352 c 0
 30 363 33 371 40 375 c 2
 349 564 l 1
 349 610 l 1
 -6 610 l 1
 -6 673 l 1
169 82 m 1
 248 82 l 1
 248 9 l 1
 169 9 l 1
 169 82 l 1
EndSplineSet
Validated: 1
EndChar

StartChar: u09b2
Encoding: 92 2482 88
Width: 682
GlyphClass: 2
Flags: W
HStem: 185 56<137.926 246.554> 463 58<391.414 489.916> 469 59<131.667 267.201> 610 63<-6 557 619 695>
VStem: 29 59<290.049 425.205> 557 62<32.0613 386.309 452 610>
AnchorPoint: "Anchor-1" 584 34 basechar 0
AnchorPoint: "Anchor-0" 325 670 basechar 0
LayerCount: 2
Fore
SplineSet
88 355 m 0xbc
 88 288.254733062 144.102931015 241 211 241 c 0
 217 241 223 241 229 242 c 1
 242 237 248 229 248 218 c 0
 248 204 242 193 229 186 c 1
 222 185 215 185 208 185 c 0
 157 185 115 201 80 235 c 0
 46 269 29 309 29 355 c 0
 29 386 38 417 56 446 c 0
 90 501 138 528 200 528 c 0xbc
 254 528 297 506 331 461 c 1
 365 501 399 521 434 521 c 0
 472 521 513 498 557 452 c 1
 557 610 l 1
 -6 610 l 1
 -6 673 l 1
 695 673 l 1
 695 610 l 1
 619 610 l 1
 619 62 l 2
 619 41 608 31 587 31 c 0
 567 31 557 40 557 60 c 2
 557 351 l 1
 518 426 478 463 438 463 c 0xdc
 407 463 380 439 359 390 c 1
 354 384 345 382 332 382 c 0
 319 382 310 385 304 392 c 1
 286 443 251 469 200 469 c 0
 140.772736097 469 88 427.409928322 88 355 c 0xbc
EndSplineSet
Validated: 1
EndChar

StartChar: u09b6
Encoding: 93 2486 89
Width: 627
GlyphClass: 2
Flags: W
HStem: 339 56<4.60213 94.4385> 610 63<-15.3804 116.043 277.637 442.025 562 638>
VStem: 500 62<40.8581 560.032 609 610>
AnchorPoint: "Anchor-1" 538 37 basechar 0
AnchorPoint: "Anchor-0" 350 670 basechar 0
LayerCount: 2
Fore
SplineSet
500 609 m 1
 500 638.946802344 530.896459278 673 562 673 c 2
 638 673 l 1
 638 610 l 1
 562 610 l 1
 562 60 l 2
 562 47 553 40 534 40 c 0
 511 40 500 47 500 60 c 2
 500 513 l 2
 500 536 486 558 457 579 c 0
 426 601 390 612 350 612 c 0
 323 612 298 604 277 588 c 0
 252 569 241 546 242 516 c 1
 242 513 l 1
 246.244713426 428.105731473 304.120164722 407.087983528 395 398 c 1
 400 395 401 390 401 381 c 0
 401 363 397 350 388 342 c 1
 336 347 297 355 274 367 c 0
 247 381 224 407 203 445 c 1
 180 401 154 372 123 357 c 0
 102 348 67 342 17 339 c 1
 9 345 4 354 4 366 c 0
 4 377 8 387 15 395 c 1
 84.9445058883 398.885805883 149.24022632 436.995223326 163 494 c 0
 170.048912258 520.433420968 156.882446767 544.823404311 144 562 c 0
 126 585 105 599 80 605 c 0
 65 608 39 610 -0 610 c 0
 -10 610 -16 621 -16 643 c 0
 -16 663 -10 673 -0 673 c 0
 53 673 88 670 106 664 c 0
 142 653 175 624 202 577 c 1
 223 610 245 633 266 646 c 0
 285 659 313 668 350 673 c 0
 369 674 388 672 408 667 c 0
 445.477404696 655.756778591 489.306387126 634.397330575 500 609 c 1
EndSplineSet
Validated: 33
EndChar

StartChar: u09b7
Encoding: 94 2487 90
Width: 489
GlyphClass: 2
Flags: W
HStem: 610 63<-6 20 97 358 420 496>
VStem: 358 62<115 329 392 610>
AnchorPoint: "Anchor-1" 383 36 basechar 0
AnchorPoint: "Anchor-0" 230 680 basechar 0
LayerCount: 2
Fore
SplineSet
496 610 m 1
 420 610 l 1
 420 60 l 2
 420 43 408 34 385 34 c 0
 375 34 365 37 358 42 c 2
 32 278 l 2
 25 284 21 291 21 299 c 0
 21 306 24 314 29 321 c 1
 164 439 l 1
 20 610 l 1
 -6 610 l 1
 -6 673 l 1
 496 673 l 1
 496 610 l 1
358 392 m 1
 358 610 l 1
 97 610 l 1
 226 453 l 1
 358 392 l 1
358 115 m 1
 358 329 l 1
 205 397 l 1
 92 302 l 1
 358 115 l 1
EndSplineSet
Validated: 1
EndChar

StartChar: u09b8
Encoding: 95 2488 91
Width: 650
GlyphClass: 2
Flags: W
HStem: 120 60<118.953 207.003> 393 56<365.998 439.98> 610 63<-6 143 218 524 586 662>
VStem: 524 62<29.8581 258.926 364 610>
AnchorPoint: "Anchor-1" 563 27 basechar 0
AnchorPoint: "Anchor-0" 365 670 basechar 0
LayerCount: 2
Fore
SplineSet
524 610 m 1
 218 610 l 1
 177 542 l 1
 216 535 249 522 274 503 c 0
 295 488 318 463 341 429 c 1
 361 442 380 449 399 449 c 0
 433 449 474 421 524 364 c 1
 524 610 l 1
125 489 m 0
 105.499247721 487.499942132 96 496.336320919 96 515 c 0
 96 522 98 528 102 534 c 2
 143 610 l 1
 -6 610 l 1
 -6 673 l 1
 662 673 l 1
 662 610 l 1
 586 610 l 1
 586 49 l 2
 586 36 577 29 558 29 c 0
 535 29 524 36 524 49 c 2
 524 117 l 2
 524 192 509 258 479 315 c 0
 452 367 425 393 397 393 c 0
 382 393 369.852781566 384.394456351 364 366 c 0
 341.852781566 296.394456351 315 239 280 193 c 0
 242 144 203 120 162 120 c 0
 115 120 72 153 33 220 c 0
 31 225 31 229 31 233 c 0
 31 250 40 258 60 258 c 0
 67 258 75 256 82 252 c 1
 109 204 136 180 164 180 c 0
 206 180 252 243 303 369 c 1
 280 413 258 443 235 460 c 0
 210 478 173 488 125 489 c 0
EndSplineSet
Validated: 33
EndChar

StartChar: u09b9
Encoding: 96 2489 92
Width: 443
GlyphClass: 2
Flags: W
HStem: 536 58<201.172 308.665> 610 63<-6 108 184 455>
VStem: 58 56<402.521 489.494> 353 57<354.894 491.114>
AnchorPoint: "Anchor-1" 512 -51 basechar 0
AnchorPoint: "Anchor-0" 180 670 basechar 0
LayerCount: 2
Fore
SplineSet
58 423 m 1
 58 490.166492212 101.697149494 554.238165873 152 574 c 1
 108 610 l 1
 -6 610 l 1
 -6 673 l 1
 455 673 l 1
 455 610 l 1
 184 610 l 2
 181.11759647 610 211.737477115 599.01669718 217 592 c 1
 224 594 231 594 239 594 c 0
 280 594 316 582 348 558 c 0
 389 526 410 478 410 416 c 0
 410 405 409 393 408 382 c 0
 383 286 297 229 150 211 c 1
 501 -6 l 1
 502 -10 503 -14 503 -18 c 0
 503 -36 493 -45 474 -44 c 1
 471 -44 l 1
 29 227 l 1
 23 235 20 243 20 252 c 0
 20 271 28 280 45 280 c 0
 48 280 52 279 56 278 c 0
 83 274 110 272 134 272 c 0
 245 272 317 310 350 387 c 1
 352 397 353 407 353 418 c 0
 353 488.185766585 306.944603349 536 236 536 c 0
 159 536 118 496 114 416 c 1
 108 407 99 402 86 402 c 0
 72 402 63 409 58 423 c 1
EndSplineSet
Validated: 33
EndChar

StartChar: u09bc
Encoding: 97 2492 93
Width: 5
GlyphClass: 2
Flags: W
HStem: -78 73<-184 -105>
VStem: -184 79<-78 -5>
LayerCount: 2
Fore
SplineSet
-184 -5 m 1
 -105 -5 l 1
 -105 -78 l 1
 -184 -78 l 1
 -184 -5 l 1
EndSplineSet
Validated: 1
EndChar

StartChar: avagraha
Encoding: 98 2493 94
Width: 443
GlyphClass: 2
Flags: W
HStem: 536 58<204.566 309.141> 610 63<-4 135.476>
VStem: 60 56<402.521 489.494> 355 57<354.894 491.049>
LayerCount: 2
Fore
SplineSet
154 574 m 5
 104.724625123 618.46802123 54.822619439 629.607539813 -4 610 c 5
 -4 673 l 5
 74.535448799 690.848965636 148.40712641 651.102936283 196 610 c 5
 219 592 l 5
 226 594 233 594 241 594 c 4
 344.803955403 594 412 519.166912171 412 416 c 4
 412 405 411 393 410 382 c 4
 385 286 299 229 152 211 c 5
 503 -6 l 5
 504 -10 505 -14 505 -18 c 4
 505 -36 495 -45 476 -44 c 5
 473 -44 l 5
 31 227 l 5
 25 235 22 243 22 252 c 4
 22 271 30 280 47 280 c 4
 50 280 54 279 58 278 c 4
 85 274 111 272 136 272 c 4
 247 272 319 310 352 387 c 5
 354 397 355 407 355 418 c 4
 355 488.185766585 308.944603349 536 238 536 c 4
 161 536 120 496 116 416 c 5
 110 407 101 402 88 402 c 4
 74 402 65 409 60 423 c 5
 60 490.166492212 103.697149494 554.238165873 154 574 c 5
EndSplineSet
Validated: 33
EndChar

StartChar: u09be
Encoding: 99 2494 95
Width: 246
GlyphClass: 2
Flags: W
HStem: 610 63<-6 100 162 243>
VStem: 100 62<47.5273 610>
LayerCount: 2
Fore
SplineSet
243 673 m 1
 243 610 l 1
 162 610 l 1
 162 62 l 2
 162 52 151 47 130 47 c 0
 110 47 100 53 100 64 c 2
 100 610 l 1
 -6 610 l 1
 -6 673 l 1
 243 673 l 1
EndSplineSet
Validated: 1
EndChar

StartChar: u09bf
Encoding: 100 2495 96
Width: 231
GlyphClass: 2
Flags: W
HStem: 610 63<-6 86 162 243> 897 57<197.279 429.761>
VStem: 45 65<700.738 828.953> 100 62<48.6328 610>
LayerCount: 2
Fore
SplineSet
638 786 m 0xe0
 639 782 640 778 640 775 c 0
 640 757 630 748 610 748 c 0
 605 748 600 749 595 751 c 1
 510 848 419 897 321 897 c 0
 290 897 255.97118644 896.445115562 221 885 c 0
 145.97118644 860.445115562 110 818 110 769 c 0xe0
 110 738 124 706 152 673 c 1
 243 673 l 1
 243 610 l 1
 162 610 l 1
 162 66 l 2
 162 54 151 48 130 48 c 0
 110 48 100 55 100 68 c 2
 100 610 l 1xd0
 -6 610 l 1
 -6 673 l 1
 86 673 l 1
 59 700 45 731 45 766 c 0
 45 823 72.454009627 873.68536148 132 908 c 0
 190.454009627 941.68536148 254 954 318 954 c 0
 445 954 552 898 638 786 c 0xe0
EndSplineSet
Validated: 1
Substitution2: "Single Substitution Lookup 28" u09bf.salt
EndChar

StartChar: u09c0
Encoding: 101 2496 97
Width: 231
GlyphClass: 2
Flags: W
HStem: 610 63<-10 89 162 243> 735 59<-364.792 -112.563> 880 54<-317.308 -65.7441>
VStem: -420 54<801.13 836.673> -80 57<616.328 698.522> 89 59<673 731.265> 100 62<30.8018 610>
LayerCount: 2
Fore
SplineSet
-195 934 m 0xfc
 6.96073448624 934 127.812518618 836.874848865 148 673 c 1xfc
 243 673 l 1
 243 610 l 1
 162 610 l 1
 162 62 l 2
 162 41 152 30 131 30 c 0
 110 30 100 41 100 62 c 2
 100 610 l 1xfa
 -10 610 l 1
 -10 673 l 1
 89 673 l 1
 58.7313675111 804.971237652 -36.2291785367 880 -195 880 c 0
 -260 880 -315 866 -359 837 c 1
 -364 830 -366 824 -366 818 c 0
 -366 803 -337 795 -277 794 c 0
 -199 793 -144 786 -111 773 c 0
 -52 750 -23 705 -23 637 c 1
 -29 622 -40 615 -56 615 c 0
 -66 615 -74 620 -80 630 c 1
 -85 666 -91 689 -97 699 c 0
 -107 714 -127 724 -158 729 c 0
 -176 732 -216 734 -277 735 c 0
 -364.70951442 736.754190288 -424.340116375 745.877905245 -420 824 c 0
 -420 826 -420 827 -420 828 c 0
 -413.402538629 907.169536446 -295.997759533 934 -195 934 c 0xfc
EndSplineSet
Validated: 33
Substitution2: "Single Substitution lookup 29" u09c0.salt
EndChar

StartChar: u09c1
Encoding: 102 2497 98
Width: 5
GlyphClass: 2
Flags: W
HStem: -124 39<-221.742 -150.468> -17 40<-220.839 -126.784>
VStem: -280 56<-82.6658 -20.1728>
AnchorPoint: "Anchor-1" -100 65 mark 0
LayerCount: 2
Fore
SplineSet
-224 -52 m 0
 -224 -74 -211 -85 -184 -85 c 0
 -159.915423015 -85 -133.324488271 -49.0436695053 -126 -30 c 1
 -147 -22 -166 -17 -182 -17 c 0
 -210 -17 -224 -29 -224 -52 c 0
-72 -54 m 1
 -88.6480862049 -92.8455344781 -136.238713572 -124 -190 -124 c 0
 -224 -124 -248 -114 -265 -93 c 0
 -275 -81 -280 -68 -280 -55 c 0
 -280 -14.2607131869 -232.151188534 23 -195 23 c 0
 -175 23 -149 19 -118 11 c 1
 -115.660107535 22.6994623238 -123.460636142 48.8950297124 -128 61 c 1
 -75 61 l 1
 -63 40 -58 17 -59 -6 c 0
 -59 -8 -59 -9 -59 -11 c 1
 66 -75 l 2
 69 -77 71 -80 71 -85 c 0
 71 -95.3333541175 60.1994836852 -116.239896737 49 -114 c 0
 48 -114 48 -113 47 -113 c 2
 -72 -54 l 1
EndSplineSet
Validated: 33
EndChar

StartChar: u09c2
Encoding: 103 2498 99
Width: 5
GlyphClass: 2
Flags: W
HStem: -120 48<-184.218 -51.0234> -19 80<-128 -67.2896> -14 49<-181.192 -121.272>
VStem: -235 49<-69.8749 -20.0173>
AnchorPoint: "Anchor-1" -95 55 mark 0
LayerCount: 2
Fore
SplineSet
-151 -120 m 0xb0
 -197.404342908 -120 -235 -97.0963770378 -235 -46 c 0
 -235 -6 -211 21 -162 35 c 0
 -149 39 -135 39 -121 35 c 1xb0
 -122 44 -125 53 -128 61 c 1
 -75 61 l 1
 -66 49 -61 36 -60 23 c 0
 -60 0.283810995601 -88.9190423865 -21.3851197017 -108 -19 c 0xd0
 -119 -16 -130 -14 -139 -14 c 0
 -162 -14 -178 -23 -186 -42 c 1
 -185 -62 -173 -72 -152 -72 c 0
 -133 -72 -113 -65 -92 -53 c 0
 -81.5523875105 -46.4702421941 -69.0576324009 -43.9135513986 -63 -53 c 1
 89 -154 l 1
 91 -158 92 -161 92 -165 c 0
 92 -178.824953776 77.2617681289 -193 63 -193 c 1
 -76 -102 l 1
 -101 -114 -126 -120 -151 -120 c 0xb0
EndSplineSet
Validated: 33
EndChar

StartChar: u09c3
Encoding: 104 2499 100
Width: 5
GlyphClass: 2
Flags: W
HStem: -193 254
VStem: -232 219
AnchorPoint: "Anchor-1" -90 50 mark 0
LayerCount: 2
Fore
SplineSet
-97 61 m 1
 -79.9400006295 64.7911109712 -68 52.0632541931 -68 37 c 0
 -68 31 -70 27 -74 23 c 1
 -171 -33 l 1
 -18 -158 l 1
 -15 -162 -13 -166 -13 -171 c 0
 -13 -186 -21 -193 -38 -193 c 0
 -41 -193 -43 -193 -46 -192 c 1
 -224 -50 l 2
 -229 -45 -232 -39 -232 -32 c 0
 -232 -24 -229 -17 -223 -11 c 1
 -97 61 l 1
EndSplineSet
Validated: 33
EndChar

StartChar: u09c4
Encoding: 105 2500 101
Width: 0
GlyphClass: 4
Flags: W
HStem: -256 317
VStem: -407 307
AnchorPoint: "Anchor-1" -160 54 mark 0
LayerCount: 2
Fore
SplineSet
-243 -24 m 1
 -243 -26 l 2
 -243 -32 -245 -37 -249 -41 c 1
 -105 -158 l 1
 -102 -162 -100 -166 -100 -171 c 0
 -100 -186 -108 -193 -125 -193 c 0
 -128 -193 -130 -193 -133 -192 c 1
 -292 -65 l 1
 -346 -97 l 1
 -193 -222 l 1
 -190 -226 -188 -229 -188 -234 c 0
 -188 -249 -196 -256 -213 -256 c 0
 -216 -256 -218 -256 -221 -255 c 1
 -399 -113 l 2
 -404 -108 -407 -103 -407 -96 c 0
 -407 -88 -404 -81 -398 -75 c 1
 -319 -29 l 1
 -318 -22 -315 -16 -310 -11 c 1
 -184 61 l 1
 -166.94000063 64.7911109712 -155 52.0632541931 -155 37 c 0
 -155 31 -157 27 -161 23 c 1
 -243 -24 l 1
EndSplineSet
Validated: 33
EndChar

StartChar: u09c7
Encoding: 106 2503 102
Width: 317
GlyphClass: 2
Flags: W
HStem: 35 64<149.864 293.676> 611 57<-7 173 215.806 317>
VStem: -7 324<611.199 668>
LayerCount: 2
Fore
SplineSet
317 668 m 1
 317 614 l 1
 228.074737828 599.179122971 176.668014345 583.403878887 126 524 c 0
 83 474 61 405 61 320 c 0
 61 203.897016587 112.620303134 117.844924216 204 95 c 0
 211 93 220 92 229 93 c 2
 239 94 l 1
 257 97 268 99 273 99 c 0
 294 99 304 90 304 71 c 0
 304 62 301 55 295 50 c 1
 266.489504434 37.5266581901 254.552868056 35 223 35 c 0
 161 35 108 63 66 120 c 0
 -3.00592346329 213.777280604 -17.8048640244 350.751697395 32 473 c 0
 43 500 56.5234528682 528.078145729 75 553 c 0
 99.5234528682 586.078145729 134 604 173 611 c 1
 -7 611 l 1
 -7 668 l 1
 317 668 l 1
EndSplineSet
Validated: 33
Substitution2: "'init' Initial Forms in Bengali lookup 0 subtable" u09c7.init
EndChar

StartChar: u09c8
Encoding: 107 2504 103
Width: 299
GlyphClass: 2
Flags: W
HStem: 27 66<143.319 282.97> 611 62<-11 147 242.625 298> 735 63<-105.701 137.497>
VStem: -179 60<812.31 929.066> 2 61<195.042 444.05>
LayerCount: 2
Fore
SplineSet
298 673 m 1
 298 610 l 1
 170.539883561 610 98.380909037 516.368060365 73 403 c 0
 66 375 63 346 63 316 c 0
 63 205.558848505 108.411521199 117.751882488 187 89 c 0
 209.090228802 84.2663795425 225.909601501 84.5638406006 242 91 c 0
 248 92 254 93 259 93 c 0
 279 93 289 84 289 66 c 0
 289 59 288 53 284 46 c 1
 262 31 242.191597186 26.4790425095 225 27 c 0
 176.191597186 28.4790425095 135 39 100 67 c 0
 37.6022550749 118.386378174 2 215.700123767 2 322 c 0
 2 350 4 376 9 401 c 0
 33 521 79 591 147 611 c 1
 -11 611 l 1
 -11 673 l 1
 181 673 l 1
 168 698 143 715 107 725 c 0
 89 730 53 734 -2 735 c 0
 -102.599188284 736.972533104 -179 755.870028812 -179 847 c 0
 -179 857 -176 886 -169 935 c 1
 -161 940 -151 943 -142 943 c 0
 -128 943 -116 938 -107 927 c 1
 -115 893 -119 869 -119 855 c 0
 -119 820 -96 801 -48 798 c 0
 53 793 114 787 135 781 c 0
 190 766 229 730 252 673 c 1
 298 673 l 1
EndSplineSet
Validated: 33
Substitution2: "'init' Initial Forms in Bengali lookup 0 subtable" u09c8.init
EndChar

StartChar: u09cb
Encoding: 108 2507 104
Width: 708
GlyphClass: 2
Flags: W
HStem: 35 64<147.806 291.676> 611 57<-8 171 214.159 315 508 614 676 756>
VStem: 614 62<47.5273 610>
LayerCount: 2
Fore
SplineSet
315 668 m 1
 315 614 l 1
 225.856514152 599.142752359 175.705405469 583.447716757 125 524 c 0
 82 474 60 405 60 320 c 0
 60 203.141714153 110.169731923 117.957567019 202 95 c 0
 220.167125665 89.8093926672 260.449065526 99 271 99 c 0
 292 99 302 90 302 71 c 0
 302 62 299 55 293 50 c 1
 264.489504434 37.5266581901 252.552868056 35 221 35 c 0
 159 35 106 63 64 120 c 0
 -5.77826735279 214.826876146 -18.8688196343 350.594715443 31 473 c 0
 42 500 54.5234528682 528.078145729 73 553 c 0
 97.5234528682 586.078145729 132 604 171 611 c 1
 -8 611 l 1
 -8 668 l 1
 315 668 l 1
756 673 m 1
 756 610 l 1
 676 610 l 1
 676 62 l 2
 676 52 665 47 644 47 c 0
 624 47 614 53 614 64 c 2
 614 610 l 1
 508 610 l 1
 508 673 l 1
 756 673 l 1
EndSplineSet
Validated: 33
EndChar

StartChar: u09cc
Encoding: 109 2508 105
Width: 741
GlyphClass: 2
Flags: W
HStem: 35 64<147.806 291.676> 610 63<-8 171 211.272 315 508 610 676 751>
VStem: 197 59<828.474 913.518> 610 58<673 707.926> 614 62<44.1602 610>
LayerCount: 2
Fore
SplineSet
315 668 m 1xe0
 315 614 l 1
 225.856514152 599.142752359 175.705405469 583.447716757 125 524 c 0
 82 474 60 405 60 320 c 0
 60 203.141714153 110.169731923 117.957567019 202 95 c 0
 220.167125665 89.8093926672 260.449065526 99 271 99 c 0
 292 99 302 90 302 71 c 0
 302 62 299 55 293 50 c 1
 264.489504434 37.5266581901 252.552868056 35 221 35 c 0
 159 35 106 63 64 120 c 0
 -5.77826735279 214.826876146 -18.8688196343 350.594715443 31 473 c 0
 42 500 54.5234528682 528.078145729 73 553 c 0
 97.5234528682 586.078145729 132 604 171 611 c 1
 -8 611 l 1
 -8 668 l 1
 315 668 l 1xe0
259 894 m 1
 257 886 256 878 256 871 c 0
 256 832 290 809 358 803 c 1
 551 789 l 1
 623 774 661 735 668 673 c 1xf0
 751 673 l 1
 751 610 l 1
 676 610 l 1
 676 76 l 2
 676 54 666 43 646 43 c 0
 625 43 614 54 614 75 c 2
 614 610 l 1xe8
 508 610 l 1
 508 673 l 1
 610 673 l 1xf0
 605 709 567 731 496 738 c 2
 300 758 l 1
 231 774 197 811 197 868 c 0
 197 878 198 889 200 901 c 1
 208 910 218 915 228 915 c 0
 241 915 252 908 259 894 c 1
EndSplineSet
Validated: 33
EndChar

StartChar: u09cd
Encoding: 110 2509 106
Width: 5
GlyphClass: 2
Flags: W
HStem: -154 164
VStem: -106 200
AnchorPoint: "Anchor-1" -115 15 mark 0
LayerCount: 2
Fore
SplineSet
-71 10 m 1
 94 -111 l 1
 62 -154 l 1
 -106 -28 l 1
 -71 10 l 1
EndSplineSet
Validated: 1
EndChar

StartChar: u09ce
Encoding: 111 2510 107
Width: 500
GlyphClass: 2
Flags: W
HStem: 613 58<139.195 266.24>
VStem: 39 57<436.667 571.5>
LayerCount: 2
Fore
SplineSet
357 547 m 1
 357 529.795410389 338.460736615 519 321 519 c 0
 314 519 310 521 307 525 c 0
 286 584 253 613 208 613 c 0
 199 613 189 612 179 610 c 0
 124 593 96 558 96 506 c 0
 96 448 144 381 241 305 c 2
 374 202 l 1
 421 159 455 112 477 60 c 1
 480.249787043 42.1261712644 466.495176579 35 448 35 c 0
 433 35 423 40 419 49 c 0
 399 95 362 139 306 184 c 1
 159 297 l 1
 105 345 68 396 48 452 c 0
 41 471 39 489 39 508 c 0
 39 554 57 593 94 626 c 0
 128 656 163 671 201 671 c 0
 291.735701337 668.839626159 329.740359879 621.509682998 357 547 c 1
EndSplineSet
Validated: 33
Colour: ff0000
EndChar

StartChar: u09d7
Encoding: 112 2519 108
Width: 231
GlyphClass: 2
Flags: W
HStem: 610 63<-6 96 162 238>
VStem: -317 59<828.474 913.518> 96 59<673 707.926> 100 62<44.1602 610>
LayerCount: 2
Fore
SplineSet
-255 894 m 1xe0
 -257 886 -258 878 -258 871 c 0
 -258 832 -224 809 -156 803 c 1
 37 789 l 1
 109 774 148 735 155 673 c 1xe0
 238 673 l 1
 238 610 l 1
 162 610 l 1
 162 76 l 2
 162 54 152 43 132 43 c 0
 111 43 100 54 100 75 c 2
 100 610 l 1xd0
 -6 610 l 1
 -6 673 l 1
 96 673 l 1
 91 709 53 731 -18 738 c 2
 -214 758 l 1
 -283 774 -317 811 -317 868 c 0
 -317 878 -316 889 -314 901 c 1
 -306 910 -296 915 -286 915 c 0
 -273 915 -262 908 -255 894 c 1xe0
EndSplineSet
Validated: 1
EndChar

StartChar: u09dc
Encoding: 113 2524 109
Width: 705
GlyphClass: 3
Flags: W
HStem: -83 73<420 498> 35 59<335.603 505.01> 510 20G<50.0859 63> 610 63<-8 288 350 732>
VStem: 28 55<455.464 528.872> 288 62<335.076 610> 420 78<-83 -10> 599 58<191.974 376.799>
AnchorPoint: "Anchor-1" 463 -92 basechar 0
AnchorPoint: "Anchor-0" 325 675 basechar 0
LayerCount: 2
Fore
SplineSet
28 502 m 1
 28 518.990316027 42.1717351241 530 58 530 c 0
 68 530 76 526 83 519 c 1
 118 408 152.955758247 330.539705738 178 281 c 0
 220.124778565 197.673495049 311.480707165 94 425 94 c 0
 480 94 525 119 562 168 c 0
 587 201 599 240 599 285 c 0
 599 335 584 377 554 412 c 1
 509 361 480 330 467 319 c 0
 430 288 392.75740554 268.862172698 356 272 c 0
 310.75740554 275.862172698 288 316 288 382 c 2
 288 610 l 1
 -8 610 l 1
 -8 673 l 1
 732 673 l 1
 732 610 l 1
 350 610 l 1
 350 353 l 1
 355 340 363 333 374 333 c 0
 392 333 416 347 445 376 c 0
 471 402 496 433 521 470 c 0
 525 477 532 480 541 480 c 0
 555 480 568 474 579 463 c 0
 631 414 657 358 657 296 c 0
 657 264 653.740887319 227.467700189 637 190 c 0
 590.740887319 86.4677001895 519 36 433 35 c 0
 372.297093441 35 310.990624151 59.0062505662 269 87 c 0
 225 116 189 152 160 195 c 0
 109 271 65 373 28 502 c 1
420 -10 m 1
 498 -10 l 1
 498 -83 l 1
 420 -83 l 1
 420 -10 l 1
EndSplineSet
Validated: 33
LCarets2: 1 0
Ligature2: "'nukt' Nukta Forms in Bengali lookup 1 subtable" u09a1 u09bc
EndChar

StartChar: u09dd
Encoding: 114 2525 110
Width: 487
GlyphClass: 3
Flags: W
HStem: -78 73<166 244> 35 80<171.08 274.084> 610 63<-6 94 156 504>
VStem: 94 62<129.858 609> 166 78<-78 -5> 371 57<232.755 380.051>
AnchorPoint: "Anchor-1" 203 -101 basechar 0
AnchorPoint: "Anchor-0" 145 670 basechar 0
LayerCount: 2
Fore
SplineSet
156 176 m 2
 156 142.259276101 183.80497334 115 218 115 c 0
 243 115 268 128 293 154 c 0
 345 210 371 264 371 315 c 0
 371 345 363 367 348 382 c 0
 347 383 334 392 308 412 c 0
 305 416 304 420 304 425 c 0
 304 442.845207315 320.947127466 457 340 457 c 1
 399 416 428 371 428 321 c 0
 428 260 404 198 357 135 c 0
 308 69 256 35 201 35 c 0
 176 35 152 48 129 74 c 0
 106 100 94 128 94 160 c 2
 94 609 l 1
 -6 610 l 1
 -6 673 l 1
 504 673 l 1
 504 610 l 1
 156 610 l 1
 156 176 l 2
166 -5 m 1
 244 -5 l 1
 244 -78 l 1
 166 -78 l 1
 166 -5 l 1
EndSplineSet
Validated: 1
Ligature2: "'nukt' Nukta Forms in Bengali lookup 1 subtable" u09a2 u09bc
EndChar

StartChar: u09df
Encoding: 115 2527 111
Width: 495
GlyphClass: 3
Flags: W
HStem: 59 58<148 211> 610 63<-6 20 97 358 420 496>
VStem: 148 63<59 117> 358 62<115 610>
AnchorPoint: "Anchor-1" 384 31 basechar 0
AnchorPoint: "Anchor-0" 235 675 basechar 0
LayerCount: 2
Fore
SplineSet
-6 673 m 1
 496 673 l 1
 496 610 l 1
 420 610 l 1
 420 60 l 2
 420 43 408 34 385 34 c 0
 375 34 365 37 358 42 c 2
 32 278 l 2
 25 284 21 291 21 299 c 0
 21 306 24 314 29 321 c 1
 164 439 l 1
 20 610 l 1
 -6 610 l 1
 -6 673 l 1
97 610 m 1
 227 452 l 1
 233.905863371 435.42592791 233.911403331 420.183552498 223 412 c 2
 92 302 l 1
 358 115 l 1
 358 610 l 1
 97 610 l 1
148 117 m 1
 211 117 l 1
 211 59 l 1
 148 59 l 1
 148 117 l 1
EndSplineSet
Validated: 33
Ligature2: "'nukt' Nukta Forms in Bengali lookup 1 subtable" u09af u09bc
EndChar

StartChar: u09e0
Encoding: 116 2528 112
Width: 658
GlyphClass: 2
Flags: W
HStem: 505 57<102.73 218.89>
VStem: 406 62<123 272 362 491 562 686.367> 576 62<240 687.564>
LayerCount: 2
Fore
SplineSet
406 123 m 1
 406 491 l 1
 164 342 l 1
 406 123 l 1
576 671 m 2
 576 682 586 688 607 688 c 0
 628 688 638 682 638 671 c 2
 638 162 l 2
 638 145 625 137 601 137 c 0
 589 137 581 140 576 146 c 2
 468 272 l 1
 468 57 l 2
 468 39 455 31 428 31 c 0
 419 31 412 33 406 38 c 2
 95 328 l 2
 90 333 88 338 88 344 c 0
 88 354 93 364 102 373 c 1
 325 513 l 1
 280 562 l 1
 247 524 208 505 163 505 c 0
 105 505 60 531 25 583 c 0
 24 586 24 589 24 592 c 0
 24 611 36 620 60 620 c 0
 65 620 69 620 73 619 c 1
 95 581 125 562 162 562 c 0
 199 562 227 581 244 619 c 1
 255 630 269 635 285 632 c 0
 288 632 291 631 294 630 c 1
 377 542 l 1
 406 562 l 1
 406 669 l 2
 406 681 417 687 439 687 c 0
 458 687 468 682 468 671 c 2
 468 362 l 1
 576 240 l 1
 576 671 l 2
337 87 m 1
 354.05999937 90.7911109712 366 78.0632541931 366 63 c 0
 366 57 364 53 360 49 c 1
 263 -7 l 1
 416 -132 l 1
 419 -136 421 -140 421 -145 c 0
 421 -160 413 -167 396 -167 c 0
 393 -167 391 -167 388 -166 c 1
 210 -24 l 2
 205 -19 202 -13 202 -6 c 0
 202 2 205 9 211 15 c 1
 337 87 l 1
EndSplineSet
Validated: 33
EndChar

StartChar: u09e1
Encoding: 117 2529 113
Width: 548
GlyphClass: 2
Flags: W
HStem: -37 28<307.322 372.33> 282 58<162.306 283.844>
VStem: 42 59<614.303 677.122> 70 58<91.7183 247.331> 269 26<-126.102 -50.6293> 318 58<103.171 246.966> 386 28<-121.463 -50.7757> 481 28<-85.2798 0.985126> 518 58<189.151 345.709>
LayerCount: 2
Fore
SplineSet
364 102 m 1xdf80
 442.687548321 121.67188708 518 175.761590045 518 265 c 0
 518 278 516 291 512 304 c 0
 500 356 467 399 410 434 c 0
 379 452 326 474 252 500 c 0
 173 528 124 547 106 557 c 0
 62 581 41 613 42 652 c 0
 43 670 51 678 68 678 c 0
 88 678 100.974150202 671.052374178 101 655 c 0xef80
 101.043443019 628.022473617 125.663802303 608.668098849 149 597 c 0
 162 590 203 575 273 551 c 0
 362 520 430 488 476 453 c 0
 543 402 576 341 576 270 c 0
 576 248 573.811927103 224.43578131 566 201 c 0
 549.811927103 152.43578131 515 115 466 84 c 0
 454 77 442 70 430 64 c 1
 442 58 452 51 461 44 c 0
 493 20 509 -8 509 -42 c 0
 509 -79 492 -110 457 -131 c 0
 435 -145 411 -152 386 -154 c 1
 375 -152 369 -149 369 -144 c 0
 369 -142 370 -139 373 -135 c 0
 378.030395778 -121.585611258 386 -104.546659334 386 -88 c 0
 386 -58.5029515115 367.245688808 -37 339 -37 c 0
 312.857416412 -37 295 -58.1890628405 295 -83 c 0
 295 -94 298 -106 304 -118 c 0
 305 -121 305 -123 304 -125 c 0
 299.974269201 -129.025730799 296.515835441 -132 289 -132 c 0
 284 -132 281 -131 279 -128 c 0
 272 -113 269 -98 269 -83 c 0
 269 -39.3259925938 300.267300063 -9 340 -9 c 0
 385.276507433 -9 414 -45.0074459552 414 -89 c 0
 414 -99 412 -110 408 -122 c 1
 445.041317956 -111.416766298 481 -87.4678818611 481 -45 c 0
 481 -12 464 15 430 36 c 0
 422 41 411 45 397 51 c 1
 372 43 345 37 317 35 c 1
 294 39 282 45 282 53 c 0
 282 60 285 70 291 83 c 0
 309 124 318 154 318 174 c 0
 318 192 316.58727973 210.719215957 307 231 c 0
 290.58727973 265.719215957 259 282 220 282 c 0
 165.671821799 282 128 236.94825185 128 184 c 0
 128 161 135 137 146 112 c 1
 148.93472717 91.4569098109 133.28333563 80 115 80 c 0
 103 80 96 84 92 91 c 0
 77 121 70 152 70 184 c 0
 70 275.571916921 138.206910861 340 222 340 c 0
 317.26552963 340 376 265.924587382 376 172 c 0
 376 151 372 127 364 102 c 1xdf80
EndSplineSet
Validated: 33
EndChar

StartChar: u09e2
Encoding: 118 2530 114
Width: 1
GlyphClass: 2
Flags: W
HStem: 113 23<-192.104 -139.896>
VStem: -237 23<243.346 270.962> -226 23<41.016 102.255> -127 23<41.2682 100.618> -47 23<71.9329 144.95>
LayerCount: 2
Fore
SplineSet
-109 41 m 1xb8
 -77.2267361667 49.8259066204 -47 69.9253765204 -47 106 c 0
 -47 160.568428224 -98.0804246106 181.69347487 -153 200 c 0
 -185 211 -205 219 -212 223 c 0
 -230 233 -238 245 -237 261 c 0
 -237 268 -234 271 -227 271 c 0
 -219 271 -215 269 -214 262 c 0xd8
 -214 251.417706119 -204.624731903 242.849892761 -195 239 c 0
 -190 236 -173 230 -145 220 c 0
 -86.5333837867 199.954303013 -24 171.979949782 -24 108 c 0
 -24 55.6877278477 -73.6189627817 19.0839083065 -127 14 c 1
 -136 16 -142 19 -142 23 c 1
 -142 23 -127 55.8469672122 -127 69 c 0
 -127 94.5706522323 -143.328019095 113 -167 113 c 0
 -187.626766743 113 -203 94.5553482471 -203 74 c 0
 -203 65 -201 55 -196 45 c 0
 -194.651233991 40.9537019721 -197.317804648 38.5232930277 -199 36 c 1
 -202 34 -204 32 -208 32 c 0
 -213 32 -216 33 -217 36 c 0
 -223 48 -226 61 -226 74 c 0
 -226 110.782080989 -199.298035775 136 -166 136 c 0
 -128.079337564 136 -104 105.351466478 -104 69 c 0
 -104 61 -106 51 -109 41 c 1xb8
EndSplineSet
Validated: 33
EndChar

StartChar: u09e3
Encoding: 119 2531 115
Width: 4
GlyphClass: 2
Flags: W
HStem: -4 23<-339.637 -287.222> 113 23<-188.457 -135.027>
VStem: -385 23<126.623 153.962> -374 23<-80.4368 -14.8648> -275 23<-75.7318 -16.0302> -234 23<243.962 270.962> -223 23<71 101.684> -195 23<-45.0671 27.8955> -124 23<41.497 101.204> -44 23<71.6456 144.95>
LayerCount: 2
Fore
SplineSet
-257 -76 m 1xdbc0
 -225.226736167 -67.1740933796 -195 -47.0746234796 -195 -11 c 0
 -195 6 -200 21 -211 34 c 0xddc0
 -212 34 -213 35 -214 36 c 1
 -214 37 l 1
 -238.265016955 61.2650169551 -254.146881548 67.3822938492 -301 83 c 0
 -333 94 -353 101 -360 105 c 0
 -378 115 -386 128 -385 144 c 0
 -385 151 -382 154 -375 154 c 0
 -367 154 -363 152 -362 145 c 0
 -362 134.417706119 -352.624731903 125.849892761 -343 122 c 0
 -338 119 -321 113 -293 103 c 0
 -264 93 -241 82 -223 71 c 1
 -223 74 l 2xebc0
 -223 110.086398531 -194.884676413 136 -162 136 c 0
 -123.830726482 136 -101 105.660519252 -101 69 c 0
 -101 61 -102 51 -105 41 c 1
 -72.8729991032 49.9241669158 -44 69.3254823833 -44 106 c 0
 -44 160.568428224 -95.0804246106 181.69347487 -150 200 c 0
 -182 211 -201 219 -208 223 c 0
 -226 233 -235 245 -234 261 c 0
 -234 268 -231 271 -224 271 c 0
 -216 271 -212 269 -211 262 c 0xcdc0
 -211 250.682854724 -201.146511419 243.058604568 -191 239 c 0
 -186 236 -170 230 -142 220 c 0
 -83.5333837867 199.954303013 -21 171.979949782 -21 108 c 0
 -21 76 -35 52 -64 34 c 0
 -82 23 -103 16 -124 14 c 1
 -133 16 -138 19 -138 23 c 1
 -138 23 -124 54.6281767573 -124 69 c 0
 -124 95.432631817 -138.846461256 113 -163 113 c 0
 -184.188926613 113 -200 95.1414318733 -200 74 c 0
 -200 66 -198 57 -194 48 c 1
 -179 31 -172 12 -172 -9 c 0
 -172 -61.3122721523 -221.618962782 -97.9160916935 -275 -103 c 1
 -284 -101 -290 -98 -290 -94 c 1
 -290 -94 -275 -61.1530327878 -275 -48 c 0
 -275 -22.8591852839 -290.697118514 -4 -314 -4 c 0
 -335.188926613 -4 -351 -21.8585681267 -351 -43 c 0
 -351 -52 -349 -62 -344 -72 c 0
 -343 -75 -344 -77 -345 -79 c 0
 -345 -82.8939147021 -352.360136504 -85 -356 -85 c 0
 -361 -85 -364 -84 -365 -81 c 0
 -371 -69 -374 -56 -374 -43 c 0
 -374 -5.76589904801 -346.707896137 19 -313 19 c 0
 -274.830726482 19 -252 -11.3394807479 -252 -48 c 0
 -252 -56 -254 -66 -257 -76 c 1xdbc0
EndSplineSet
Validated: 33
EndChar

StartChar: u09e6
Encoding: 120 2534 116
Width: 537
GlyphClass: 2
Flags: W
HStem: 117 64<172.371 331.029>
VStem: 49 60<246.053 413.29> 448 63<300.054 469.337>
LayerCount: 2
Fore
SplineSet
448 388 m 0
 448 474.466433714 390.634948058 532.883368436 304 531 c 0
 214.81788466 528.713279094 152.897843077 470.69479801 124 401 c 0
 114 378 109 353 109 328 c 0
 109 240.066098326 168.356748478 181 250 181 c 0
 327.234083156 181 392.407948263 239.614130246 423 294 c 0
 440 324 448 355 448 388 c 0
49 329 m 0
 49 429.409143293 108.859121936 509.802053906 173 552 c 0
 240.335549795 595.163813971 329.204172139 608.735283551 404 569 c 0
 420 561 435 551 449 538 c 0
 491 500 511 453 511 397 c 0
 511 384 510 371 507 358 c 0
 482 227 411 149 295 123 c 0
 278 119 261 117 245 117 c 0
 187 117 139 138 102 181 c 0
 67 222 49 271 49 329 c 0
EndSplineSet
Validated: 33
EndChar

StartChar: u09e7
Encoding: 121 2535 117
Width: 456
GlyphClass: 2
Flags: W
HStem: 49 50<149.35 302.459>
VStem: 50 54<601.045 673.721> 356 56<164.627 352.215>
LayerCount: 2
Fore
SplineSet
411 244 m 0
 402 160 378 105 339 78 c 0
 320 65 301 57 284 54 c 0
 266 51 231 49 176 49 c 0
 158 49 128 65 87 98 c 1
 85 105 84 110 84 116 c 0
 84 136 96 145 120 144 c 0
 121 144 123 143 124 143 c 0
 149 114 185 99 234 99 c 0
 259 99 279 104 292 112 c 0
 336 142 358 204 356 296 c 1
 356 302 l 1
 345 366 280.390586482 425.888901312 169 493 c 0
 119.390586482 522.888901312 91 552 78 568 c 0
 58 592 49 621 50 655 c 1
 50 657 l 1
 52 668 61 674 76 674 c 0
 93 674 104.175163362 668.023918753 104 657 c 0
 103.45314291 622.583509712 128.839297405 592.571420069 153 575 c 2
 260 502 l 1
 362 430 412 352 412 267 c 0
 412 260 412 252 411 244 c 0
EndSplineSet
Validated: 33
EndChar

StartChar: u09e8
Encoding: 122 2536 118
Width: 479
GlyphClass: 2
Flags: W
VStem: 80 55<612.85 658.486> 315 59<329.459 441.793>
LayerCount: 2
Fore
SplineSet
83 657 m 1
 90 671 101 678 118 678 c 0
 130 678 138 672 142 661 c 1
 137 650 135 642 135 636 c 0
 135 628 139 622 148 617 c 0
 209 587 253 560 281 538 c 0
 341 490 372 439 374 384 c 0
 375.614570973 335.562870802 347.567600065 294.57917147 314 273 c 0
 279 249 236 234 184 229 c 1
 486 -16 l 2
 490 -20 492 -25 492 -30 c 0
 492 -46 482 -54 461 -54 c 0
 452 -54 442 -52 433 -46 c 2
 53 259 l 1
 46 267 42 275 42 283 c 0
 42 300 52 308 72 308 c 0
 76 308 80 307 84 306 c 0
 107 293 135 286 168 286 c 0
 207 286 241 295 271 312 c 0
 301 329 315 353 315 383 c 0
 315 397 312.8162023 413.041013024 304 427 c 0
 276.8162023 470.041013024 241.948426515 503.779031292 200 525 c 2
 115 568 l 1
 92 582 80 602 80 628 c 0
 80 637 81 646 83 657 c 1
EndSplineSet
Validated: 33
EndChar

StartChar: u09e9
Encoding: 123 2537 119
Width: 645
GlyphClass: 2
Flags: W
HStem: 74 59<300.424 445.337> 588 56<330.617 467.672>
VStem: 40 57<417.582 556.834> 247 57<429.891 561.087> 556 55<257.319 478.215>
LayerCount: 2
Fore
SplineSet
247 488 m 0
 247 572.209875275 295.70256099 641.966732333 375 644 c 0
 535.726591793 644 605.255048532 526.02867346 611 369 c 0
 614.327966035 299.11271327 586.914748209 228.872122313 555 181 c 0
 509 110 450 74 381 74 c 0
 324 74 267 101 207 156 c 0
 147 210 106 275 81 351 c 0
 58 420 45 482 40 536 c 1
 45 551 54 558 67 558 c 0
 78 558 89 552 97 540 c 1
 111.746594957 422.027240347 124.041016007 376.709493205 171 293 c 0
 210.842651588 224.935470204 286.023209499 133 376 133 c 0
 397 133 418 139 439 150 c 0
 504.306594866 185.165089543 558.357167213 264.356144252 556 361 c 1
 556 364 l 1
 550 513 491 588 380 588 c 2
 376 588 l 1
 327 580 304 548 304 493 c 0
 304 477 306 459 310 439 c 1
 310 422 299 414 278 414 c 0
 266 414 259 419 255 429 c 0
 249 448 247 467 247 488 c 0
EndSplineSet
Validated: 33
EndChar

StartChar: u09ea
Encoding: 124 2538 120
Width: 476
GlyphClass: 2
Flags: W
HStem: 43 65<149.845 304.272> 335 58<167.297 303.736> 617 61<190.603 333.115>
VStem: 42 64<150.277 276.865> 52 68<428.758 556.471> 369 73<168.781 300.207 458.746 581.819>
LayerCount: 2
Fore
SplineSet
369 238 m 0xf4
 369 299.020737084 323.301137752 336.918216296 260 335 c 0
 258 335 257 335 255 335 c 0
 156 328 106 287 106 213 c 0
 106 147.198266607 159.949131456 108 225 108 c 0
 302.874925135 108 369 163.047101713 369 238 c 0xf4
42 194 m 0
 42 264.756704953 87.7286756985 324.029132354 135 355 c 1
 80 386 52 429 52 484 c 0xec
 52 533 73 578 114 618 c 0
 155 658 204 678 260 678 c 0
 358.795447214 678 436 626.606744357 436 532 c 0
 436 469 406 417 347 377 c 1
 410 347 442 302 442 241 c 0
 442 186 417 138 367 98 c 0
 321 61 274 43 225 43 c 0
 205 43 186 46 165 51 c 0
 83 73 42 121 42 194 c 0
372 515 m 0
 372 571.752383136 328.753187759 620.025971992 270 618 c 0
 269 618 267 617 266 617 c 0
 230 614 198 603 169 582 c 0
 136 558 120 528 120 493 c 0
 121.839740866 430.448810541 161.021760936 393 224 393 c 0
 280.412014658 393 333.196257052 424.163184469 356 461 c 0
 367 478 372 495 372 515 c 0
EndSplineSet
Validated: 33
EndChar

StartChar: u09eb
Encoding: 125 2539 121
Width: 537
GlyphClass: 2
Flags: W
HStem: 36 61<227.013 361.192> 446 54<428.125 503.25>
VStem: 32 58<225.052 404.645> 271 60<198.748 362.862> 299 57<562.631 605>
LayerCount: 2
Fore
SplineSet
299 605 m 1xe8
 255 590 211 553 166 495 c 0
 116 430 90 368 90 308 c 0
 90 287 94 268 101 249 c 0
 131.488872729 161.120308018 220.944842972 97 337 97 c 0
 346 97 354 97 362 98 c 1
 301 154 271 217 271 288 c 0xf0
 271 370 312 433 393 476 c 1
 359 503 339 521 332 529 c 0
 311 552 300 578 299 605 c 1xe8
335 671 m 0
 355.075623912 670.516250026 365 660 365 643 c 0
 365 640 364 637 362 633 c 0
 358 626 356 618 356 610 c 0xe8
 356 560.661215611 432.59560426 510.657054978 477 500 c 0
 496 495 505 484 505 466 c 0
 505 459 503 452 497 446 c 1
 446 442 405 425 375 393 c 0
 345 361 331 324 331 282 c 0
 331 199.78698085 383.062629384 144.998251364 444 117 c 0
 457 109 464 99 464 88 c 0
 464 79 461 72 453 67 c 0
 419 46 380 36 337 36 c 0
 273 36 212 57 153 97 c 0
 72 152 32 220 32 300 c 0
 32 386 68 470 139 552 c 0
 207 631 272.075623912 672.516250026 335 671 c 0
EndSplineSet
Validated: 33
EndChar

StartChar: u09ec
Encoding: 126 2540 122
Width: 595
GlyphClass: 2
Flags: W
HStem: 78 57<260.978 409.869> 339 57<288.779 368.963> 504 33G<57 71.5 490.5 497.5>
VStem: 38 53<345.448 536.67> 226 62<397.098 656.466> 512 55<264.099 446.579>
LayerCount: 2
Fore
SplineSet
288 641 m 2
 288 414 l 1
 295 402 304 396 317 396 c 0
 351 396 402 435 471 513 c 0
 479 520 487 524 494 524 c 0
 501 524 509 520 517 513 c 0
 551 476 567 427 567 367 c 0
 567 295 545 231 502 172 c 0
 457 110 403 79 341 78 c 0
 239.510112273 78 158.03884728 148.13104852 115 216 c 0
 64 297 38 383 38 475 c 0
 38 489 39 503 41 517 c 0
 43 531 50 537 64 537 c 0
 79 537 89 530 92 515 c 1
 91 506 91 496 91 486 c 0
 91 420 104 357 131 297 c 0
 163.200218769 225.820569037 247.83055465 135 341 135 c 0
 389 135 430 162 465 216 c 0
 496 264 512 313 512 363 c 0
 512 395 506 423 494 448 c 1
 415 375 353 339 309 339 c 0
 272 339 245 360 226 403 c 1
 226 641 l 2
 226 652 235 657 256 657 c 0
 277 657 288 652 288 641 c 2
EndSplineSet
Validated: 1
EndChar

StartChar: u09ed
Encoding: 127 2541 123
Width: 473
GlyphClass: 2
Flags: W
HStem: 38 53<425.588 471.994> 309 60<122.698 312.9>
VStem: 41 60<389.774 516.605> 354 55<102.656 319 380 554.193>
LayerCount: 2
Fore
SplineSet
275 612 m 1
 167.494280449 605.41801717 101 532.305591693 101 418 c 1
 111 385 149 369 215 369 c 0
 237 369 265 371 299 375 c 0
 332 379 350 380 355 380 c 1
 350 540 324 617 278 612 c 1
 275 612 l 1
475 72 m 0
 475 54.0322460821 456.249795406 38 437 38 c 0
 400.610754355 38 379.094727248 55.2631818788 368 83 c 0
 358 106 353 142 353 189 c 0
 353 200 353 222 354 257 c 1
 354 319 l 1
 217 309 l 1
 113 309 55 341 43 405 c 0
 41 417 41 429 41 441 c 0
 41 500 64 552 110 597 c 0
 156 642 210 666 271 671 c 0
 321.112281516 674.23305042 355.208694441 650.898138894 374 616 c 0
 394.042037122 577.45762092 414.932948458 481.600020791 413 398 c 2
 409 225 l 1
 409 134 424 89 453 91 c 0
 468 91 475 85 475 72 c 0
EndSplineSet
Validated: 33
EndChar

StartChar: u09ee
Encoding: 128 2542 124
Width: 651
GlyphClass: 2
Flags: W
HStem: 38 57<157.376 247.887> 398 58<159.483 341.217> 617 56<9.14232 55.9649>
VStem: 63 58<129.892 370.438 427 470> 71 56<428.964 606.524> 368 58<227.801 369.674>
LayerCount: 2
Fore
SplineSet
368 309 m 0xf4
 368 367.748883179 332.283146694 398 272 398 c 0
 233 398 182 386 120 362 c 1
 120 279 120 234 121 226 c 0
 125 170 137 130 157 105 c 0
 165 98 175 95 186 95 c 0
 222 95 261 119 304 168 c 0
 347 216 368 263 368 309 c 0xf4
43 673 m 0
 115.94869414 673 127 613.685112732 127 531 c 0xec
 127 504 125 469 122 427 c 1
 187 447 238 456 274 456 c 0
 320 456 357 443 385 418 c 1
 600 506 l 1
 620.527319855 509.158049208 630 497.760899595 630 477 c 0
 630 467 627 459 620 452 c 1
 418 369 l 1
 423 352 426 335 426 316 c 0
 426 249 400 186 348 127 c 0
 295 66 237 37 172 38 c 1
 170 38 l 1
 110.193934954 52.4359467353 93.8099492175 79.654619362 76 141 c 0
 67 170 63 212 63 267 c 1xf4
 71 499 l 1xec
 71 579 56.9186616047 616.342757691 28 617 c 0
 12.9186616047 617.342757691 6 626 6 639 c 0
 6 656.409315774 24.2342428127 673 43 673 c 0
EndSplineSet
Validated: 33
EndChar

StartChar: u09ef
Encoding: 129 2543 125
Width: 601
GlyphClass: 2
Flags: W
HStem: 282 58<159.306 280.767>
VStem: 40 58<614.303 677.122> 67 58<91.7183 247.331> 315 59<102.734 248.541> 515 58<188.533 345.709>
LayerCount: 2
Fore
SplineSet
361 102 m 1xb8
 439.687548321 121.67188708 515 175.761590045 515 265 c 0
 515 278 513 291 509 304 c 0
 497 356 464 399 407 434 c 0
 376 452 324 474 250 500 c 0
 171 528 122 547 104 557 c 0
 60 581 39 613 40 652 c 0
 41 670 48 678 65 678 c 0
 85 678 97.9741502022 671.052374178 98 655 c 0xd8
 98.0434430193 628.022473617 122.663802303 608.668098849 146 597 c 0
 159 590 201 575 271 551 c 0
 360 520 427 488 473 453 c 0
 540 402 573 341 573 270 c 0
 573 248 571.129832787 224.336788184 563 201 c 0
 531.884524683 111.682633239 427.546044044 43.4108180773 314 35 c 1
 291 39 279 46 279 57 c 0
 279 62 282 68 288 76 c 1
 294 93 300 110 306 127 c 0
 312 144 315 160 315 174 c 0
 315 192 313.58727973 210.719215957 304 231 c 0
 287.58727973 265.719215957 256 282 217 282 c 0
 162.671821799 282 125 236.94825185 125 184 c 0
 125 161 132 137 143 112 c 1
 145.93472717 91.4569098109 130.28333563 80 112 80 c 0
 100 80 93 84 89 91 c 0
 74 121 67 152 67 184 c 0
 67 275.571916921 135.206910861 340 219 340 c 0
 313.553261314 340 374 264.785334936 374 172 c 0
 374 151 369 127 361 102 c 1xb8
EndSplineSet
Validated: 33
EndChar

StartChar: u09f0
Encoding: 130 2544 126
Width: 473
GlyphClass: 2
Flags: W
HStem: 610 63<-6 349 411 487>
VStem: 349 62<128 232 288 500 564 610>
AnchorPoint: "Anchor-1" 390 39 basechar 0
AnchorPoint: "Anchor-0" 248 669 basechar 0
LayerCount: 2
Fore
SplineSet
487 610 m 1
 411 610 l 1
 411 62 l 1
 407 47 395 39 376 39 c 0
 365 39 356 42 349 49 c 2
 38 332 l 2
 32 337 30 343 30 352 c 0
 30 363 33 371 40 375 c 2
 349 564 l 1
 349 610 l 1
 -6 610 l 1
 -6 673 l 1
 487 673 l 1
 487 610 l 1
349 288 m 1
 349 500 l 1
 215 416 l 1
 349 288 l 1
349 128 m 1
 349 232 l 1
 180 395 l 1
 104 347 l 1
 349 128 l 1
EndSplineSet
Validated: 1
EndChar

StartChar: u09f1
Encoding: 131 2545 127
Width: 480
GlyphClass: 2
Flags: W
HStem: 610 63<-6 349 411 487>
VStem: 349 62<128 500 564 610>
LayerCount: 2
Fore
SplineSet
349 128 m 1
 349 500 l 1
 104 347 l 1
 349 128 l 1
-6 673 m 1
 487 673 l 1
 487 610 l 1
 411 610 l 1
 411 62 l 1
 407 47 395 39 376 39 c 0
 365 39 356 42 349 49 c 2
 38 332 l 2
 32 337 30 343 30 352 c 0
 30 363 33 371 40 375 c 2
 349 564 l 1
 349 610 l 1
 -6 610 l 1
 -6 673 l 1
65 197 m 1
 200 68 l 1
 180 47 l 1
 40 180 l 1
 65 197 l 1
EndSplineSet
Validated: 1
EndChar

StartChar: u09f2
Encoding: 132 2546 128
Width: 566
GlyphClass: 2
Flags: W
VStem: 105 268
LayerCount: 2
Fore
SplineSet
372 -165 m 6
 378.57651589 -171.57651589 376.104880411 -189.685358767 373 -199 c 4
 364.310384408 -217.82750045 353.47359081 -218.439933981 342 -208 c 6
 120 -6 l 5
 105 78 l 5
 372 -165 l 6
EndSplineSet
Validated: 33
EndChar

StartChar: u09f3
Encoding: 133 2547 129
Width: 655
GlyphClass: 2
Flags: W
HStem: -1 46<377.552 562.231> 371 33<198 282 339 424> 535 21G<12.2308 69> 640 40<103.86 260.26>
VStem: 13 56<535 561> 284 55<84.3515 370 407 617.263> 600 53<80.1092 186.414>
LayerCount: 2
Fore
SplineSet
478 45 m 0
 549.947684553 45 600 75.6262365432 600 143 c 0
 600 161 592 176 577 188 c 1
 534 209 l 1
 550 256 l 1
 570 248 590 236 609 219 c 0
 638 193 653 164 653 134 c 0
 653 39.8002439656 577.364789416 -1 478 -1 c 0
 363.49394784 -1 285.121564532 57.8435467734 284 170 c 2
 282 370 l 1
 198 371 l 1
 198 404 l 1
 284 404 l 1
 284 562 l 2
 284 582 279 598 271 609 c 0
 258 630 231 640 188 640 c 0
 106.933932799 640 69 611.426076114 69 535 c 1
 13 535 l 1
 12 561 l 1
 37 629 l 1
 63 663 113 680 188 680 c 0
 276.955351725 680 339 631.641351156 339 544 c 2
 339 407 l 1
 424 404 l 1
 424 371 l 1
 339 370 l 1
 339 160 l 1
 345 130 353 103 363 77 c 1
 384 56 423 45 478 45 c 0
EndSplineSet
Validated: 1
EndChar

StartChar: u09f4
Encoding: 134 2548 130
Width: 338
GlyphClass: 2
Flags: W
LayerCount: 2
Fore
SplineSet
241 288 m 1
 258.391079568 305.391079568 305.797739405 283.183561629 284 259 c 2
 83 36 l 1
 0 21 l 1
 241 288 l 1
EndSplineSet
Validated: 33
EndChar

StartChar: u09f5
Encoding: 135 2549 131
Width: 641
GlyphClass: 2
Flags: W
HStem: 282 58<170.624 268.58>
LayerCount: 2
Fore
SplineSet
595 774 m 5
 594.795898438 768.760742188 537.0888021 297.509766674 537 292 c 0
 536.935546875 288.000976562 509.657543288 215.945259726 509 212 c 0
 501 164 470.822392248 115.120292975 442 89 c 0
 410 60 373 44 331 40 c 1
 302.065039136 46.2902088836 300.956637339 59.1622829298 305 81 c 0
 315.700526975 138.79226357 308.259939772 191.539669753 289 231 c 0
 271.939414838 265.95422793 246 282 215 282 c 0
 163.038730221 282 144.090991307 224.590539119 156 171 c 0
 160 153 167 133 177 112 c 0
 182.266129194 93.5685478196 172.725945167 80 157 80 c 0
 148 80 142 84 138 91 c 0
 112.697387347 141.605225305 92.6732565894 216.514827326 120 278 c 0
 139 319 168 340 209 340 c 0
 265.282055624 340 309.742188225 294.330076493 329 251 c 0
 341 224 348 197 351 172 c 2
 359 107 l 1
 392 118 414.383121647 136.972696781 428 159 c 0
 448.383121647 191.972696781 467.665539747 197.943280185 461 238 c 0
 460.794921875 239.232421875 594.991210938 772.921875 595 774 c 5
EndSplineSet
Validated: 33
EndChar

StartChar: u09f6
Encoding: 136 2550 132
Width: 641
GlyphClass: 2
Flags: W
VStem: 244.168 46.2769<204.277 296.15> 385 33<642.344 661.636> 409.866 63.435<307.925 562.449>
LayerCount: 2
Fore
SplineSet
409.866000579 388.128963945 m 0xa0
 409.866000579 482.256939231 399.110608032 559.929279788 385 654 c 1
 418 690 l 1xc0
 440 636 459 544 473 412 c 0
 473.201010127 408.783837972 473.301007576 405.527270872 473.301007576 402.229283473 c 0xa0
 473.301007576 346.906611198 442.969369004 282.17657593 418 238 c 0xc0
 376 164 321 108 253 71 c 0
 213.583984068 49.8499426707 177.864868343 37.9421358586 145.842652825 37.9421358586 c 0
 144.555798281 37.9421358586 143.274914006 37.9613662422 142 38 c 2
 140 38 l 1
 118.713349421 48.6433252894 136.131860085 68.4049355998 146 80 c 2
 186 127 l 1
 210 157 229.448090314 189.867032129 241 226 c 0
 243.623338661 234.205484126 244.167570351 241.625413912 244.167570351 247.956187913 c 0
 244.167570351 264.112638741 237.86140765 271.13859235 230 279 c 1
 219 282 l 1
 203.888598387 283.888925202 183.570636049 275.713757366 172 268 c 0
 130 238 100 190 82 126 c 0
 76.1799975206 112.904994421 63.4374737186 99 47 99 c 0
 41 100 38 103 39 109 c 0
 39 110 40 110 40 111 c 0
 58.044641222 178.667404583 101.472384849 248.034594061 146 289 c 0
 181 321.236842105 212.606648199 337.355263158 240.038580697 337.355263158 c 0
 242.389889197 337.355263158 244.710526316 337.236842105 247 337 c 0
 249 337 250 337 251 337 c 0
 275.917900678 332.60272341 290.444444444 311.967226441 290.444444444 280.333333333 c 0
 290.444444444 264.374835832 286.570790447 253.712371341 282 240 c 0
 267 192 241 145 204 98 c 1
 296.439227232 118.221080957 370.741397882 195.48535935 400 277 c 0
 410.011795956 304.892923467 409.866000579 343.034477266 409.866000579 388.128963945 c 0xa0
EndSplineSet
Validated: 33
EndChar

StartChar: u09f7
Encoding: 137 2551 133
Width: 351
GlyphClass: 2
Flags: W
VStem: 167 48<17 569>
LayerCount: 2
Fore
SplineSet
215 569 m 1
 215 -39 l 1
 167 17 l 1
 167 624 l 1
 215 569 l 1
EndSplineSet
Validated: 1
EndChar

StartChar: u09f8
Encoding: 138 2552 134
Width: 316
GlyphClass: 2
Flags: W
VStem: 14 49<68.5671 400> 258 50<298.142 547.059>
LayerCount: 2
Fore
SplineSet
14 82 m 1
 14 477 l 1
 50.1541142937 518.318987764 88.9606814852 507.087139491 114 473 c 2
 233 311 l 2
 242 298 250 293 254 298 c 0
 256 301 257 306 258 314 c 1
 257 543 l 1
 281.277704217 558.709102729 299.378819039 561.174133364 306 538 c 1
 308 208 l 1
 302 163 291 148 275 161 c 0
 270 165 264 173 257 183 c 2
 87 407 l 1
 83 415 78 418 72 413 c 1
 65 405 l 1
 62 400 l 1
 63 81 l 1
 43.5690711494 35.0723499895 28.5622570009 50.4484431647 14 82 c 1
EndSplineSet
Validated: 33
EndChar

StartChar: u09f9
Encoding: 139 2553 135
Width: 274
GlyphClass: 2
Flags: W
HStem: 196 68<121 202.4> 408 52<73.5759 183.397>
VStem: 209 57<274.236 383.233>
LayerCount: 2
Fore
SplineSet
209 333 m 2
 209 370.507559648 173.955485736 408 131 408 c 0
 89 407 64 389 57 354 c 2
 53 332 l 1
 61 298 l 1
 68 277 88 267 121 265 c 2
 138 264 l 1
 178 265 201 275 207 295 c 0
 208 300 209 309 209 325 c 2
 209 333 l 2
131 460 m 0
 189 459 229 436 250 392 c 0
 260 372 266 350 266 325 c 0
 267.593294188 291.540822058 252.591154578 259.104176661 235 239 c 0
 211 210 178 196 135 196 c 0
 72.0766116091 196 34.771712502 221.807514281 15 267 c 0
 -1.19601742267 301.70575162 -1.80189970156 350.105464206 17 386 c 0
 23 396 30 407 38 417 c 0
 64 447 95 461 131 460 c 0
EndSplineSet
Validated: 33
EndChar

StartChar: u09fa
Encoding: 140 2554 136
Width: 383
GlyphClass: 2
Flags: W
HStem: 363 57<32.1816 179.188> 468 102<46.0712 152.374>
VStem: 35 129<480.461 557.119> 264 62<571.393 786.194>
LayerCount: 2
Fore
SplineSet
98 570 m 0
 133.108350543 570 164 550.790742155 164 518 c 0
 164 485.382532991 130.891046373 468 97 468 c 0
 64.5885022123 468 35 486.678010047 35 518 c 0
 35 550.343833365 63.9746728032 570 98 570 c 0
280 817 m 0
 310 800 326 757 326 688 c 0
 326 587.754229371 285.311705048 447.704962508 231 405 c 0
 192.659721187 374.853272553 150 363 108 363 c 0
 79 363 51 369 20 382 c 1
 15 391 12 399 12 406 c 0
 12 419 22 428 41 435 c 1
 82 425 110 420 124 420 c 0
 154 420 178 434 197 462 c 0
 230.550432321 511.442742368 264 624.341631395 264 706 c 0
 264 745 257 771 243 781 c 1
 240.368193949 809.949866563 244.979205696 819.14434245 275 817 c 0
 277 817 278 817 280 817 c 0
EndSplineSet
Validated: 33
EndChar

StartChar: zwnj
Encoding: 146 8204 137
Width: 0
GlyphClass: 2
Flags: W
VStem: -13 25<12 683>
LayerCount: 2
Fore
SplineSet
-12 684 m 1
 13 683 l 1
 12 12 l 1
 -13 12 l 1
 -12 684 l 1
EndSplineSet
Validated: 1
EndChar

StartChar: zwj
Encoding: 147 8205 138
Width: 0
GlyphClass: 2
Flags: W
HStem: 532 21G<-131 -79.2603 87.375 127>
VStem: -19 39<15 601>
LayerCount: 2
Fore
SplineSet
-19 10 m 1
 -19 605 l 1
 -102 532 l 1
 -131 542 l 1
 -34 630 l 1
 -146 688 l 1
 -126 723 l 1
 0 645 l 1
 93 723 l 1
 123 698 l 1
 20 625 l 1
 127 557 l 1
 118 537 l 1
 20 601 l 1
 20 15 l 1
 -19 10 l 1
EndSplineSet
Validated: 1
EndChar

StartChar: quotedblleft
Encoding: 148 8220 139
Width: 518
GlyphClass: 2
Flags: W
HStem: 622 48<142.33 208.926 330.972 417.926>
VStem: 72 48<670.413 747.1> 281 48<670.413 747.1>
LayerCount: 2
Fore
SplineSet
135 623 m 1
 93 633 72 657 72 695 c 0
 72 710 76 725 83 743 c 0
 100 783 129 818 172 848 c 1
 192.379100202 849.35860668 205 841.938357425 205 824 c 0
 205 819 204 815 203 810 c 1
 191 804 175 789 155 765 c 0
 132 737 120 715 120 697 c 0
 120 684 127 675 142 670 c 0
 149 669 158 669 170 670 c 0
 176 670 184 671 191 672 c 1
 203 667 209 658 209 646 c 0
 209 637 205 630 196 625 c 1
 176 621 159 621 146 622 c 2
 135 623 l 1
344 623 m 1
 302 633 281 657 281 695 c 0
 281 710 285 725 292 743 c 0
 309 783 338 818 381 848 c 1
 401.379100202 849.35860668 414 841.938357425 414 824 c 0
 414 819 413 815 412 810 c 1
 400 804 384 789 364 765 c 0
 341 737 329 715 329 697 c 0
 329 684 336 675 351 670 c 0
 358 669 367 669 379 670 c 0
 385 670 393 671 400 672 c 1
 412 667 418 658 418 646 c 0
 418 637 414 630 405 625 c 1
 385 621 369 621 356 622 c 2
 344 623 l 1
EndSplineSet
Validated: 33
EndChar

StartChar: quotedblright
Encoding: 149 8221 140
Width: 516
GlyphClass: 2
Flags: W
HStem: 756 49<101.356 167.67 310.356 376.67>
VStem: 190 48<678.91 755.812> 399 49<677.355 755.812>
LayerCount: 2
Fore
SplineSet
437 683 m 0
 420 642 390 607 347 578 c 1
 325.035920155 575.071456021 313 582.619268544 313 603 c 0
 313 607 314 611 315 616 c 1
 327 621 344 636 365 661 c 0
 388 689 399 712 399 729 c 0
 399 742 392 751 377 756 c 0
 370 757 360 757 348 756 c 0
 342 756 335 755 328 754 c 1
 316 759 310 767 310 779 c 0
 310 789 315 796 324 801 c 1
 343 805 360 806 373 805 c 0
 377 805 380 804 383 803 c 0
 426 793 448 769 448 732 c 0
 448 717 444 700 437 683 c 0
228 683 m 0
 211 642 181 607 138 578 c 1
 116.035920155 575.071456021 104 582.619268544 104 603 c 0
 104 607 105 611 106 616 c 1
 118 621 134 636 155 661 c 0
 178 689 190 712 190 729 c 0
 190 742 183 751 168 756 c 0
 161 757 151 757 139 756 c 0
 133 756 126 755 119 754 c 1
 107 759 101 767 101 779 c 0
 101 789 106 796 115 801 c 1
 134 805 151 806 164 805 c 0
 168 805 171 804 174 803 c 0
 217 793 238 769 238 732 c 0
 238 717 235 700 228 683 c 0
EndSplineSet
Validated: 33
EndChar

StartChar: euro
Encoding: 151 8364 141
Width: 519
GlyphClass: 2
Flags: W
HStem: 288 24<6 183 261 494> 386 24<6 188 270 493> 574 53<414.391 480.849>
LayerCount: 2
Fore
SplineSet
270 410 m 1
 493 410 l 1
 493 385 l 1
 256 386 l 1
 249 374 l 1
 244 330 l 1
 248 318 253 304 260 289 c 1
 251 312 l 1
 494 312 l 1
 494 287 l 1
 261 288 l 1
 270 269 280 248 293 225 c 0
 316 184 375 129 469 61 c 1
 464 12 l 1
 455 10 437 18 409 37 c 0
 395 46 378 58 359 73 c 0
 266.558472996 144.358371723 236.495533667 189.867351618 194 287 c 1
 5 288 l 1
 6 314 l 1
 183 313 l 1
 176 330 l 1
 176 347 182 368 193 394 c 1
 188 386 l 1
 4 386 l 1
 6 409 l 1
 200 410 l 1
 207 424 215 438 225 454 c 0
 291 563 376 620 479 627 c 1
 493 574 l 1
 454 571 415 556 376 532 c 0
 343 511 308 471 270 410 c 1
EndSplineSet
Validated: 33
EndChar

StartChar: uni25CC
Encoding: 153 9676 142
Width: 776
GlyphClass: 2
Flags: W
HStem: -21 21G<312.5 361.085 511.667 561>
LayerCount: 2
Fore
SplineSet
148 313 m 1
 188 400 244 464 316 504 c 1
 353 450 l 1
 292 408 243 357 207 298 c 1
 148 313 l 1
498 521 m 1
 585 481 648 425 688 353 c 1
 634 315 l 1
 592 376 541 425 482 461 c 1
 498 521 l 1
356 -21 m 1
 269 19 206 75 166 147 c 1
 220 184 l 1
 262 123 312 74 371 38 c 1
 356 -21 l 1
694 183 m 1
 654 96 597 33 525 -8 c 1
 489 46 l 1
 550 88 598 139 634 198 c 1
 694 183 l 1
EndSplineSet
Validated: 1
EndChar

StartChar: u0981.salt
Encoding: 156 -1 144
Width: 0
GlyphClass: 2
Flags: W
HStem: 694 35<-166.831 -78.6589> 749 62<-157.176 -84.4766>
VStem: -221 34<748.739 789.646> -58 37<750.25 791.909>
LayerCount: 2
Fore
SplineSet
-83 779 m 0
 -81.5061642502 759.580135252 -100.060781062 749 -123 749 c 0
 -152.48371265 749 -172.173429241 778.826570759 -149 802 c 0
 -142 808 -133 811 -123 811 c 0
 -100.351744867 811 -83 801.383470557 -83 779 c 0
-117 694 m 0
 -175.02018363 694 -221 720.078013206 -221 778 c 1
 -216 786 -212 790 -207 790 c 0
 -202 790 -195 787 -187 781 c 1
 -182.761936055 755.571616331 -157.433908268 726.142371976 -126 729 c 0
 -79.8185955876 730.924225184 -72.9648369256 749.656824609 -58 786 c 1
 -51 790 -46 792 -41 792 c 0
 -33 792 -26 787 -21 778 c 1
 -27 735 -55 707 -104 695 c 0
 -109 695 -113 694 -117 694 c 0
EndSplineSet
Validated: 33
EndChar

StartChar: u099c_u09cd_u099e.akhn
Encoding: 157 -1 145
Width: 858
GlyphClass: 3
Flags: W
HStem: 28 52<296.089 444.015> 227 56<660.706 728.447> 508 20G<44 54.5> 610 63<-13 292 391 859>
VStem: 23 59<412.65 526.123> 202 61<350.441 504.637> 524 66<209.187 291.967> 749 59<133.519 213.133 303.373 381.121>
AnchorPoint: "Anchor-0" 441 675 basechar 0
AnchorPoint: "Anchor-1" 455 41 basechar 0
LayerCount: 2
Fore
SplineSet
747 173 m 0
 747 205.700904227 720.646394592 227 683 227 c 1
 668 232 660 242 660 255 c 0
 660 269 666.545491738 279.979219905 682 283 c 0
 713.348124015 289.127389332 749 309.45481029 749 346 c 0
 749 373 729 388 690 390 c 1
 656 383 632 371 615 353 c 1
 602 337 l 1
 584 307 l 2
 582 303 579 299 576 293 c 1
 587 271 592 247 590 220 c 0
 590 216 589 213 588 209 c 1
 609 183 627 165 640 155 c 0
 669.182833992 132.302240229 740.588820276 105.299382485 747 163 c 0
 747 166 747 169 747 173 c 0
344 577 m 1
 304.800634837 555.618528093 263 480.235705476 263 419 c 0
 263 381 276 353 302 335 c 1
 428 392 l 1
 391 479 363 540 344 577 c 1
807 170 m 0
 807 120.933412233 775.63332768 69 714 69 c 0
 674 69 634 86 594 120 c 0
 582 130 572 140 563 150 c 1
 536 108 511 79 489 62 c 0
 458.426585762 39.0699393218 424.245374303 28 375 28 c 0
 280 28 197 85 126 199 c 0
 67 295 33 397 23 506 c 1
 29 521 38 528 50 528 c 0
 59 528 70 523 82 515 c 1
 97 408 131 310 184 223 c 0
 242 128 304 80 370 80 c 0
 409 80 447.949554145 96.2112380621 483 134 c 0
 511.949554145 165.211238062 524 202 524 241 c 0
 524 286 505 322 468 349 c 1
 455 345 428 330 387 306 c 0
 353 286 325 276 304 276 c 0
 293 276 282 278 271 283 c 1
 225 322 202 370 202 427 c 0
 202 495.136385534 241.777165841 571.367050647 292 610 c 1
 -13 610 l 1
 -13 673 l 1
 859 673 l 1
 859 610 l 1
 391 610 l 1
 484 405 l 1
 507 394 528 377 546 355 c 1
 568 390 596 416 629 434 c 0
 651 446 673 451 695 451 c 0
 752.061855083 451 808 402.551971997 808 345 c 0
 808 311 793 283 763 259 c 1
 792 236 807 206 807 170 c 0
EndSplineSet
Validated: 33
LCarets2: 2 0 0
Ligature2: "'akhn' Akhand in Bengali lookup 2 subtable" u099c u09cd u099e
EndChar

StartChar: u0995_u09cd_u09b7.akhn
Encoding: 158 -1 146
Width: 816
GlyphClass: 3
Flags: W
HStem: 610 63<-12 110.52 169 337 392.164 488 545 831>
VStem: 128 59<512.917 591.785> 287 66<282.331 404.487> 331 60<541.367 609.508> 488 57<133 408 494 610> 687 64<260.143 343.868>
AnchorPoint: "Anchor-0" 455 679 basechar 0
AnchorPoint: "Anchor-1" 519 45 basechar 0
LayerCount: 2
Fore
SplineSet
405 610 m 1xdc
 396 600 391 590 391 580 c 0
 391 553 424 524 488 494 c 1
 488 610 l 1
 405 610 l 1xdc
183 514 m 1
 268.435517111 502.608597719 353 434.550636921 353 343 c 0xec
 353 319 347 294 335 269 c 1
 488 133 l 1
 488 430 l 1
 384 477 331 526 331 578 c 0
 331 588 333 599 337 610 c 1
 169 610 l 1
 181 591 187 570 187 548 c 0
 187 538 186 527 183 514 c 1
200 155 m 1
 183.47644766 157.542084975 166 170.393441916 166 191 c 0
 166 197 168 202 172 206 c 0
 248 249 287 294 287 342 c 0
 287 400.153067143 234.108692745 456 175 456 c 0
 168 456 161 455 154 453 c 1
 133 420 103 392 62 368 c 1
 38.0747447151 366.592632042 24 374.422165889 24 397 c 0
 24 402 25 406 28 410 c 1
 67.4377734901 429.718886745 128 490.028196152 128 545 c 0
 128 578 107 600 67 610 c 1
 -12 610 l 1
 -12 673 l 1
 831 673 l 1
 831 610 l 1
 545 610 l 1
 545 471 l 1
 603 451 651 427 689 396 c 0
 730 363 751 330 751 297 c 0
 751 254 715 216 643 185 c 0
 628.067036305 180.520110891 612 199.057832403 612 217 c 0
 612 222 613 226 614 230 c 1
 663 251 687 275 687 300 c 0
 687 339 640 375 545 408 c 1
 545 68 l 2
 545 54.0184191216 521.97266586 41 502 41 c 0
 494 41 487 43 483 47 c 2
 294 221 l 1
 269 197 237 175 200 155 c 1
EndSplineSet
Validated: 33
Ligature2: "'akhn' Akhand in Bengali lookup 2 subtable" u0995 u09cd u09b7
EndChar

StartChar: u09b9_u09cd_u09ae.cjct
Encoding: 159 -1 147
Width: 783
GlyphClass: 3
Flags: W
HStem: 431 51<326.043 466> 464 55<530.167 642.701> 610 63<-6 106.448 156 466 528 790>
VStem: 123 57<529.034 592.436> 284 58<294.789 423.415> 466 62<170 431 502 610> 662 51<108.965 446.448>
AnchorPoint: "Anchor-0" 373 681 basechar 0
AnchorPoint: "Anchor-1" 505 85 basechar 0
LayerCount: 2
Fore
SplineSet
466 170 m 1xbe
 466 431 l 1
 434.554275866 425.450754565 367.206157749 427.242942804 324 431 c 1
 336 404 342 378 342 353 c 0
 342 336 339 320 334 305 c 1
 466 170 l 1xbe
268 501 m 1
 319 488 364 482 404 482 c 0
 426 482 447 484 466 488 c 1
 466 610 l 1
 156 610 l 1
 175 580 183 556 181 535 c 0
 181 533 180 532 180 530 c 1
 215 527 245 517 268 501 c 1
66 372 m 1
 49.8494223389 372 30 389.562117332 30 409 c 0
 30 413 31 416 33 419 c 0
 70.5326247069 435.085410589 123 495.074425799 123 546 c 0
 123 589 92 610 30 610 c 2
 -6 610 l 1
 -6 673 l 1
 790 673 l 1
 790 610 l 1
 528 610 l 1
 528 502 l 1
 566 513 596 519 618 519 c 0
 636 519 650 516 660 509 c 0
 696 480 715 422 715 335 c 1
 713 240 l 1
 713 157 729 101 760 71 c 0
 762 67 763 63 763 59 c 0
 763 41.8248284951 741.920195295 28.7256863864 719 32 c 1
 688 59 666.924891548 107.862677645 662 179 c 0
 657.924891548 237.862677645 658 297 656 358 c 0
 654 419 645 454 626 462 c 0
 623 463 619 464 613 464 c 0x7e
 611 464 583 458 528 445 c 1
 528 97 l 1
 466 84 l 1
 308 251 l 1
 279 221 243 198 200 181 c 1
 182 186 174 197 174 213 c 0
 174 219 175 224 178 230 c 1
 249 252 284 294 284 355 c 0
 284 419.885705919 233.041577681 473.971811108 166 472 c 0
 165 472 163 471 162 471 c 0
 147 438 115 405 66 372 c 1
EndSplineSet
Validated: 33
Substitution2: "'salt' Stylistic Alternatives in Bengali2 lookup 17-1" u09b9_u09cd_u09ae.salt
Ligature2: "'cjct' Conjunct Forms in Bengali2 lookup 13" u09b9 u09cd u09ae
EndChar

StartChar: u09a4_u09cd_u09a4.cjct
Encoding: 160 -1 148
Width: 705
GlyphClass: 3
Flags: W
HStem: 31 60<339.907 514.755> 519 57<359.075 481.263> 610 63<-12 704>
VStem: 19 55<511.333 555.573> 267 59<341.583 485.816> 525 58<358.972 476.396> 553 60<127.004 255.524>
AnchorPoint: "Anchor-0" 399 675 basechar 0
AnchorPoint: "Anchor-1" 475 31 basechar 0
LayerCount: 2
Fore
SplineSet
267 419 m 0xfc
 267 503.344762049 331.621971005 576 415 576 c 0
 460 576 499 561 532 531 c 1
 546 515 l 1
 570 486 583 453 583 417 c 0xfc
 583 382 571 350 548 321 c 1
 591 283 613 239 613 189 c 0
 613 90.2904774236 522.971828223 31 419 31 c 0
 367 31 309 55 245 104 c 0
 219 125 196 146 176 168 c 0
 103 251 50 369 19 524 c 0
 17.5778837254 545.331744119 24.0275108753 557 43 557 c 0
 56 557 66 550 74 536 c 1
 116 388 l 1
 133 336 157 290 187 249 c 0
 265 144 346 91 430 91 c 0
 504.610723816 91 553 123.769081819 553 190 c 0xfa
 553 227 539.232356526 258.363427561 507 276 c 0
 486.232356526 287.363427561 474 297 474 310 c 0
 474 321 480.277284969 335.739717764 496 351 c 0
 514.277284969 368.739717764 525 389 525 414 c 0
 525 471.367143927 475.431252773 519 416 519 c 0
 406 519 395.385771106 519.505170131 386 515 c 0
 345.385771106 495.505170131 326 464 326 425 c 0
 326 407 331 386 339 362 c 1
 340.538669175 340.458631549 332.274313279 330 311 330 c 0
 301 330 293 334 287 342 c 0
 274 366 267 392 267 419 c 0xfc
-12 673 m 1
 704 673 l 1
 704 610 l 1
 -12 610 l 1
 -12 673 l 1
EndSplineSet
Validated: 33
Ligature2: "'cjct' Conjunct Forms in Bengali2 lookup 13" u09a4 u09cd u09a4
EndChar

StartChar: u0995_u09cd.haln
Encoding: 161 -1 149
Width: 707
GlyphClass: 3
Flags: W
HStem: -20 20G<399.579 445.273> 231 56<484.639 549.295> 511 61<419 510.875> 610 63<-7 357 419 711>
VStem: 357 62<121 493 569.44 610> 575 54<312.003 452.956>
AnchorPoint: "Anchor-0" 403 683 basechar 0
LayerCount: 2
Fore
SplineSet
418 0 m 1
 583 -121 l 1
 551 -164 l 1
 383 -38 l 1
 418 0 l 1
357 493 m 1
 112 342 l 1
 357 121 l 1
 357 493 l 1
575 384 m 0
 575 467.475747877 498.93023737 513.865291976 423 511 c 1
 419 511 l 1
 419 55 l 2
 419 42 412 35 398 35 c 0
 383 35 369 41 357 51 c 2
 44 328 l 1
 35 333 31 340 31 348 c 0
 31 358 37 366 48 373 c 2
 357 560 l 1
 357 610 l 1
 -7 610 l 1
 -7 673 l 1
 711 673 l 1
 711 610 l 1
 419 610 l 1
 419 572 l 1
 559 556 629 493 629 382 c 0
 629 304.842574026 591.754531164 228.663920901 517 231 c 0
 494.729887892 229.515325859 484 237.128004762 484 258 c 0
 484 273 491 282 504 287 c 1
 548.119732832 281.245252239 575 335.491166808 575 384 c 0
EndSplineSet
Validated: 33
Ligature2: "'haln' Halant Forms in Bengali lookup 12 subtable" u0995 u09cd
EndChar

StartChar: u0996_u09cd.hln
Encoding: 162 -1 150
Width: 610
GlyphClass: 3
Flags: W
HStem: -20 20G<511.081 557.5> 473 58<61.9532 201.749> 610 63<536 613>
VStem: 300 57<427.379 569.354> 474 62<121 610>
AnchorPoint: "Anchor-0" 525 671 basechar 0
LayerCount: 2
Fore
SplineSet
530 0 m 1
 695 -120 l 1
 663 -163 l 1
 495 -37 l 1
 530 0 l 1
235 633 m 0
 235 650.980452074 241.659511975 663 259 663 c 0
 265 663 271 661 278 657 c 0
 333 622 359 568 357 496 c 1
 357 491 l 1
 354 404 306 343 213 308 c 1
 474 121 l 1
 474 617 l 2
 474 654 491 673 527 673 c 2
 613 673 l 1
 613 610 l 1
 536 610 l 1
 536 64 l 2
 536 50.399637577 516.475724644 39 497 39 c 0
 488 39 480 41 474 46 c 2
 133 297 l 1
 127 306 125 315 125 324 c 0
 125 341 132 349 145 349 c 0
 186 354 221 369 252 397 c 0
 284 426 300 461 300 499 c 0
 300 524 293 548 279 572 c 1
 250 506 206 473 144 473 c 0
 108 473 67 485 24 508 c 1
 16 515 12 523 12 533 c 0
 12 552 21 562 39 562 c 0
 42 562 45 561 48 560 c 0
 82 540 114 531 141 531 c 0
 197 531 228 565 235 633 c 0
EndSplineSet
Validated: 33
Ligature2: "'haln' Halant Forms in Bengali lookup 12 subtable" u0996 u09cd
EndChar

StartChar: u0996_u09cd.haln
Encoding: 163 -1 151
Width: 599
GlyphClass: 3
Flags: W
HStem: -20 20G<502.579 548.438> 580 58<167.171 346.982> 610 63<525 604>
VStem: 231 59<249.213 381.688> 463 62<31.7449 471.968 545 610>
AnchorPoint: "Anchor-0" 501 677 basechar 0
LayerCount: 2
Fore
SplineSet
521 0 m 1x98
 687 -121 l 1
 654 -164 l 1
 486 -38 l 1
 521 0 l 1x98
184 160 m 0
 167.275311966 160 150 169.71568898 150 187 c 0
 150 195 155 202 162 209 c 0
 209 236 231 271 231 316 c 0
 231 375.04585526 183.465094337 428 124 428 c 0
 102 428 80 422 59 409 c 0
 50 403 41 401 33 401 c 0
 18 401 10 409 10 424 c 0
 10 428 11 432 13 437 c 0
 42.2550409449 547.51904357 102.27050982 604.096966049 210 633 c 0
 230 637 250 638 268 638 c 0xd8
 342 638 406 607 463 545 c 1
 463 673 l 1
 604 673 l 1
 604 610 l 1
 525 610 l 1xb8
 525 53 l 2
 525 38 516 31 495 31 c 0
 474 31 463 38 463 53 c 2
 463 382 l 2
 463 425 452 461 429 491 c 0
 381 550 323 580 255 580 c 0xd8
 185 580 131 548 92 484 c 1
 154.739108471 490.273910847 204.342395449 471.657604551 237 439 c 0
 272 406 290 365 290 316 c 0
 290 248 258 197 195 162 c 0
 191 161 188 160 184 160 c 0
EndSplineSet
Validated: 33
Ligature2: "'haln' Halant Forms in Bengali lookup 12 subtable" u0997 u09cd
EndChar

StartChar: u0998_u09cd.haln
Encoding: 164 -1 152
Width: 540
GlyphClass: 3
Flags: W
HStem: 610 63<-13 43 97.016 402 464 542>
VStem: 26 56<500.955 594.423> 402 62<121 610>
AnchorPoint: "Anchor-0" 277 677 basechar 0
LayerCount: 2
Fore
SplineSet
460 2 m 1
 625 -119 l 1
 593 -162 l 1
 425 -36 l 1
 460 2 l 1
82 548 m 0
 82 508.660935492 118.032642592 477 162 477 c 1
 205 484 l 1
 224 484 234 474 234 455 c 0
 234 448 231 441 226 435 c 2
 124 315 l 1
 402 121 l 1
 402 610 l 1
 125 610 l 1
 96 594 82 573 82 548 c 0
135 420 m 1
 76.2031655408 428.39954778 26 475.188184723 26 543 c 0
 26 565 32 588 43 610 c 1
 -13 610 l 1
 -13 673 l 1
 542 673 l 1
 542 610 l 1
 464 610 l 1
 464 62 l 2
 464 47 451 39 427 39 c 0
 417 39 409 41 402 46 c 2
 62 287 l 1
 53 291 48 298 48 307 c 0
 48 314 51 321 57 328 c 2
 135 420 l 1
EndSplineSet
Validated: 1
Ligature2: "'haln' Halant Forms in Bengali lookup 12 subtable" u0998 u09cd
EndChar

StartChar: u0999_u09cd.haln
Encoding: 165 -1 153
Width: 628
GlyphClass: 3
Flags: W
HStem: -20 20G<412.541 459.5> 38 56<294.712 460.181> 436 59<298.019 423.14> 517 20G<38.5 51.5>
VStem: 223 56<342.249 449.588> 452 57<524.644 600.695> 544 57<173.16 314.237>
AnchorPoint: "Anchor-0" 427 723 basechar 0
LayerCount: 2
Fore
SplineSet
432 0 m 1
 597 -120 l 1
 564 -163 l 1
 396 -37 l 1
 432 0 l 1
436 597 m 0
 373.739533727 641.471761623 314.534743279 561.057704164 300 516 c 0
 299 512 298 508 297 504 c 1
 326 498 347 495 362 495 c 0
 404 495 434 515 452 556 c 1
 455 573 450 587 436 597 c 0
509 568 m 0
 509 492.464095361 437.545272593 436 359 436 c 0
 332 436 307 441 285 450 c 0
 281 450 279 435 279 403 c 0
 279 379 287 358 303 339 c 1
 447 409 l 1
 455 416 466 420 480 420 c 0
 486 420 492 419 498 418 c 1
 567 368 601 310 601 244 c 0
 601 189 579 141 535 100 c 0
 491 59 440 38 383 38 c 0
 317 38 253 64 193 117 c 0
 109.360185543 189.730273441 67.1169387107 287.973775802 40 410 c 0
 36 426 30 460 20 511 c 1
 22 528 31 537 46 537 c 0
 57 537 67 531 74 519 c 1
 93 415 117 335 144 278 c 0
 185.01482572 195.97034856 271.852598566 94 381 94 c 0
 461.434651996 94 544 162.504339227 544 243 c 0
 544 288 522 327 478 362 c 1
 298 265 l 1
 248 304 223 347 223 394 c 0
 223 425 225 448 230 465 c 0
 229 467 228 468 227 468 c 0
 144 506 87 561 57 633 c 0
 51.434051721 652.480818976 63.1672272809 665 84 665 c 0
 91 665 98 663 104 659 c 1
 143 593 188 547 241 522 c 1
 250 554 268 586 297 616 c 0
 345.783832463 667.832821992 409.442529644 696.199649424 469 647 c 0
 480 638 491 625 501 610 c 1
 506 597 509 583 509 568 c 0
EndSplineSet
Validated: 33
Ligature2: "'haln' Halant Forms in Bengali lookup 12 subtable" u0989 u09cd
EndChar

StartChar: u099a_u09cd.haln
Encoding: 166 -1 154
Width: 478
GlyphClass: 3
Flags: W
HStem: -21 20G<266.579 312.273> 33 62<129.677 212.039> 610 63<-13 63 125 479>
VStem: 63 62<98.4847 475 537.502 610> 337 57<250.489 381.936>
AnchorPoint: "Anchor-0" 159 681 basechar 0
LayerCount: 2
Fore
SplineSet
285 -1 m 1
 450 -122 l 1
 417 -165 l 1
 250 -39 l 1
 285 -1 l 1
125 475 m 1
 125 145 l 2
 125 112 137 95 160 95 c 0
 170 95 182 99 197 107 c 0
 229 125 259 156 289 202 c 0
 321 252 337 297 337 336 c 0
 337 347 336 357 333 366 c 1
 324 381 291 398 234 415 c 0
 177 432 141 452 125 475 c 1
164 33 m 0
 110.383586624 33 63 77.4420374556 63 133 c 2
 63 610 l 1
 -13 610 l 1
 -13 673 l 1
 479 673 l 1
 479 610 l 1
 125 610 l 1
 125 570 l 1
 144 534 173.703728204 501.034626733 219 483 c 2
 327 440 l 1
 358 426 379 406 387 383 c 0
 392 370 394 355 394 337 c 0
 394 277 371 215 326 152 c 0
 280 89 231 50 178 35 c 0
 174 34 169 33 164 33 c 0
EndSplineSet
Validated: 1
Ligature2: "'haln' Halant Forms in Bengali lookup 12 subtable" u099a u09cd
EndChar

StartChar: u099b_u09cd.haln
Encoding: 167 -1 155
Width: 610
GlyphClass: 3
Flags: W
HStem: -21 20G<440.579 486.273> 97 55<151.379 284.686> 252 49<149.764 234.828> 610 63<-13 79 149 609>
VStem: 87 62<302.324 524 578.47 604> 470 53<315.85 452.385>
AnchorPoint: "Anchor-0" 211 675 basechar 0
LayerCount: 2
Fore
SplineSet
459 -1 m 1
 624 -122 l 1
 592 -165 l 1
 424 -39 l 1
 459 -1 l 1
149 524 m 1
 149 327 l 2
 149 310 157 301 173 301 c 0
 200 301 236 319 279 354 c 0
 331 398 350 433 333 457 c 0
 323 473 298 482 260 488 c 0
 203 497 166 509 149 524 c 1
370 544 m 1
 461.6753109 537.888312607 523 489.253403138 523 392 c 0
 523 338 504 285 466 234 c 0
 427.104836597 182.13978213 391.169351547 156.371747223 321 136 c 1
 399 132 480 110 563 69 c 0
 593 54 620 38 644 21 c 1
 648 12 649 6 649 -1 c 0
 649 -18 638 -26 615 -25 c 1
 611 -25 l 1
 491.603433394 58.0584811174 359.51492021 87.3242539895 166 97 c 1
 156 105 150 116 150 129 c 0
 150 140 155 147 164 152 c 1
 216 158 252 163 270 168 c 0
 305 177 334.874465676 195.511854442 363 216 c 0
 408.619741733 249.231863195 470 322.167427779 470 394 c 0
 470 439 445 468 393 482 c 1
 394 474 395 466 395 458 c 0
 395 403 367 355 313 312 c 0
 264 273 214 252 164 252 c 0
 113 252 87 275 87 320 c 2
 87 604 l 1
 79 610 l 1
 -13 610 l 1
 -13 673 l 1
 609 673 l 1
 609 612 l 1
 149 612 l 1
 149 562.352247166 265.094463126 542 332 542 c 0
 348 542 361 542 370 544 c 1
EndSplineSet
Validated: 33
Ligature2: "'haln' Halant Forms in Bengali lookup 12 subtable" u099b u09cd
EndChar

StartChar: u099c_u09cd.haln
Encoding: 168 -1 156
Width: 849
GlyphClass: 3
Flags: W
HStem: -21 20G<548.579 594.273> -17 21G<754.5 767.5> 80 56<316.572 486.502> 610 63<-3 332 548 848>
VStem: 38 54<416.6 544.543> 260 57<386.291 515.584> 570 58<210.656 351.278> 674 57<101.039 337.3>
AnchorPoint: "Anchor-0" 445 675 basechar 0
LayerCount: 2
Fore
SplineSet
567 -1 m 1xbf
 732 -122 l 1
 700 -165 l 1
 532 -39 l 1
 567 -1 l 1xbf
439 613 m 1
 386.792940272 587.738519487 317 513.994357583 317 443 c 0
 317 411 331 387 358 371 c 0
 361 372 392 384 452 408 c 0
 489 423 521 430 548 430 c 1
 601 391 628 341 628 279 c 0
 628 207 594 152 527 115 c 0
 484 92 442 80 399 80 c 0
 299 80 211.648736602 142.054193488 128 259 c 0
 108.648736602 286.054193488 83 332 62 403 c 0
 49 445 40.4513714107 481.906485955 38 515 c 0
 36.4513714107 535.906485955 46 546 62 546 c 0
 72 546 82 540 92 529 c 1
 100 432 132 347 187 272 c 0
 254 182 327 136 404 136 c 0
 449 136 490 153 529 188 c 0
 556 213 570 244 570 280 c 0
 570 317 556 350 527 377 c 1
 514 373 484 361 437 341 c 0
 400 325 370 316 347 315 c 1
 289 340 260 382 260 441 c 0
 260 499 284 555 332 610 c 1
 -3 610 l 1
 -3 673 l 1
 415 674 699 674 848 673 c 1
 848 610 l 1
 548 610 l 1
 776 470 l 1
 787 466 792 459 792 447 c 0
 792 442 791 437 788 432 c 0
 750 344 731 272 731 217 c 0
 731 157 750 91 788 19 c 1
 788 -5 778 -17 757 -17 c 0x7f
 752 -17 746 -16 740 -13 c 1
 696 73 674 149 674 216 c 0
 674 275 692 347 728 432 c 1
 439 613 l 1
EndSplineSet
Validated: 33
Ligature2: "'haln' Halant Forms in Bengali lookup 12 subtable" u099c u09cd
EndChar

StartChar: u099d_u09cd.haln
Encoding: 169 -1 157
Width: 705
GlyphClass: 3
Flags: W
HStem: -22 20G<383.579 429.273> 610 63<-6 347 619 705>
VStem: 347 62<123 272 351 491 560 610> 557 62<238 610>
AnchorPoint: "Anchor-0" 349 679 basechar 0
LayerCount: 2
Fore
SplineSet
402 -2 m 1
 567 -123 l 1
 535 -166 l 1
 367 -40 l 1
 402 -2 l 1
347 491 m 1
 107 342 l 1
 347 123 l 1
 347 491 l 1
557 610 m 2
 557 652 578 673 619 673 c 2
 705 673 l 1
 705 610 l 1
 619 610 l 1
 619 162 l 2
 619 149 608 142 587 142 c 0
 574 142 564 145 557 152 c 1
 409 272 l 1
 409 57 l 2
 409 39 397 31 373 31 c 0
 363 31 354 33 347 39 c 2
 35 326 l 2
 31 329 29 336 29 345 c 0
 29 358 34 368 43 373 c 2
 347 560 l 1
 347 610 l 1
 -6 610 l 1
 -6 673 l 1
 347 673 l 2
 388 673 409 652 409 610 c 2
 409 351 l 1
 557 238 l 1
 557 610 l 2
EndSplineSet
Validated: 1
Ligature2: "'haln' Halant Forms in Bengali lookup 12 subtable" u099d u09cd
EndChar

StartChar: u099e_u09cd.haln
Encoding: 170 -1 158
Width: 924
GlyphClass: 3
Flags: W
HStem: -20 20G<571.579 617.273> 106 58<125.448 368.759> 125 59<195.094 461.783> 133 60<738.235 825.638> 310 59<735.639 804.594> 493 62<720.849 824.294> 608 59<417.09 521.915>
VStem: 17 57<220.003 383.906> 252 62<331.507 516.421> 532 62<123 599.695> 833 67<395.95 483.914> 845 67<201.941 282.299>
AnchorPoint: "Anchor-0" 513 685 basechar 0
LayerCount: 2
Fore
SplineSet
590 0 m 1x8fc0
 755 -121 l 1
 723 -164 l 1
 555 -38 l 1
 590 0 l 1x8fc0
594 60 m 2
 594 48.1324073912 567.487871872 36 548 36 c 0
 540 36 535 38 532 42 c 0
 490 97 438 125 375 125 c 0xafc0
 366 125 326 121 256 112 c 0
 226 108 205 106 195 106 c 0
 177 106 160.407572054 105.93289328 146 111 c 0
 56.7336779761 142.394740102 17 196.693946805 17 312 c 0
 17 330 18 350 20 373 c 1
 29 381 38 385 47 385 c 0
 58 385 68 379 77 369 c 1
 75 334 74 313 74 306 c 0
 74 249 93 208 130 182 c 0
 147 170 169 164 194 164 c 0xcfc0
 209 164 236 167 274 174 c 0
 312 181 342 184 364 184 c 0xafc0
 425 184 481 164 532 123 c 1
 532 536 l 2
 532 584 516 608 483 608 c 0
 466 608 443 600 414 585 c 0
 348 551 314 502 314 438 c 0
 314 409 320 376 333 337 c 1
 331 320 321 311 301 311 c 0
 290 311 282 314 275 321 c 1
 260 355 252 390 252 426 c 0
 252 541.870063941 336.150432522 633.50649341 436 659 c 0
 451 664 465 667 478 667 c 0
 506 667 533 656 559 633 c 0
 583 612 594 581 594 540 c 2
 594 60 l 2
776 555 m 0
 838.114756844 553.7738751 900 503.800081099 900 437 c 0x9fe0
 900 402 883 370 849 342 c 1
 891 315 912 278 912 233 c 0
 912 183 884 150 829 135 c 0
 821 134 812 133 803 133 c 0x9fd0
 719 133 650 195 595 320 c 1
 595 375 l 1
 614 426 633 463 651 485 c 0
 687 529 728.040894024 555.946697001 776 555 c 0
643 348 m 1
 667.753555616 285.388065206 723.44434718 193 799 193 c 0
 804 193 809 194 815 195 c 0
 835 208 845 223 845 241 c 0x9fd0
 845 276.849775226 798.150609416 310 758 310 c 1
 742 319 734 329 734 340 c 0
 734 351 741 361 754 369 c 1
 791.271921126 373.472630535 833 401.54475587 833 444 c 0
 833 477 811 493 768 493 c 0
 743 493 717 475 693 438 c 0
 687 429 670 399 643 348 c 1
EndSplineSet
Validated: 33
Ligature2: "'haln' Halant Forms in Bengali lookup 12 subtable" u099e u09cd
EndChar

StartChar: u099f_u09cd.haln
Encoding: 171 -1 159
Width: 491
GlyphClass: 3
Flags: W
HStem: -22 20G<267.053 313.273> 35 80<155.28 260.084> 610 63<-6 80 142 377.999 438 490> 756 57<5.37013 351.687>
VStem: -104 56<861.161 948.362> 80 62<128.761 609> 356 58<231.492 376.957> 378 60<673.327 729.985>
AnchorPoint: "Anchor-0" 165 825 basechar 0
LayerCount: 2
Fore
SplineSet
286 -2 m 1xfc
 451 -123 l 1
 418 -166 l 1
 250 -40 l 1
 286 -2 l 1xfc
142 176 m 2
 142 141.788869303 166.09915403 115 204 115 c 0
 229 115 254 128 279 154 c 0
 331 210 356 264 356 315 c 0
 356 342 350 362 339 375 c 1
 327 386 l 1
 293 412 l 1
 290 416 290 420 290 425 c 0
 290 443.284950751 305.186244514 457 326 457 c 1
 385 416 414 371 414 321 c 0xfe
 414 260 390 198 343 135 c 0
 294 69 242 35 187 35 c 0
 162 35 137 47 115 72 c 0
 92 100 81 129 80 160 c 1
 80 609 l 1
 57 610 32 610 8 610 c 2
 -6 610 l 1
 -6 673 l 1
 375 673 l 1
 377 680 378 686 378 692 c 0
 378 735 329 756 229 756 c 1
 143 753 l 1
 49 763 -11 775 -35 789 c 0
 -76 811 -101.459371417 858.015523471 -104 930 c 0
 -104.459371417 943.015523471 -94 949 -78 949 c 0
 -65 949 -55 945 -48 936 c 1
 -45.9507164348 831.486538174 21.8625870504 813 139 813 c 2
 198 813 l 1
 271 812 322 806 355 794 c 0
 410 773 438 733 438 673 c 1xfd
 490 673 l 1
 490 610 l 1
 142 610 l 1
 142 176 l 2
EndSplineSet
Validated: 33
Ligature2: "'haln' Halant Forms in Bengali lookup 12 subtable" u099f u09cd
EndChar

StartChar: u09a0_u09cd.haln
Encoding: 172 -1 160
Width: 517
GlyphClass: 3
Flags: W
HStem: -23 20G<287.579 333.273> 39 55<143.13 276.757> 610 63<-1 196 314 521> 996 56<138.818 205.671>
VStem: 35 51<155.81 254.367> 74 58<870.55 987.493> 235 44<419.578 550.506> 380 63<207.636 413.469>
AnchorPoint: "Anchor-0" 293 711 basechar 0
LayerCount: 2
Fore
SplineSet
306 -3 m 1xf3
 471 -124 l 1
 438 -167 l 1
 271 -41 l 1
 306 -3 l 1xf3
278 551 m 1
 279 540 279 528 279 517 c 0
 279 394 214 304 86 246 c 1xfb
 86 199.385250871 98.3506783034 162.480486909 121 137 c 0
 144 109 173 94 207 94 c 0
 242 94 276 109 308 140 c 0
 357 187 380 241 380 304 c 0
 380 381 346 464 278 551 c 1
74 950 m 0xf7
 74 1005 109 1040 180 1052 c 1
 198 1047 208 1035 208 1016 c 0
 208 1006 203 999 196 996 c 1
 153 996 132 980 132 949 c 0xf7
 132 927 142.040084081 889.999838306 167 842 c 0
 207.040084081 764.999838306 242 709 264 673 c 1
 521 673 l 1
 521 610 l 1
 314 610 l 1
 400 506 443 402 443 297 c 0
 443 232 422 173 381 121 c 0
 337 66 283 39 219 39 c 0
 195 39 171 44 147 52 c 0
 120 61 95 85 71 125 c 0
 47 164 35 202 35 236 c 0xfb
 35 261 42 279 56 292 c 1
 124 320 172 354 199 394 c 0
 223 429 235 472 235 524 c 0
 235 550 233 579 227 610 c 1
 -1 610 l 1
 -1 673 l 1
 196 673 l 1
 189 688 171 721 139 774 c 0
 96 849 74 907 74 950 c 0xf7
EndSplineSet
Validated: 1
Ligature2: "'haln' Halant Forms in Bengali lookup 12 subtable" u09a0 u09cd
EndChar

StartChar: u09a1_u09cd.haln
Encoding: 173 -1 161
Width: 735
GlyphClass: 3
Flags: W
HStem: -24 20G<435.579 481.273> 35 59<338.639 505.489> 510 20G<50.1698 64> 610 63<-7 289 351 733>
VStem: 29 55<455.468 529.073> 289 62<335.076 610> 600 58<191.974 376.799>
AnchorPoint: "Anchor-1" 367 689 basechar 0
LayerCount: 2
Fore
SplineSet
733 673 m 1
 733 610 l 1
 351 610 l 1
 351 353 l 1
 356 340 364 333 375 333 c 0
 393 333 417 347 446 376 c 0
 472 402 497 433 522 470 c 0
 526 477 533 480 542 480 c 0
 556 480 569 474 580 463 c 0
 632 414 658 358 658 296 c 0
 658 264 654.740887319 227.467700189 638 190 c 0
 591.740887319 86.4677001895 520 36 434 35 c 0
 367 34 303 59 241 109 c 0
 209 134 182 163 161 195 c 0
 110 271 63.3536866025 372.504792494 29 502 c 0
 24.9056034838 517.433706799 41.3395873359 530 59 530 c 0
 69 530 77 526 84 519 c 1
 119 408 154.048920844 330.583111961 179 281 c 0
 221.318031156 196.905053099 314.702037616 94 426 94 c 0
 481 94 526 119 563 168 c 0
 588 201 600 240 600 285 c 0
 600 335 585 377 555 412 c 1
 510 361 481 330 468 319 c 0
 431 288 393.75740554 268.862172698 357 272 c 0
 311.75740554 275.862172698 289 316 289 382 c 2
 289 610 l 1
 -7 610 l 1
 -7 673 l 1
 733 673 l 1
454 -4 m 1
 619 -125 l 1
 587 -167 l 1
 419 -42 l 1
 454 -4 l 1
EndSplineSet
Validated: 33
Ligature2: "'haln' Halant Forms in Bengali lookup 12 subtable" u09a1 u09cd
EndChar

StartChar: u09a2_u09cd.haln
Encoding: 174 -1 162
Width: 504
GlyphClass: 3
Flags: W
HStem: -21 20G<238.579 284.273> 35 80<170.075 274.084> 610 63<-6 94 156 504>
VStem: 94 62<129.056 609> 371 57<232.755 376.957>
AnchorPoint: "Anchor-0" 229 679 basechar 0
LayerCount: 2
Fore
SplineSet
257 -1 m 1
 422 -122 l 1
 390 -165 l 1
 222 -39 l 1
 257 -1 l 1
156 176 m 2
 156 142.703344521 180.976793431 115 218 115 c 0
 243 115 268 128 293 154 c 0
 345 210 371 264 371 315 c 0
 371 342 365 362 354 375 c 1
 342 386 l 1
 308 412 l 1
 305 416 304 420 304 425 c 0
 304 442.476294481 319.977783093 457 340 457 c 1
 399 416 428 371 428 321 c 0
 428 260 404 198 357 135 c 0
 308 69 256 35 201 35 c 0
 176 35 152 47 130 72 c 0
 107 100 95 129 94 160 c 1
 94 609 l 1
 -6 610 l 1
 -6 673 l 1
 504 673 l 1
 504 610 l 1
 156 610 l 1
 156 176 l 2
EndSplineSet
Validated: 1
Ligature2: "'haln' Halant Forms in Bengali lookup 12 subtable" u09a2 u09cd
EndChar

StartChar: u09a3_u09cd.haln
Encoding: 175 -1 163
Width: 522
GlyphClass: 3
Flags: W
HStem: -20 20G<400.579 446.273> 283 56<143.805 209.816> 591 55<153.378 309.077> 610 63<448 523>
VStem: 40 55<388.637 531.799> 386 62<44.8503 517.236 588 608.018>
AnchorPoint: "Anchor-0" 431 687 basechar 0
LayerCount: 2
Fore
SplineSet
419 0 m 1xcc
 584 -121 l 1
 552 -164 l 1
 384 -38 l 1
 419 0 l 1xcc
187 283 m 0
 97.4659852261 300.409391762 40 358.362085498 40 461 c 0
 40 577.502395178 124.993645164 646 246 646 c 0xec
 293 646 340 627 386 588 c 1
 386 645 407 673 448 673 c 2
 523 673 l 1
 523 610 l 1
 448 610 l 1xdc
 448 69 l 2
 448 52 438 44 419 44 c 0
 397 44 386 52 386 68 c 2
 386 414 l 2
 386 429 382 455 374 493 c 0
 362.565926625 546.359009085 293.854381914 591 228 591 c 0xec
 188 591 154 577 128 548 c 1
 116 532 l 1
 102 511 95 487 95 461 c 0
 95 399.098036127 139.955507691 341.223870086 200 339 c 1
 208 336 212 330 212 319 c 0
 212 303.425353395 203.772338833 283 187 283 c 0
EndSplineSet
Validated: 1
Ligature2: "'haln' Halant Forms in Bengali lookup 12 subtable" u09a3 u09cd
EndChar

StartChar: u09a4_u09cd.haln
Encoding: 176 -1 164
Width: 727
GlyphClass: 3
Flags: W
HStem: -21 20G<466.579 512.273> 38 59<340.635 506.068> 489 58<390.636 527.428> 610 63<-6 726>
VStem: 30 54<452.125 548.333> 311 59<355.524 468.521> 592 58<203.934 420.076>
AnchorPoint: "Anchor-0" 363 681 basechar 0
LayerCount: 2
Fore
SplineSet
485 -1 m 1
 650 -122 l 1
 618 -165 l 1
 450 -39 l 1
 485 -1 l 1
454 547 m 0
 578.775454887 549.012507337 650 442.627614353 650 313 c 0
 650 191.400882989 589.5129073 79.1709691 496 48 c 0
 476 41 455 38 434 38 c 0
 420 38 406 39 392 42 c 0
 335 52 288 72 252 101 c 0
 230 119 203 146 172 184 c 0
 94 281 46 394 30 523 c 0
 25.6983791376 537.338736208 41.1150045111 549 59 549 c 0
 72 549 80 544 84 534 c 0
 104 453 120 397 132 366 c 0
 164.194149912 281.681988326 234.299601475 176.674310237 308 133 c 0
 326 123 358 111 405 98 c 0
 413 97 421 97 428 97 c 0
 491 97 537 127 565 188 c 0
 581 222 590 262 592 310 c 0
 595 369 582 415 552 447 c 0
 523 477 487 491 445 489 c 0
 443 489 441 489 439 489 c 0
 393 481 370 456 370 416 c 0
 370 397 375 381 386 366 c 1
 386 346 376 336 355 336 c 0
 348 336 341 338 334 342 c 1
 319 367 311 392 311 417 c 0
 311 490.061446123 378.342213758 547 454 547 c 0
-6 673 m 1
 726 673 l 1
 726 610 l 1
 -6 610 l 1
 -6 673 l 1
EndSplineSet
Validated: 33
Ligature2: "'haln' Halant Forms in Bengali lookup 12 subtable" u09a4 u09cd
EndChar

StartChar: u09a5_u09cd.haln
Encoding: 177 -1 165
Width: 582
GlyphClass: 3
Flags: W
HStem: -20 20G<481.579 527.273> 595 58<114.877 248.556> 610 63<505 582>
VStem: 27 56<468.611 560.258> 280 56<429.467 563.744> 443 62<117 610>
AnchorPoint: "Anchor-0" 509 679 basechar 0
LayerCount: 2
Fore
SplineSet
500 0 m 1x9c
 665 -121 l 1
 633 -164 l 1
 465 -38 l 1
 500 0 l 1x9c
443 610 m 2xbc
 443 645.603011211 466.176419724 673 505 673 c 2
 582 673 l 1
 582 610 l 1
 505 610 l 1xbc
 505 60 l 2
 505 47 493 40 467 40 c 0
 457 40 449 42 443 46 c 2
 137 274 l 1
 133 283 130 292 130 299 c 0
 130 310 135 318 144 321 c 0
 203.934359134 344.200397084 280 429.232728659 280 504 c 0
 280 547 257.498814092 577.947742918 213 592 c 0
 200.498814092 595.947742918 188 595 178 595 c 0
 118 595 87.9938422807 559.746098976 83 489 c 0
 81.9938422807 474.746098976 71 468 52 468 c 0
 39 468 31 473 27 482 c 1
 21.0637333459 594.789066427 69.3613128594 653 178 653 c 0xdc
 270.663749021 653 336 597.433111538 336 504 c 0
 336 469 327 432 308 394 c 0
 291 361 257 327 208 292 c 1
 443 117 l 1
 443 610 l 2xbc
EndSplineSet
Validated: 33
Ligature2: "'haln' Halant Forms in Bengali lookup 12 subtable" u09a5 u09cd
EndChar

StartChar: u09a6_u09cd.haln
Encoding: 178 -1 166
Width: 439
GlyphClass: 3
Flags: W
HStem: -20 20G<330.081 376.5> 610 63<-13 33 95 440>
VStem: 33 62<375 610> 255 58<134.204 395.955>
AnchorPoint: "Anchor-0" 189 677 basechar 0
LayerCount: 2
Fore
SplineSet
349 0 m 1
 514 -120 l 1
 482 -163 l 1
 314 -37 l 1
 349 0 l 1
440 673 m 1
 440 610 l 1
 95 610 l 1
 95 375 l 1
 110 394 137 417 175 445 c 0
 239 492 288 514 321 514 c 0
 324 514 327 513 330 513 c 0
 351 511 362 499 361 478 c 1
 329 389 313 316 313 258 c 0
 313 196 329 133 363 69 c 1
 367.19981575 45.2010440831 342.841424537 36.2698219329 313 40 c 1
 275 108 255 178 255 251 c 0
 255 306 267 370 289 443 c 1
 214 414 147 364 88 294 c 1
 80 289 71 287 61 287 c 0
 42 287 33 295 33 310 c 2
 33 610 l 1
 -13 610 l 1
 -13 673 l 1
 440 673 l 1
EndSplineSet
Validated: 33
Ligature2: "'haln' Halant Forms in Bengali lookup 12 subtable" u09a6 u09cd
EndChar

StartChar: u09a7_u09cd.haln
Encoding: 179 -1 167
Width: 485
GlyphClass: 3
Flags: W
HStem: 610 63<88.8144 191.242 402 478>
VStem: 21 58<515.468 597.177> 340 62<121 495 564 610>
AnchorPoint: "Anchor-0" 375 675 basechar 0
LayerCount: 2
Fore
SplineSet
390 2 m 1
 555 -119 l 1
 523 -162 l 1
 355 -36 l 1
 390 2 l 1
340 121 m 1
 340 495 l 1
 95 344 l 1
 340 121 l 1
21 558 m 0
 21 606 44 638 91 657 c 0
 115 666 143 671 175 671 c 1
 187 668 193 659 193 646 c 0
 193 629 187 618 176 612 c 1
 111 612 79 595 79 562 c 0
 79 555 80 546 83 538 c 0
 106 499 141 480 186 480 c 0
 193 480 201 481 208 482 c 1
 340 564 l 1
 340 610 l 2
 340 652 361 673 402 673 c 2
 478 673 l 1
 478 610 l 1
 402 610 l 1
 402 53 l 2
 402 42 389 37 364 37 c 0
 354 37 346 39 340 42 c 1
 30 328 l 2
 26 333 23 339 23 347 c 0
 23 359 28 370 37 380 c 1
 126 432 l 1
 74 455 39 489 22 534 c 0
 21 542 21 550 21 558 c 0
EndSplineSet
Validated: 1
Ligature2: "'haln' Halant Forms in Bengali lookup 12 subtable" u09a7 u09cd
EndChar

StartChar: u09a8_u09cd.haln
Encoding: 180 -1 168
Width: 519
GlyphClass: 3
Flags: W
HStem: -21 20G<423.579 469.273> 395 58<149.906 319.791> 610 63<-6 388 450 526>
VStem: 40 59<199.899 346.476> 388 62<33.4395 322.94 390 610>
AnchorPoint: "Anchor-0" 249 679 basechar 0
LayerCount: 2
Fore
SplineSet
442 -1 m 1
 607 -122 l 1
 575 -165 l 1
 407 -39 l 1
 442 -1 l 1
230 395 m 0
 154.700592539 395 99 352.085504046 99 276 c 0
 99 209.527901229 125.067854644 187.262679946 171 162 c 0
 176 157 178 152 178 146 c 0
 178 129.857612174 165.199829165 112.114310119 145 115 c 1
 82.7330655649 139.299291487 40 195.827150945 40 277 c 0
 40 384.703610373 124.158877777 453 236 453 c 0
 295 453 345 432 388 390 c 1
 388 610 l 1
 -6 610 l 1
 -6 673 l 1
 526 673 l 1
 526 610 l 1
 450 610 l 1
 450 51 l 2
 450 39 440 33 419 33 c 0
 398 33 388 39 388 51 c 2
 388 263 l 1
 368.894987381 348.972556785 324.352404016 395 230 395 c 0
EndSplineSet
Validated: 33
Ligature2: "'haln' Halant Forms in Bengali lookup 12 subtable" u09a8 u09cd
EndChar

StartChar: u09aa_u09cd.haln
Encoding: 181 -1 169
Width: 644
GlyphClass: 3
Flags: W
HStem: 606 60<189.456 342.509> 610 63<575 650>
VStem: 513 62<35.6394 417.506 502 610>
AnchorPoint: "Anchor-0" 371 701 basechar 0
LayerCount: 2
Fore
SplineSet
562 2 m 1x20
 727 -119 l 1
 694 -162 l 1
 526 -36 l 1
 562 2 l 1x20
400 542 m 1
 355 585 311 606 266 606 c 0xa0
 221 606 176 585 132 542 c 1
 254 398 l 1
 400 542 l 1
513 609 m 2
 513 641.770858737 539.062846614 673 575 673 c 2
 650 673 l 1
 650 610 l 1
 575 610 l 1x60
 575 55 l 2
 575 42 564 35 544 35 c 0
 523 35 513 41 513 54 c 2
 513 328 l 2
 513 359 505 390 489 422 c 0
 482 437 465 463 440 500 c 1
 211 276 l 1
 188.911905812 270.477976453 168 283.398504759 168 306 c 0
 168 310 169 314 170 317 c 1
 210 358 l 1
 99 493 l 1
 68 443 l 1
 63 440 60 439 55 439 c 0
 35.8321974273 439 21.9729930178 452.135034911 18 472 c 1
 65 575 135 638 229 661 c 0
 244 664 258 666 273 666 c 0
 361 666 442 611 513 502 c 1
 513 609 l 2
EndSplineSet
Validated: 33
LCarets2: 1 0
Ligature2: "'haln' Halant Forms in Bengali lookup 12 subtable" u09aa u09cd
EndChar

StartChar: u09ab_u09cd.haln
Encoding: 182 -1 170
Width: 686
GlyphClass: 3
Flags: W
HStem: -21 20G<402.579 448.273> 233 59<500.282 550.944> 515 55<423 516.651> 610 63<-9 16 96 694>
VStem: 361 62<121 515> 575 59<314.599 461.162>
AnchorPoint: "Anchor-0" 321 685 basechar 0
LayerCount: 2
Fore
SplineSet
421 -1 m 1
 586 -122 l 1
 554 -165 l 1
 386 -39 l 1
 421 -1 l 1
423 62 m 1
 424.553698454 44.9093170094 413.847208236 37 396 37 c 0
 382 37 370 41 361 49 c 2
 57 297 l 1
 53 305 51 312 51 319 c 0
 51 328 55 338 63 347 c 1
 166 443 l 1
 16 610 l 1
 -9 610 l 1
 -9 673 l 1
 694 673 l 1
 694 610 l 1
 96 610 l 1
 227 463 l 1
 236.140404171 441.672390267 232.158492772 428.508483484 221 418 c 2
 118 321 l 1
 361 121 l 1
 361 514 l 2
 361 551 372 570 393 570 c 0
 505 570 578 538 612 474 c 0
 627 446 634 417 634 387 c 0
 634 315.515768511 589.46091742 239.668370768 525 233 c 1
 508 235 499 246 499 267 c 0
 499 280 504 288 515 292 c 1
 551.799508782 287.911165691 575 346.821839488 575 389 c 0
 575 471.784680978 513.246507177 515 423 515 c 1
 423 62 l 1
EndSplineSet
Validated: 33
Ligature2: "'haln' Halant Forms in Bengali lookup 12 subtable" u09ab u09cd
EndChar

StartChar: u09ac_u09cd.haln
Encoding: 183 -1 171
Width: 478
GlyphClass: 3
Flags: W
HStem: -20 20G<377.081 423.667> 610 63<-6 349 411 487>
VStem: 349 62<128 500 564 610>
AnchorPoint: "Anchor-0" 249 687 basechar 0
LayerCount: 2
Fore
SplineSet
396 0 m 1
 562 -120 l 1
 529 -163 l 1
 361 -37 l 1
 396 0 l 1
349 128 m 1
 349 500 l 1
 104 347 l 1
 349 128 l 1
-6 673 m 1
 487 673 l 1
 487 610 l 1
 411 610 l 1
 411 62 l 1
 407 47 395 39 376 39 c 0
 365 39 356 42 349 49 c 2
 38 332 l 2
 32 337 30 343 30 352 c 0
 30 363 33 371 40 375 c 2
 349 564 l 1
 349 610 l 1
 -6 610 l 1
 -6 673 l 1
EndSplineSet
Validated: 1
LCarets2: 1 0
Ligature2: "'haln' Halant Forms in Bengali lookup 12 subtable" u09ac u09cd
EndChar

StartChar: u09ad_u09cd.haln
Encoding: 184 -1 172
Width: 780
GlyphClass: 3
Flags: W
HStem: 24 67<364.864 552.112> 288 56<396.112 514.004> 610 63<-6 799>
VStem: 30 52<476.768 582.67> 317 61<361.047 475.25> 667 60<201.522 359.88>
AnchorPoint: "Anchor-0" 377 683 basechar 0
LayerCount: 2
Fore
SplineSet
588 5 m 1
 753 -116 l 1
 721 -159 l 1
 553 -33 l 1
 588 5 l 1
450 288 m 0
 371.525500156 288 317 348.052438296 317 430 c 0
 317 447 319 465 325 482 c 1
 332 489 339 493 348 493 c 0
 361 493 373 485 383 470 c 1
 380 455 378 442 378 429 c 0
 378 372 401 344 449 344 c 0
 456 344 464 345 471 347 c 0
 499 354 523 368 543 390 c 0
 552 400 566 420 586 452 c 0
 591 462 601 468 617 468 c 0
 624 468 630 466 636 461 c 0
 697 405 727 345 727 283 c 0
 727 246 716 210 695 173 c 0
 638 74 560 24 462 24 c 0
 349 24 249 89 160 220 c 0
 118 282 88 339 70 390 c 0
 54 434 41 491 30 562 c 1
 34 576 42 583 57 583 c 0
 65 583 73 581 82 577 c 1
 95 487 124 399 171 313 c 0
 228.040122473 209.614778018 325.801096537 91 457 91 c 0
 527 91 584 119 628 175 c 0
 654 209 667 244 667 283 c 0
 667 322 652 358 622 392 c 1
 573 335 528 301 486 292 c 0
 474 289 462 288 450 288 c 0
-6 673 m 1
 799 673 l 1
 799 610 l 1
 -6 610 l 1
 -6 673 l 1
EndSplineSet
Validated: 1
LCarets2: 1 0
Ligature2: "'haln' Halant Forms in Bengali lookup 12 subtable" u09ad u09cd
EndChar

StartChar: u09ae_u09cd.haln
Encoding: 185 -1 173
Width: 568
GlyphClass: 3
Flags: W
HStem: -23 20G<464.579 510.273> 67 56<166.491 246.255> 359 59<240 324.611> 610 63<-8 76 145 431 493 569>
VStem: 66 56<167.241 309.835> 431 62<39.6394 246.987 324 610>
AnchorPoint: "Anchor-0" 273 677 basechar 0
LayerCount: 2
Fore
SplineSet
483 -3 m 1
 648 -124 l 1
 616 -167 l 1
 448 -41 l 1
 483 -3 l 1
431 610 m 1
 145 610 l 1
 106 547 l 1
 171.802317362 538.77471033 223.909570789 502.179538753 237 440 c 0
 239 433 240 425 240 418 c 1
 279.518341862 419.580733674 318.551156106 409.972096669 346 395 c 0
 371 381 400 357 431 324 c 1
 431 610 l 1
122 241 m 0
 122 173.600781146 164.622019473 123 234 123 c 1
 243 119 247 111 247 99 c 0
 247 78 240 67 225 67 c 0
 144 74 91.2348905334 116.594250338 70 195 c 0
 65.2348905334 212.594250338 66 228 66 243 c 0
 66 312 104 366 181 407 c 1
 183.99004922 460.820885954 137.808636661 490 77 490 c 0
 71 490 65 490 58 489 c 0
 38 493 28 503 28 522 c 0
 28 526 28 530 29 534 c 1
 76 610 l 1
 -8 610 l 1
 -8 673 l 1
 569 673 l 1
 569 610 l 1
 493 610 l 1
 493 57 l 2
 493 45 484 39 464 39 c 0
 442 39 431 45 431 58 c 2
 431 102 l 2
 431 211.256385495 414.288960684 263.360462697 362 310 c 0
 326.661801308 341.520175856 289 359 246 359 c 0
 191 359 150.177735146 333.691966047 128 283 c 0
 122.177735146 269.691966047 122 255 122 241 c 0
EndSplineSet
Validated: 33
Ligature2: "'haln' Halant Forms in Bengali lookup 12 subtable" u09ae u09cd
EndChar

StartChar: u09af_u09cd.haln
Encoding: 186 -1 174
Width: 502
GlyphClass: 3
Flags: W
HStem: -21 20G<400.579 446.273> 610 63<-1 25 102 363 425 501>
VStem: 363 62<115 610>
AnchorPoint: "Anchor-0" 258 684 basechar 0
LayerCount: 2
Fore
SplineSet
419 -1 m 1
 584 -122 l 1
 552 -165 l 1
 384 -39 l 1
 419 -1 l 1
-1 673 m 1
 501 673 l 1
 501 610 l 1
 425 610 l 1
 425 60 l 2
 425 43 413 34 390 34 c 0
 380 34 370 37 363 42 c 2
 37 278 l 2
 30 284 26 291 26 299 c 0
 26 306 29 314 34 321 c 1
 169 439 l 1
 25 610 l 1
 -1 610 l 1
 -1 673 l 1
102 610 m 1
 232 452 l 1
 238.905863371 435.42592791 238.911403331 420.183552498 228 412 c 2
 97 302 l 1
 363 115 l 1
 363 610 l 1
 102 610 l 1
EndSplineSet
Validated: 33
Ligature2: "'haln' Halant Forms in Bengali lookup 12 subtable" u09af u09cd
EndChar

StartChar: u09b0_u09cd.haln
Encoding: 187 -1 175
Width: 482
GlyphClass: 3
Flags: W
HStem: -21 20G<383.579 429.273> 49 73<146 225> 610 63<-6 349 411 487>
VStem: 146 79<49 122> 349 62<128 500 564 610>
AnchorPoint: "Anchor-0" 220 688 basechar 0
LayerCount: 2
Fore
SplineSet
402 -1 m 1
 567 -122 l 1
 535 -165 l 1
 367 -39 l 1
 402 -1 l 1
349 128 m 1
 349 500 l 1
 104 347 l 1
 349 128 l 1
-6 673 m 1
 487 673 l 1
 487 610 l 1
 411 610 l 1
 411 62 l 1
 407 47 395 39 376 39 c 0
 365 39 356 42 349 49 c 2
 38 332 l 2
 32 337 30 343 30 352 c 0
 30 363 33 371 40 375 c 2
 349 564 l 1
 349 610 l 1
 -6 610 l 1
 -6 673 l 1
146 122 m 1
 225 122 l 1
 225 49 l 1
 146 49 l 1
 146 122 l 1
EndSplineSet
Validated: 1
Ligature2: "'haln' Halant Forms in Bengali lookup 12 subtable" u09b0 u09cd
Ligature2: "'haln' Halant Forms in Bengali lookup 12 subtable" u09b0 u09cd
EndChar

StartChar: u09b2_u09cd.haln
Encoding: 188 -1 176
Width: 697
GlyphClass: 2
Flags: W
HStem: -20 20G<592.081 638.5> 185 56<137.374 246.554> 463 58<391.414 489.916> 469 59<132.958 267.201> 610 63<-6 557 619 695>
VStem: 29 59<289.368 424.329> 557 62<32.0613 386.309 452 610>
AnchorPoint: "Anchor-1" 338 680 basechar 0
LayerCount: 2
Fore
SplineSet
611 0 m 1xce
 776 -120 l 1
 744 -163 l 1
 576 -37 l 1
 611 0 l 1xce
200 469 m 0xde
 136.224500547 469 88 421.552917337 88 355 c 0
 88 289.410252874 141.536339815 241 211 241 c 0
 217 241 223 241 229 242 c 1
 242 237 248 229 248 218 c 0
 248 204 242 193 229 186 c 1
 222 185 215 185 208 185 c 0
 157 185 115 201 80 235 c 0
 46 269 29 309 29 355 c 0
 29 386 38 417 56 446 c 0
 90 501 138 528 200 528 c 0xde
 254 528 297 506 331 461 c 1
 365 501 399 521 434 521 c 0
 472 521 513 498 557 452 c 1
 557 610 l 1
 -6 610 l 1
 -6 673 l 1
 695 673 l 1
 695 610 l 1
 619 610 l 1
 619 62 l 2
 619 41 608 31 587 31 c 0
 567 31 557 40 557 60 c 2
 557 351 l 1
 518 426 478 463 438 463 c 0xee
 407 463 380 439 359 390 c 1
 354 384 345 382 332 382 c 0
 319 382 310 385 304 392 c 1
 286 443 251 469 200 469 c 0xde
EndSplineSet
Validated: 1
EndChar

StartChar: u09b6_u09cd.haln
Encoding: 189 -1 177
Width: 631
GlyphClass: 3
Flags: W
HStem: -23 20G<538.053 584.273> 339 56<4.49512 96.0966> 610 63<-15.4727 113.29 561 637>
VStem: 499 62<40.8581 559.954 609 610>
AnchorPoint: "Anchor-1" 602 684 basechar 0
LayerCount: 2
Fore
SplineSet
557 -3 m 1
 722 -124 l 1
 689 -167 l 1
 521 -41 l 1
 557 -3 l 1
499 513 m 2
 499 571.954271053 411.50774398 612 349 612 c 0
 316 612 289 602 268 581 c 1
 257 569 l 1
 245 553 240 534 241 513 c 0
 244.744732443 428.743520033 305.434364558 406.640549799 394 398 c 1
 399 395 401 390 401 381 c 0
 401 363 396 350 387 342 c 1
 335 347 297 355 274 367 c 0
 247 381 223 407 202 445 c 1
 179 401 153 372 122 357 c 0
 101 348 66 342 16 339 c 1
 8 345 4 354 4 366 c 0
 4 377 7 387 14 395 c 1
 84.4613314526 399.403833216 147.400761702 432.683199148 162 494 c 0
 173.672141021 542.633920919 120.925089504 595.017835832 79 605 c 0
 64 608 38 610 -1 610 c 0
 -11 610 -16 621 -16 643 c 0
 -16 663 -11 673 -1 673 c 0
 52 673 88 670 106 664 c 0
 142 653 174 624 201 577 c 1
 222 610 244 633 265 646 c 0
 284 659 311.81448481 670.222344076 349 673 c 0
 401.506383639 676.922082748 483.19877832 647.374395509 499 609 c 1
 499 639.189518673 528.354742002 673 561 673 c 2
 637 673 l 1
 637 610 l 1
 561 610 l 1
 561 60 l 2
 561 47 552 40 533 40 c 0
 510 40 499 47 499 60 c 2
 499 513 l 2
EndSplineSet
Validated: 33
Ligature2: "'haln' Halant Forms in Bengali lookup 12 subtable" u09b6 u09cd
EndChar

StartChar: u09b7_u09cd.haln
Encoding: 190 -1 178
Width: 492
GlyphClass: 3
Flags: W
HStem: -21 20G<395.579 441.273> 610 63<-8 18 95 355 417 494>
VStem: 355 62<115 329 392 610>
AnchorPoint: "Anchor-0" 240 692 basechar 0
LayerCount: 2
Fore
SplineSet
414 -1 m 1
 579 -122 l 1
 547 -165 l 1
 379 -39 l 1
 414 -1 l 1
494 610 m 1
 417 610 l 1
 417 60 l 2
 417 43 405 34 382 34 c 0
 372 34 362 37 355 42 c 2
 30 278 l 2
 23 284 19 291 19 299 c 0
 19 306 21 314 26 321 c 1
 162 439 l 1
 18 610 l 1
 -8 610 l 1
 -8 673 l 1
 494 673 l 1
 494 610 l 1
355 392 m 1
 355 610 l 1
 95 610 l 1
 224 453 l 1
 355 392 l 1
355 115 m 1
 355 329 l 1
 203 397 l 1
 89 302 l 1
 355 115 l 1
EndSplineSet
Validated: 1
Ligature2: "'haln' Halant Forms in Bengali lookup 12 subtable" u09b7 u09cd
EndChar

StartChar: u09b8_u09cd.haln
Encoding: 191 -1 179
Width: 656
GlyphClass: 3
Flags: W
HStem: -21 20G<564.053 610.273> 120 60<118.953 207.003> 393 56<365.998 439.98> 610 63<-6 143 218 524 586 662>
VStem: 524 62<29.8581 258.926 364 610>
LayerCount: 2
Fore
SplineSet
583 -1 m 1
 748 -122 l 1
 715 -165 l 1
 547 -39 l 1
 583 -1 l 1
177 542 m 1
 261.225058929 526.207801451 298.875357593 489.846705699 341 429 c 1
 361 442 380 449 399 449 c 0
 433 449 474 421 524 364 c 1
 524 610 l 1
 218 610 l 1
 177 542 l 1
125 489 m 0
 105.499247721 487.499942132 96 496.336320919 96 515 c 0
 96 522 98 528 102 534 c 2
 143 610 l 1
 -6 610 l 1
 -6 673 l 1
 662 673 l 1
 662 610 l 1
 586 610 l 1
 586 49 l 2
 586 36 577 29 558 29 c 0
 535 29 524 36 524 49 c 2
 524 117 l 2
 524 192 509 258 479 315 c 0
 452 367 425 393 397 393 c 0
 382 393 369.852781566 384.394456351 364 366 c 0
 341.852781566 296.394456351 315 239 280 193 c 0
 242 144 203 120 162 120 c 0
 115 120 72 153 33 220 c 0
 31 225 31 229 31 233 c 0
 31 250 40 258 60 258 c 0
 67 258 75 256 82 252 c 1
 109 204 136 180 164 180 c 0
 206 180 252 243 303 369 c 1
 282 410 262 438 243 454 c 0
 217 476 177 488 125 489 c 0
EndSplineSet
Validated: 33
Ligature2: "'haln' Halant Forms in Bengali lookup 12 subtable" u09b8 u09cd
EndChar

StartChar: u09b9_u09cd.haln
Encoding: 192 -1 180
Width: 448
GlyphClass: 3
Flags: W
HStem: -40 20G<347.081 393.5> 536 58<201.172 309.041> 610 63<-6 108 184 455>
VStem: 58 56<402.521 490.559> 353 57<354.894 491.687>
LayerCount: 2
Fore
SplineSet
366 -20 m 1
 531 -140 l 1
 499 -183 l 1
 331 -57 l 1
 366 -20 l 1
58 423 m 1
 58 486.221371646 100.150492707 554.247806746 152 574 c 1
 108 610 l 1
 -6 610 l 1
 -6 673 l 1
 455 673 l 1
 455 610 l 1
 184 610 l 2
 181.11759647 610 211.737477115 599.01669718 217 592 c 1
 224 594 231 594 239 594 c 0
 294 594 336 576 368 539 c 1
 381 521 l 1
 400 491 410 457 410 416 c 0
 410 405 409 393 408 382 c 0
 383 286 297 229 150 211 c 1
 501 -6 l 1
 502 -10 503 -14 503 -18 c 0
 503 -36 493 -45 474 -44 c 1
 471 -44 l 1
 29 227 l 1
 23 235 20 243 20 252 c 0
 20 271 28 280 45 280 c 0
 48 280 52 279 56 278 c 0
 83 274 110 272 134 272 c 0
 245 272 317 310 350 387 c 1
 352 397 353 407 353 418 c 0
 353 460 339 492 310 514 c 1
 294 523 l 1
 275 531 l 2
 263 535 250 536 236 536 c 0
 159 536 118 496 114 416 c 1
 108 407 99 402 86 402 c 0
 72 402 63 409 58 423 c 1
EndSplineSet
Validated: 33
Ligature2: "'haln' Halant Forms in Bengali lookup 12 subtable" u09b9 u09cd
EndChar

StartChar: u09dc_u09cd.haln
Encoding: 193 -1 181
Width: 736
GlyphClass: 3
Flags: W
HStem: -83 73<422 500> -21 20G<566.579 612.273> 35 59<339.639 506.489> 510 20G<51.1698 65> 610 63<-6 290 352 734>
VStem: 30 55<455.468 529.073> 290 62<335.076 610> 422 78<-83 -10> 601 58<191.974 376.799>
LayerCount: 2
Fore
SplineSet
585 -1 m 1x7f80
 750 -122 l 1
 718 -165 l 1
 550 -39 l 1
 585 -1 l 1x7f80
422 -10 m 1xbf80
 500 -10 l 1
 500 -83 l 1
 422 -83 l 1
 422 -10 l 1xbf80
734 673 m 1
 734 610 l 1
 352 610 l 1
 352 353 l 1
 357 340 365 333 376 333 c 0
 394 333 418 347 447 376 c 0
 473 402 498 433 523 470 c 0
 527 477 534 480 543 480 c 0
 557 480 570 474 581 463 c 0
 633 414 659 358 659 296 c 0
 659 264 655.740887319 227.467700189 639 190 c 0
 592.740887319 86.4677001895 521 36 435 35 c 0
 368 34 304 59 242 109 c 0
 210 134 183 163 162 195 c 0
 111 271 64.3536866025 372.504792494 30 502 c 0
 25.9056034838 517.433706799 42.3395873359 530 60 530 c 0
 70 530 78 526 85 519 c 1
 120 408 155.048920844 330.583111961 180 281 c 0
 222.318031156 196.905053099 315.702037616 94 427 94 c 0
 482 94 527 119 564 168 c 0
 589 201 601 240 601 285 c 0
 601 335 586 377 556 412 c 1
 511 361 482 330 469 319 c 0
 432 288 394.75740554 268.862172698 358 272 c 0
 312.75740554 275.862172698 290 316 290 382 c 2
 290 610 l 1
 -6 610 l 1
 -6 673 l 1
 734 673 l 1
EndSplineSet
Validated: 33
LCarets2: 1 0
Ligature2: "'haln' Halant Forms in Bengali lookup 12 subtable" u09dc u09cd
EndChar

StartChar: u09dd_u09cd.haln
Encoding: 194 -1 182
Width: 502
GlyphClass: 3
Flags: W
HStem: -78 73<166 244> 35 80<170.075 274.084> 610 63<-6 94 156 504>
VStem: 94 62<129.056 609> 166 78<-78 -5> 371 57<232.755 376.957>
LayerCount: 2
Fore
SplineSet
340 -2 m 1
 505 -123 l 1
 473 -166 l 1
 305 -40 l 1
 340 -2 l 1
166 -5 m 1
 244 -5 l 1
 244 -78 l 1
 166 -78 l 1
 166 -5 l 1
156 176 m 2
 156 142.703344521 180.976793431 115 218 115 c 0
 243 115 268 128 293 154 c 0
 345 210 371 264 371 315 c 0
 371 342 365 362 354 375 c 1
 342 386 l 1
 308 412 l 1
 305 416 304 420 304 425 c 0
 304 442.476294481 319.977783093 457 340 457 c 1
 399 416 428 371 428 321 c 0
 428 260 404 198 357 135 c 0
 308 69 256 35 201 35 c 0
 176 35 152 47 130 72 c 0
 107 100 95 129 94 160 c 1
 94 609 l 1
 -6 610 l 1
 -6 673 l 1
 504 673 l 1
 504 610 l 1
 156 610 l 1
 156 176 l 2
EndSplineSet
Validated: 1
Ligature2: "'haln' Halant Forms in Bengali lookup 12 subtable" u09dd u09cd
EndChar

StartChar: glyph219
Encoding: 195 -1 183
Width: 497
GlyphClass: 2
Flags: W
HStem: -20 20G<393.053 439.273> 59 58<148 211> 610 63<-6 20 97 358 420 496>
VStem: 148 63<59 117> 358 62<115 610>
LayerCount: 2
Fore
SplineSet
412 0 m 1
 577 -121 l 1
 544 -164 l 1
 376 -38 l 1
 412 0 l 1
-6 673 m 1
 496 673 l 1
 496 610 l 1
 420 610 l 1
 420 60 l 2
 420 43 408 34 385 34 c 0
 375 34 365 37 358 42 c 2
 32 278 l 2
 25 284 21 291 21 299 c 0
 21 306 24 314 29 321 c 1
 164 439 l 1
 20 610 l 1
 -6 610 l 1
 -6 673 l 1
97 610 m 1
 227 452 l 1
 233.905863371 435.42592791 233.911403331 420.183552498 223 412 c 2
 92 302 l 1
 358 115 l 1
 358 610 l 1
 97 610 l 1
148 117 m 1
 211 117 l 1
 211 59 l 1
 148 59 l 1
 148 117 l 1
EndSplineSet
Validated: 33
EndChar

StartChar: u099c_u09cd_u099e_u09cd.haln
Encoding: 196 -1 184
Width: 868
GlyphClass: 3
Flags: W
HStem: -20 20G<468.579 514.273> 28 52<303.089 451.015> 227 56<667.706 735.447> 508 20G<51 61.5> 610 63<-6 299 398 866>
VStem: 30 59<412.65 526.123> 209 61<350.441 504.907> 531 66<209.187 291.967> 754 60<131.683 214.801 302.209 381.684>
LayerCount: 2
Fore
SplineSet
487 -0 m 1
 652 -121 l 1
 620 -164 l 1
 452 -38 l 1
 487 -0 l 1
754 173 m 0
 754 205.700904227 727.646394592 227 690 227 c 1
 675 232 667 242 667 255 c 0
 667 269 673.545491738 279.979219905 689 283 c 0
 720.348124015 289.127389332 756 309.45481029 756 346 c 0
 756 373 736 388 697 390 c 1
 663 383 639 371 622 353 c 2
 608 337 l 1
 591 307 l 2
 589 303 586 299 583 293 c 1
 594 271 599 247 597 220 c 0
 597 216 596 213 595 209 c 1
 616 183 634 165 647 155 c 0
 676.260306162 132.241984097 746.592982943 105.336846491 753 163 c 0
 753 166 754 169 754 173 c 0
351 577 m 1
 310.858731814 555.104762808 270 481.986109526 270 419 c 0
 270 381 283 353 309 335 c 1
 435 392 l 1
 398 479 370 540 351 577 c 1
814 170 m 0
 814 120.933412233 782.63332768 69 721 69 c 0
 681 69 641 86 601 120 c 0
 589 130 579 140 570 150 c 1
 543 108 518 79 496 62 c 0
 465.426585762 39.0699393218 431.245374303 28 382 28 c 0
 287 28 204 85 133 199 c 0
 74 295 40 397 30 506 c 1
 36 521 45 528 57 528 c 0
 66 528 77 523 89 515 c 1
 104 408 138 310 191 223 c 0
 249 128 311 80 377 80 c 0
 416 80 454.949554145 96.2112380621 490 134 c 0
 518.949554145 165.211238062 531 202 531 241 c 0
 531 286 512 322 475 349 c 1
 462 345 435 330 394 306 c 0
 360 286 332 276 311 276 c 0
 300 276 289 278 278 283 c 1
 232 322 209 370 209 427 c 0
 209 495.136385534 248.777165841 571.367050647 299 610 c 1
 -6 610 l 1
 -6 673 l 1
 866 673 l 1
 866 610 l 1
 398 610 l 1
 491 405 l 1
 514 394 535 377 553 355 c 1
 575 390 603 416 636 434 c 0
 658 446 680 451 702 451 c 0
 759.061855083 451 815 402.551971997 815 345 c 0
 815 311 800 283 770 259 c 1
 799 236 814 206 814 170 c 0
EndSplineSet
Validated: 33
Ligature2: "'half' Half Forms in Bengali lookup 5 subtable" u099c_u09cd_u099e.akhn u09cd zwj
Ligature2: "'haln' Halant Forms in Bengali lookup 12 subtable" u099c_u09cd_u099e.akhn u09cd
EndChar

StartChar: kassa_u09cd.half
Encoding: 197 -1 185
Width: 833
GlyphClass: 3
Flags: W
HStem: -20 20G<521.579 567.273> 610 63<-6 116.52 175 343 398.164 494 551 837>
VStem: 134 59<512.917 591.785> 293 66<282.331 404.487> 337 60<541.367 609.508> 494 57<133 408 494 610> 693 64<260.143 343.868>
LayerCount: 2
Fore
SplineSet
540 0 m 1xe6
 705 -121 l 1
 673 -164 l 1
 505 -38 l 1
 540 0 l 1xe6
411 610 m 1
 402 600 397 590 397 580 c 0xee
 397 553 430 524 494 494 c 1
 494 610 l 1
 411 610 l 1
189 514 m 1
 274.435517111 502.608597719 359 434.550636921 359 343 c 0xf6
 359 319 353 294 341 269 c 1
 494 133 l 1
 494 430 l 1
 390 477 337 526 337 578 c 0
 337 588 339 599 343 610 c 1
 175 610 l 1
 187 591 193 570 193 548 c 0
 193 538 192 527 189 514 c 1
206 155 m 1
 189.47644766 157.542084975 172 170.393441916 172 191 c 0
 172 197 174 202 178 206 c 0
 254 249 293 294 293 342 c 0
 293 400.153067143 240.108692745 456 181 456 c 0
 174 456 167 455 160 453 c 1
 139 420 109 392 68 368 c 1
 44.0747447151 366.592632042 30 374.422165889 30 397 c 0
 30 402 31 406 34 410 c 1
 73.4377734901 429.718886745 134 490.028196152 134 545 c 0
 134 578 113 600 73 610 c 1
 -6 610 l 1
 -6 673 l 1
 837 673 l 1
 837 610 l 1
 551 610 l 1
 551 471 l 1
 609 451 657 427 695 396 c 0
 736 363 757 330 757 297 c 0
 757 254 721 216 649 185 c 0
 634.067036305 180.520110891 618 199.057832403 618 217 c 0
 618 222 619 226 620 230 c 1
 669 251 693 275 693 300 c 0
 693 339 646 375 551 408 c 1
 551 68 l 2
 551 54.0184191216 527.97266586 41 508 41 c 0
 500 41 493 43 489 47 c 2
 300 221 l 1
 275 197 243 175 206 155 c 1
EndSplineSet
Validated: 33
Ligature2: "'haln' Halant Forms in Bengali lookup 12 subtable" u0995_u09cd_u09b7.akhn u09cd
Ligature2: "'half' Half Forms in Bengali lookup 5 subtable" u0995_u09cd_u09b7.akhn u09cd zwj
EndChar

StartChar: u09b0_u09cd.rphf
Encoding: 198 -1 186
Width: 5
GlyphClass: 3
Flags: W
HStem: 667 224
VStem: -146 330
AnchorPoint: "Anchor-0" -100 660 mark 0
LayerCount: 2
Fore
SplineSet
149 891 m 0
 164.214667357 891 184 881.860185925 184 865 c 0
 184 860 182 857 176 852 c 2
 -61 667 l 1
 -146 667 l 1
 138 888 l 2
 141 890 144 891 149 891 c 0
EndSplineSet
Validated: 1
Ligature2: "'rphf' Reph Form in Bengali lookup 3 subtable" u09f0 u09cd
Ligature2: "'rphf' Reph Form in Bengali lookup 3 subtable" u09b0 u09cd
EndChar

StartChar: u09af_u09cd.pstf
Encoding: 199 -1 187
Width: 265
GlyphClass: 3
Flags: W
HStem: -15 51<31.5339 95.6074> 610 63<-6 112 166.961 272>
VStem: 75 57<367.057 576.402> 146 50<83.0889 272.188>
LayerCount: 2
Fore
SplineSet
272 673 m 1
 272 610 l 1
 232 610 l 2
 207 610 184 602 163 585 c 1
 151 574 l 2
 135.551503438 558.551503438 132 523.990502697 132 494 c 0
 132 459 143 401 164 321 c 0
 185 241 196 182 196 147 c 0
 196 65 152 11 65 -15 c 1
 42 -11 31 -3 31 12 c 0
 31 21 36 29 47 36 c 1
 113 53 146 92 146 153 c 0
 146 184 135 239 111 318 c 0
 87 397 75 457 75 496 c 0
 75 542 88 580 112 610 c 1
 -6 610 l 1
 -6 673 l 1
 272 673 l 1
EndSplineSet
Validated: 1
LCarets2: 1 0
Ligature2: "'pstf' Post Base Forms in Bengali lookup 6 subtable" u09cd u09af
EndChar

StartChar: u09b0_u09cd.blwf
Encoding: 200 -1 188
Width: 5
GlyphClass: 3
Flags: W
HStem: -38 146<-131.999 -70> -29 58<-426.719 -223.814> -5 57<-328.514 -138.956>
VStem: -132 62<44 108>
LayerCount: 2
Fore
SplineSet
-132 108 m 1x90
 -70 108 l 1
 -70 -16 l 2
 -70 -31 -84 -38 -111 -38 c 0x90
 -122 -38 -129 -36 -132 -33 c 0
 -150 -14 -173 -5 -202 -5 c 0x30
 -217 -5 -243 -10 -278 -18 c 0
 -313 -26 -340 -29 -360 -29 c 0
 -403 -28 -435 -19 -456 -3 c 0
 -477 13 -498 44 -519 91 c 1
 -520.484674141 113.270112108 -512.871995238 124 -492 124 c 0
 -483 124 -474 121 -465 115 c 1
 -452 81 -438 58 -425 46 c 0
 -411 34 -393 29 -372 29 c 0x50
 -358 29 -334 32 -299 39 c 0
 -252 47 -215 52 -188 52 c 0x30
 -165 52 -146 49 -132 44 c 1
 -132 108 l 1x90
EndSplineSet
Validated: 33
Ligature2: "'blwf' Below Base Forms in Bengali2 lookup 4 subtable" u09cd u09f0
Ligature2: "'blwf' Below Base Forms in Bengali2 lookup 4 subtable" u09cd u09b0
EndChar

StartChar: u09ac_u09cd.blwf
Encoding: 201 -1 189
Width: 5
GlyphClass: 3
Flags: W
HStem: -183 226<-101.999 -41.9688>
VStem: -102 62<-128 -12>
LayerCount: 2
Fore
SplineSet
-102 -128 m 1
 -102 -12 l 1
 -193 -61 l 1
 -102 -128 l 1
-40 -156 m 2
 -40 -170.884288192 -63.7132398626 -183 -85 -183 c 0
 -92 -183 -98 -182 -102 -179 c 2
 -259 -70 l 1
 -265 -63 -268 -59 -268 -56 c 0
 -268 -53 -262 -49 -250 -42 c 2
 -102 40 l 2
 -99 42 -94 43 -88 43 c 0
 -71.9091167759 43 -40 32.1254314743 -40 14 c 2
 -40 -156 l 2
EndSplineSet
Validated: 1
EndChar

StartChar: u0995_u09b0_u09cd.blwf.vatu
Encoding: 202 -1 190
Width: 856
GlyphClass: 3
Flags: W
HStem: 91 61<122.395 335.268> 109 61<335 407.744> 270 49.3316<626.297 711.003> 440 60.1795<605.436 711.111> 526 59<375.638 468.513> 610 63<-8 858>
VStem: 29 58<191.463 349.255> 233 58<280.867 452.536> 471 62<123 373.438 430 525.048> 727 54<334.4 412.494>
AnchorPoint: "Anchor-1" 493 20 basechar 0
LayerCount: 2
Fore
SplineSet
335 109 m 1x7fc0
 335 109 219.740592207 91 190 91 c 0
 177 91 164 92 151 94 c 0
 70 116 29 177 29 278 c 0
 29 294 29 311 31 330 c 1
 36 343 44 350 57 350 c 0
 73 350 85 343 92 328 c 1
 88 309 87 292 87 275 c 0
 87 193 122 152 193 152 c 0xbfc0
 200 152 233 157 289 165 c 0
 312 169 328 170 336 170 c 0
 392 170 437 154 471 123 c 1
 471 487 l 2
 471 513 461 526 441 526 c 0
 436 526 431 525 426 524 c 0
 336 500 291 451 291 376 c 0
 291 351 297 323 308 294 c 0
 309 291 310 287 310 284 c 0
 310 270 301 263 283 263 c 0
 271 263 261 268 253 276 c 1
 240 310 233 343 233 375 c 0
 233 487.887115718 318.431861145 568.061694449 423 583 c 0
 430 584 438 585 445 585 c 0
 481 585 506 571 521 542 c 1
 528 524 l 1
 531 513 533 502 533 489 c 2
 533 430 l 1
 572 470 l 1
 594.163735325 489.789049397 619.460322458 500.179543369 648.385730673 500.179543369 c 0
 718.308581267 500.179543369 781 451.348990574 781 382 c 0
 781 374 780 365 778 357 c 0
 762.516129032 298.935483871 720.809573361 269.903225806 651.974018999 269.903225806 c 0
 649.67950052 269.903225806 647.355722327 270 645 270 c 2
 641 270 l 1
 631 275 626 283 626 293 c 0
 626 306 632 315 645 320 c 1
 649.730082256 319.556554789 654.241671561 319.331602528 658.544456881 319.331602528 c 0
 697.345062644 319.331602528 727 341.706014989 727 382 c 0
 727 389 727 395 725 401 c 0
 709 427 688 440 664 440 c 0
 634 440 601 421 564 383 c 0
 552 371 541 359 533 347 c 1
 533 51 l 2
 533 43 526 35 512 29 c 0
 504 26 496 25 490 24 c 0
 481 24 475 26 471 31 c 0
 429 83 384 109 335 109 c 1x7fc0
858 610 m 1
 -8 610 l 1
 -8 673 l 1
 858 673 l 1
 858 610 l 1
EndSplineSet
Validated: 1
Substitution2: "'salt' Stylistic Alternatives in Bengali2 lookup 17-1" u0995_u09cd_u09b0.salt
Ligature2: "'vatu' Vattu Variants in Bengali lookup 7 subtable" u0995 u09b0_u09cd.blwf
EndChar

StartChar: u0996_u09b0_u09cd.blwf.vatu
Encoding: 203 -1 191
Width: 624
GlyphClass: 3
Flags: W
HStem: 33 55<134.158 317.051> 473 58<80.8202 220.1> 610 63<554 632>
VStem: 24 54<146.748 192.312> 319 57<427.379 569.354> 492 62<122 610>
AnchorPoint: "Anchor-1" 531 10 basechar 0
LayerCount: 2
Fore
SplineSet
254 633 m 0
 254 651.914175369 259.629622686 663 278 663 c 0
 284 663 290 661 297 657 c 0
 352 622 378 568 376 496 c 1
 376 491 l 1
 373 404 325 343 232 308 c 1
 491 122 l 1
 491 183 l 1
 492 183 l 1
 492 617 l 2
 492 654 510 673 546 673 c 2
 632 673 l 1
 632 610 l 1
 554 610 l 1
 554 64 l 2
 554 62 554 60 553 58 c 1
 553 41 l 2
 553 26 540 18 513 18 c 0
 503 18 496 19 491 24 c 0
 466 51 435 64 400 64 c 0
 378 64 348 58 310 47 c 0
 277 37 244 33 212 33 c 0
 115 33 53 77 24 167 c 1
 25 185 38 194 61 194 c 0
 67 194 72 193 78 191 c 1
 100 122 144 88 208 88 c 0
 228 88 250 92 275 99 c 0
 323 112 361 120 389 122 c 1
 152 297 l 1
 146 306 143 315 143 324 c 0
 143 341 150 349 163 349 c 0
 204 354 240 369 271 397 c 0
 303 426 319 461 319 499 c 0
 319 524 312 548 298 572 c 1
 269 506 224 473 162 473 c 0
 126 473 86 485 43 508 c 1
 35 515 31 523 31 533 c 0
 31 552 39 562 57 562 c 0
 60 562 64 561 67 560 c 0
 101 540 132 531 159 531 c 0
 215 531 247 565 254 633 c 0
EndSplineSet
Validated: 33
Ligature2: "'vatu' Vattu Variants in Bengali lookup 7 subtable" u0996 u09b0_u09cd.blwf
EndChar

StartChar: u0997_u09b0_u09cd.blwf.vatu
Encoding: 204 -1 192
Width: 621
GlyphClass: 3
Flags: W
HStem: 0 21G<500 518.5> 16 55<124.88 310.627> 47 58<284.365 462.391> 570 58<190.024 369.982> 600 63<548 626>
VStem: 17 53<129.748 175.517> 254 58<239.213 371.015> 486 62<86 461.968 535 600>
AnchorPoint: "Anchor-1" 511 -3 basechar 0
LayerCount: 2
Fore
SplineSet
207 150 m 0x37
 190.275311966 150 173 159.71568898 173 177 c 0
 173 185 178 192 185 199 c 0
 232 226 254 261 254 306 c 0
 254 366.393797066 207.089839038 418 146 418 c 0
 124 418 103 412 82 399 c 0
 73 393 64 391 56 391 c 0
 41 391 33 399 33 414 c 0
 33 418 34 422 36 427 c 0
 65.5217250241 538.526516758 124.286345493 593.832921962 233 623 c 0
 253 627 273 628 291 628 c 0x37
 365 628 429 597 486 535 c 1
 486 663 l 1
 626 663 l 1
 626 600 l 1
 548 600 l 1
 548 43 l 2
 548 38 547 35 545 32 c 1
 545 23 l 2
 545 8 532 0 505 0 c 0
 495 0 488 2 483 7 c 0
 458 34 428 47 393 47 c 0xaf
 371 47 340 41 302 30 c 0
 269 20 237 16 205 16 c 0
 108 16 46 60 17 150 c 1
 18 168 30 177 53 177 c 0
 59 177 64 176 70 174 c 1
 92 105 136 71 200 71 c 0x47
 220 71 243 75 268 82 c 0
 325 98 368 105 398 105 c 0
 426 105 454 99 483 86 c 1
 483 166 l 1
 486 166 l 1
 486 372 l 2
 486 415 475 451 452 481 c 0
 404 540 346 570 278 570 c 0
 208 570 154 538 115 474 c 1
 228.939544718 485.393954472 312 410.282113186 312 306 c 0
 312 238 281 187 218 152 c 0
 214 151 211 150 207 150 c 0x37
EndSplineSet
Validated: 33
Ligature2: "'vatu' Vattu Variants in Bengali lookup 7 subtable" u0997 u09b0_u09cd.blwf
EndChar

StartChar: u0998_u09b0_u09cd.blwf.vatu
Encoding: 205 -1 193
Width: 545
GlyphClass: 3
Flags: W
HStem: -19 21G<420.5 439.5> -9 57<109.781 312.818> 15 56<208.271 370.46> 610 63<-9 46 100.016 405 467 545>
VStem: 29 56<500.736 594.423> 405 62<122 610>
AnchorPoint: "Anchor-1" 454 -16 basechar 0
LayerCount: 2
Fore
SplineSet
85 548 m 0x1c
 85 508.08778618 121.621068195 477 166 477 c 1
 208 484 l 1
 227 484 237 474 237 455 c 0
 237 448 234 441 229 435 c 2
 127 315 l 1
 405 122 l 1
 405 284.666666667 405 447.333333333 405 610 c 1
 128 610 l 1
 99 594 85 573 85 548 c 0x1c
139 420 m 1
 79.7478550846 428.464592131 29 474.64826657 29 543 c 0
 29 565 35 588 46 610 c 1
 -9 610 l 1
 -9 673 l 1
 545 673 l 1
 545 610 l 1
 467 610 l 1
 467 407.666666667 467 205.333333333 467 3 c 0
 467 -12 453 -19 426 -19 c 0
 415 -19 408 -17 405 -14 c 0
 387 5 363 15 334 15 c 0
 319 15 294 10 258 2 c 0xbc
 223 -6 197 -9 177 -9 c 0
 134 -8 102 0 81 16 c 0
 60 32 39 63 18 110 c 1
 16.5352084186 131.971873722 23.4790997435 144 44 144 c 0
 53 144 63 141 72 135 c 1
 85 101 98 78 111 66 c 0
 125 54 143 48 165 48 c 0x5c
 179 48 203 52 238 59 c 0
 285 67 322 71 349 71 c 0x3c
 357 71 364 71 371 70 c 1
 65 287 l 1
 56 291 51 298 51 307 c 0
 51 314 55 321 61 328 c 2
 139 420 l 1
EndSplineSet
Validated: 33
Ligature2: "'vatu' Vattu Variants in Bengali lookup 7 subtable" u0998 u09b0_u09cd.blwf
EndChar

StartChar: u0999_u09b0_u09cd.blwf.vatu
Encoding: 206 -1 194
Width: 624
GlyphClass: 3
Flags: W
HStem: -103 45<111.256 231.041> -47 51<280.675 397.685> -20 20G<57.8813 68.5> 38 56<294.712 405.117> 436 59<298.019 423.14> 517 20G<38.5 51.5>
VStem: 223 56<342.249 449.588> 407 51<-89.8398 -56.7084 -14 40> 452 57<524.644 600.695> 544 57<173.196 314.237>
AnchorPoint: "Anchor-1" 430 -92 basechar 0
LayerCount: 2
Fore
SplineSet
436 597 m 0x9ec0
 373.739533727 641.471761623 314.534743279 561.057704164 300 516 c 0
 299 512 298 508 297 504 c 1
 326 498 347 495 362 495 c 0
 404 495 434 515 452 556 c 1
 455 573 450 587 436 597 c 0x9ec0
509 568 m 0
 509 492.464095361 437.545272593 436 359 436 c 0
 332 436 307 441 285 450 c 0
 281 450 279 435 279 403 c 0
 279 379 287 358 303 339 c 1
 447 409 l 1
 455 416 466 420 480 420 c 0
 486 420 492 419 498 418 c 1
 567 368 601 310 601 244 c 0
 601 156.774397733 530.82109658 79.3079112175 458 52 c 1
 458 -68 l 2
 458 -83 446 -91 422 -91 c 0
 414 -91 409 -88 407 -84 c 0
 395 -59 377 -47 355 -47 c 0xdf40
 342 -47 322 -52 295 -63 c 0
 232 -89 189 -103 164 -103 c 0
 123 -103 85 -79 50 -30 c 1
 50 -13.4712439681 50.7625194464 0 65 0 c 0xbf40
 72 0 81 -3 92 -10 c 1
 109 -42 132 -58 159 -58 c 0
 173 -58 192 -52 217 -42 c 2
 285 -15 l 2
 320 -2 343 4 353 4 c 0
 369 4 387 -2 407 -14 c 1
 407 40 l 1xdf40
 399 39 391 38 383 38 c 0
 317 38 253 64 193 117 c 0
 109.360185543 189.730273441 67.1169387107 287.973775802 40 410 c 0
 36 426 30 460 20 511 c 1
 22 528 31 537 46 537 c 0
 57 537 67 531 74 519 c 1
 93 415 117 335 144 278 c 0
 185.01482572 195.97034856 271.852598566 94 381 94 c 0
 461.434651996 94 544 162.504339227 544 243 c 0
 544 288 522 327 478 362 c 1
 298 265 l 1
 248 304 223 347 223 394 c 0
 223 425 225 448 230 465 c 0
 229 467 228 468 227 468 c 0
 144 506 87 561 57 633 c 0
 51.434051721 652.480818976 63.1672272809 665 84 665 c 0
 91 665 98 663 104 659 c 1
 143 593 188 547 241 522 c 1
 250 554 268 586 297 616 c 0
 345.783832463 667.832821992 409.442529644 696.199649424 469 647 c 0
 480 638 491 625 501 610 c 1
 506 597 509 583 509 568 c 0
EndSplineSet
Validated: 33
Ligature2: "'vatu' Vattu Variants in Bengali lookup 7 subtable" u0999 u09b0_u09cd.blwf
EndChar

StartChar: u099a_u09b0_u09cd.blwf.vatu
Encoding: 207 -1 195
Width: 475
GlyphClass: 3
Flags: W
HStem: -83 45<-31.7441 89.6973> -27 51<140.148 253.846> 33 62<136.822 219.25> 610 63<-5 70 132 486>
VStem: 70 62<98.9625 475 537.531 610> 264 51<6 77> 344 57<250.489 381.936>
AnchorPoint: "Anchor-1" 297 -77 basechar 0
LayerCount: 2
Fore
SplineSet
132 475 m 1
 132 145 l 2
 132 112 144 95 167 95 c 0
 177 95 189 99 204 107 c 0
 236 125 266 156 296 202 c 0
 328 252 344 297 344 336 c 0
 344 347 343 357 340 366 c 1
 331 381 298 398 241 415 c 0
 184 432 148 452 132 475 c 1
-93 -10 m 1
 -93 6.52875603194 -92.2374805536 20 -78 20 c 0
 -71 20 -62 17 -51 10 c 1
 -34 -22 -11 -38 16 -38 c 0
 30 -38 49 -33 74 -23 c 2
 142 5 l 1
 177 18 199 24 209 24 c 0
 225 24 244 18 264 6 c 1
 264 77 l 1
 239 57 213 43 186 35 c 0
 182 34 176 33 171 33 c 0
 118.111795329 33 70 78.6348847956 70 133 c 2
 70 610 l 1
 -5 610 l 1
 -5 673 l 1
 486 673 l 1
 486 610 l 1
 132 610 l 1
 132 570 l 1
 151 534 181.761811671 501.179832693 227 483 c 2
 334 440 l 1
 365 426 386 406 394 383 c 0
 399 370 401 355 401 337 c 0
 401 277 379 215 333 152 c 0
 326 142 319 134 312 125 c 1
 315 126 l 1
 315 -48 l 2
 315 -63 303 -71 279 -71 c 0
 271 -71 266 -69 264 -65 c 0
 252 -40 234 -27 212 -27 c 0
 199 -27 179 -33 152 -44 c 0
 89 -70 46 -83 21 -83 c 0
 -20 -83 -58 -59 -93 -10 c 1
EndSplineSet
Validated: 1
Ligature2: "'vatu' Vattu Variants in Bengali lookup 7 subtable" u099a u09b0_u09cd.blwf
EndChar

StartChar: u099b_u09b0_u09cd.blwf.vatu
Encoding: 208 -1 196
Width: 617
GlyphClass: 3
Flags: W
HStem: -110 45<118.959 240.422> -54 51<291.182 404.846> 252 49<156.276 241.554> 610 63<-6 85 156 616>
VStem: 94 62<302.324 524 578.599 604> 415 51<-21 50> 477 53<317.734 451.565>
AnchorPoint: "Anchor-1" 448 -103 basechar 0
LayerCount: 2
Fore
SplineSet
156 524 m 1
 156 327 l 2
 156 310 164 301 180 301 c 0
 207 301 243 319 286 354 c 0
 338 398 356 433 339 457 c 0
 329 473 305 482 267 488 c 0
 210 497 173 509 156 524 c 1
376 544 m 1
 467.261941623 537.915870558 530 488.511058979 530 392 c 0
 530 338 511 285 473 234 c 0
 452 206 427 184 402 167 c 0
 383 156 359 145 328 136 c 1
 406 132 487 110 570 69 c 0
 600 54 626 38 650 21 c 1
 654 12 656 6 656 -1 c 0
 656 -18 645 -26 622 -25 c 1
 618 -25 l 1
 572 7 522 31 466 50 c 1
 466 -75 l 2
 466 -90 454 -98 430 -98 c 0
 422 -98 417 -96 415 -92 c 0
 403 -67 385 -54 363 -54 c 0
 350 -54 330 -60 303 -71 c 0
 240 -97 196 -110 171 -110 c 0
 130 -110 93 -86 58 -37 c 1
 58 -20.4712439681 58.7625194464 -7 73 -7 c 0
 80 -7 89 -10 100 -17 c 1
 117 -49 140 -65 167 -65 c 0
 181 -65 200 -60 225 -50 c 2
 292 -22 l 1
 327 -9 350 -3 360 -3 c 0
 376 -3 395 -9 415 -21 c 1
 415 65 l 1
 352 81 270 92 172 97 c 1
 162 105 157 116 157 129 c 0
 157 140 161 147 170 152 c 1
 222 158 258 163 276 168 c 0
 311 177 341.881782036 195.502026869 370 216 c 0
 414.838647583 248.687042776 477 323.875462277 477 394 c 0
 477 439 451 468 399 482 c 1
 400 474 401 466 401 458 c 0
 401 403 374 355 320 312 c 0
 271 273 220 252 170 252 c 0
 119 252 94 275 94 320 c 2
 94 604 l 1
 85 610 l 1
 -6 610 l 1
 -6 673 l 1
 616 673 l 1
 616 612 l 1
 156 612 l 1
 156 562.650745489 271.33019866 542 338 542 c 0
 354 542 367 542 376 544 c 1
EndSplineSet
Validated: 33
Ligature2: "'vatu' Vattu Variants in Bengali lookup 7 subtable" u099b u09b0_u09cd.blwf
EndChar

StartChar: u099c_u09b0_u09cd.blwf.vatu
Encoding: 209 -1 197
Width: 665
GlyphClass: 3
Flags: W
HStem: 49 56<144.389 359.347> 85 56<327.948 545.25> 162 56<252.315 395.906> 346 57<264.26 333.906> 610 63<-6 264 321.235 407.375 476 672>
VStem: 43 57<454.373 558.187> 189 57<409.065 479> 434 56<253.763 377.572> 537 56<134.103 395.031>
AnchorPoint: "Anchor-1" 600 39 basechar 0
LayerCount: 2
Fore
SplineSet
326 218 m 0x7f80
 383.95471864 218 434 254.135622463 434 312 c 0
 434 337 425 363 405 388 c 1
 392 386 370 378 339 365 c 0
 311 352 289 346 274 346 c 0
 266 346 258 347 251 350 c 0
 210 375 189 410 189 455 c 0
 189 512 214 563 264 610 c 1
 -6 610 l 1
 -6 673 l 1
 672 673 l 1
 672 610 l 1
 476 610 l 1
 631 507 l 1
 645 502 652 489 652 469 c 0
 652 465 651 462 650 460 c 0
 612 411 593 345 593 262 c 0
 593 202 602 137 622 66 c 1
 618 47 607 38 587 38 c 0
 582 38 577 39 572 41 c 1
 545 70 509 85 466 85 c 0x7f80
 439 85 399 79 345 67 c 0
 291 55 250 49 222 49 c 0
 127 49 63 97 31 192 c 1
 34 212 43 221 58 221 c 0
 66 221 76 217 86 210 c 1
 111 140 154 105 215 105 c 0xbf80
 244 105 285 111 341 123 c 0
 397 135 439 141 468 141 c 0
 496 141 522 138 546 131 c 1
 540 200 537 247 537 274 c 0
 537 346 553 411 585 471 c 1
 389 602 l 2
 383 605 377 607 370 607 c 0
 347 607 322 593 296 566 c 0
 270 539 254 510 248 479 c 1
 246 461 l 1
 246 438 255 419 273 404 c 0
 276 403 278 403 281 403 c 0
 289 403 307 410 334 425 c 0
 361 440 386 447 407 447 c 0
 413 447 419 446 426 445 c 1
 469 419 490 377 490 320 c 0
 490 241.576671308 441.980454147 174.287800535 370 165 c 0
 357 163 344 162 332 162 c 0
 179 162 83 289 43 544 c 1
 54 555 65 560 76 560 c 0
 84 560 92 558 100 552 c 1
 117 437 149 351 195 292 c 0
 234 243 277 218 326 218 c 0x7f80
EndSplineSet
Validated: 1
Ligature2: "'vatu' Vattu Variants in Bengali lookup 7 subtable" u099c u09b0_u09cd.blwf
EndChar

